{
.formatVersion = 3;
axes = (
{
name = Weight;
tag = wght;
}
);
classes = (
{
code = "zero one two three four five six seven eight nine zero.tf one.tf two.tf three.tf four.tf five.tf six.tf seven.tf eight.tf nine.tf";
name = calt;
}
);
familyName = "Alba Sans";
customParameters = (
{
name = glyphOrder;
value = (
A,
Aacute,
Abreve,
Acircumflex,
Adieresis,
Agrave,
Amacron,
Aogonek,
Aring,
Atilde,
AE,
AEacute,
B,
C,
Cacute,
Ccaron,
Ccedilla,
Cdotaccent,
D,
Eth,
Dcaron,
Dcroat,
E,
Eacute,
Ebreve,
Ecaron,
Ecircumflex,
Edieresis,
Edotaccent,
Egrave,
Emacron,
Eogonek,
Etilde,
F,
G,
Gbreve,
Gcommaaccent,
Gdotaccent,
H,
I,
Iacute,
Ibreve,
Icircumflex,
Idieresis,
Idotaccent,
Igrave,
Imacron,
Iogonek,
Itilde,
J,
K,
Kcommaaccent,
L,
Lacute,
Lcaron,
Lcommaaccent,
Ldot,
Lslash,
M,
N,
Nacute,
Ncaron,
Ncommaaccent,
Ntilde,
O,
Oacute,
Obreve,
Ocircumflex,
Odieresis,
Ograve,
Ohungarumlaut,
Omacron,
Oslash,
Otilde,
OE,
P,
Thorn,
Q,
R,
Racute,
Rcaron,
Rcommaaccent,
S,
Sacute,
Scaron,
Scedilla,
Scommaaccent,
T,
Tcaron,
Tcedilla,
Tcommaaccent,
U,
Uacute,
Ubreve,
Ucircumflex,
Udieresis,
Ugrave,
Uhungarumlaut,
Umacron,
Uogonek,
Uring,
Utilde,
V,
W,
Wacute,
Wcircumflex,
Wdieresis,
Wgrave,
X,
Y,
Yacute,
Ycircumflex,
Ydieresis,
Ygrave,
Ytilde,
Z,
Zacute,
Zcaron,
Zdotaccent,
a,
aacute,
abreve,
acircumflex,
adieresis,
agrave,
amacron,
aogonek,
aring,
atilde,
ae,
aeacute,
b,
c,
cacute,
ccaron,
ccedilla,
cdotaccent,
d,
eth,
dcaron,
dcroat,
e,
eacute,
ebreve,
ecaron,
ecircumflex,
edieresis,
edotaccent,
egrave,
emacron,
eogonek,
etilde,
f,
g,
gbreve,
gcommaaccent,
gdotaccent,
h,
i,
dotlessi,
iacute,
ibreve,
icircumflex,
idieresis,
igrave,
imacron,
iogonek,
itilde,
j,
k,
kcommaaccent,
l,
lacute,
lcaron,
lcommaaccent,
ldot,
lslash,
m,
n,
nacute,
ncaron,
ncommaaccent,
ntilde,
o,
oacute,
obreve,
ocircumflex,
odieresis,
ograve,
ohungarumlaut,
omacron,
oslash,
otilde,
oe,
p,
thorn,
q,
r,
racute,
rcaron,
rcommaaccent,
s,
sacute,
scaron,
scedilla,
scommaaccent,
germandbls,
t,
tcaron,
tcedilla,

glyphs = (
{
glyphname = A;
layers = (
{
layerId = "F6AEDC33-7BF1-40E1-A2D2-3CCCCC93695C";
shapes = (
{
closed = 1;
nodes = (
(259,708,l),
(0,0,l),
(233,0,l),
(426,593,l),
(347,593,l),
(539,0,l),
(773,0,l),
(515,708,l)
);
},
{
closed = 1;
nodes = (
(114,107,l),
(634,107,l),
(579,274,l),
(170,274,l)
);
}
);
width = 773;
},
{
layerId = "D00D5DE3-9836-4C68-A522-E01534F2A0A6";
shapes = (
{
closed = 1;
nodes = (
(287,708,l),
(20,0,l),
(118,0,l),
(357,657,l),
(321,657,l),
(558,0,l),
(656,0,l),
(391,708,l)
);
},
{
closed = 1;
nodes = (
(119,168,l),
(549,168,l),
(524,239,l),
(143,239,l)
);
}
);
width = 676;
},
{
layerId = "5A5786DC-1B88-4A0B-9FB6-0051FAC2E168";
shapes = (
{
closed = 1;
nodes = (
(302,708,l),
(31,0,l),
(55,0,l),
(319,692,l),
(306,692,l),
(568,0,l),
(592,0,l),
(322,708,l)
);
},
{
closed = 1;
nodes = (
(121,201,l),
(502,201,l),
(494,220,l),
(128,220,l)
);
}
);
width = 623;
}
);
unicode = 65;
},
{
glyphname = Aogonek;
layers = (
{
layerId = "501F5793-F66E-4760-82A9-E0BDD703CC6F";
name = "LightItalic.Sep 20 17, 19:55";
shapes = (
{
closed = 1;
nodes = (
(117,194,l),
(484,194,l),
(477,212,l),
(123,212,l)
);
},
{
closed = 1;
nodes = (
(30,0,l),
(53,0,l),
(306,662,l),
(296,662,l),
(551,-6,l),
(557,0,l),
(466,0,o),
(428,-42,o),
(428,-95,c),
(428,-148,o),
(466,-190,o),
(543,-190,c),
(611,-190,l),
(611,-170,l),
(543,-170,ls),
(484,-170,o),
(448,-142,o),
(448,-95,c),
(448,-48,o),
(484,-20,o),
(543,-20,cs),
(571,-20,l),
(571,0,l),
(311,683,l),
(291,683,l)
);
}
);
width = 601;
},
{
anchors = (
{
name = _ogonek;
position = "{773, 0}";
}
);
layerId = "F6AEDC33-7BF1-40E1-A2D2-3CCCCC93695C";
shapes = (
{
closed = 1;
nodes = (
(694,90,ls),
(538,27,o),
(499,-26,o),
(499,-97,cs),
(499,-177,o),
(559,-223,o),
(659,-223,cs),
(702,-223,o),
(740,-217,o),
(773,-207,c),
(773,-91,l),
(740,-102,o),
(713,-107,o),
(691,-107,cs),
(667,-107,o),
(654,-98,o),
(654,-82,cs),
(654,-66,o),
(666,-46,o),
(729,-19,cs),
(773,0,l),
(731,105,l)
);
},
{
alignment = -1;
ref = A;
}
);
width = 773;
},
{
anchors = (
{
name = _ogonek;
position = "{664, 0}";
}
);
layerId = "D00D5DE3-9836-4C68-A522-E01534F2A0A6";
shapes = (
{
closed = 1;
nodes = (
(592,39,ls),
(498,-4,o),
(465,-52,o),
(465,-103,cs),
(465,-183,o),
(535,-211,o),
(598,-211,cs),
(627,-211,o),
(656,-205,o),
(679,-196,c),
(679,-123,l),
(656,-132,o),
(632,-137,o),
(613,-137,cs),
(579,-137,o),
(558,-119,o),
(558,-91,cs),
(558,-67,o),
(572,-47,o),
(615,-25,cs),
(664,0,l),
(634,58,l)
);
},
{
alignment = -1;
ref = A;
}
);
width = 697;
},
{
anchors = (
{
name = _ogonek;
position = "{571, 0}";
}
);
layerId = "5A5786DC-1B88-4A0B-9FB6-0051FAC2E168";
shapes = (
{
closed = 1;
nodes = (
(495,-16,ls),
(433,-44,o),
(409,-78,o),
(409,-116,cs),
(409,-167,o),
(448,-190,o),
(499,-190,cs),
(518,-190,o),
(540,-186,o),
(561,-178,c),
(561,-158,l),
(540,-166,o),
(518,-171,o),
(498,-171,cs),
(459,-171,o),
(429,-154,o),
(429,-115,cs),
(429,-86,o),
(447,-57,o),
(499,-33,cs),
(571,0,l),
(564,15,l)
);
},
{
alignment = -1;
ref = A;
}
);
width = 601;
}
);
unicode = 260;
},
{
glyphname = AE;
layers = (
{
layerId = "F6AEDC33-7BF1-40E1-A2D2-3CCCCC93695C";
shapes = (
{
closed = 1;
nodes = (
(155,97,l),
(598,97,l),
(598,264,l),
(248,264,l)
);
},
{
closed = 1;
nodes = (
(952,532,l),
(952,708,l),
(339,708,l),
(0,0,l),
(241,0,l),
(490,537,l),
(490,0,l),
(952,0,l),
(952,177,l),
(712,177,l),
(712,280,l),
(922,280,l),
(922,447,l),
(712,447,l),
(712,532,l)
);
}
);
width = 986;
},
{
layerId = "D00D5DE3-9836-4C68-A522-E01534F2A0A6";
shapes = (
{
closed = 1;
nodes = (
(144,160,l),
(504,160,l),
(504,231,l),
(181,231,l)
);
},
{
closed = 1;
nodes = (
(848,634,l),
(848,708,l),
(407,708,l),
(6,0,l),
(107,0,l),
(461,623,l),
(461,0,l),
(848,0,l),
(848,74,l),
(553,74,l),
(553,322,l),
(818,322,l),
(818,393,l),
(553,393,l),
(553,634,l)
);
}
);
width = 893;
},
{
layerId = "5A5786DC-1B88-4A0B-9FB6-0051FAC2E168";
shapes = (
{
closed = 1;
nodes = (
(138,195,l),
(453,195,l),
(453,213,l),
(144,213,l)
);
},
{
closed = 1;
nodes = (
(791,690,l),
(791,708,l),
(445,708,l),
(10,0,l),
(33,0,l),
(445,671,l),
(445,0,l),
(791,0,l),
(791,18,l),
(466,18,l),
(466,345,l),
(761,345,l),
(761,363,l),
(466,363,l),
(466,690,l)
);
}
);
width = 842;
}
);
unicode = 198;
},
{
glyphname = B;
layers = (
{
layerId = "F6AEDC33-7BF1-40E1-A2D2-3CCCCC93695C";
shapes = (
{
closed = 1;
nodes = (
(417,447,o),
(398,432,o),
(358,432,cs),
(272,432,l),
(272,532,l),
(358,532,ls),
(398,532,o),
(417,516,o),
(417,481,cs)
);
},
{
closed = 1;
nodes = (
(659,285,o),
(595,364,o),
(481,369,c),
(464,357,l),
(563,352,o),
(643,416,o),
(643,524,cs),
(643,647,o),
(552,708,o),
(411,708,cs),
(50,708,l),
(50,0,l),
(421,0,ls),
(575,0,o),
(659,70,o),
(659,194,cs)
);
},
{
closed = 1;
nodes = (
(432,192,o),
(413,178,o),
(373,178,cs),
(272,178,l),
(272,278,l),
(373,278,ls),
(413,278,o),
(432,261,o),
(432,227,cs)
);
}
);
width = 684;
},
{
layerId = "D00D5DE3-9836-4C68-A522-E01534F2A0A6";
shapes = (
{
closed = 1;
nodes = (
(456,442,o),
(408,397,o),
(317,397,cs),
(165,397,l),
(165,633,l),
(313,633,ls),
(413,633,o),
(456,585,o),
(456,516,cs)
);
},
{
closed = 1;
nodes = (
(565,291,o),
(487,369,o),
(378,370,c),
(367,361,l),
(460,360,o),
(549,414,o),
(549,531,cs),
(549,637,o),
(477,708,o),
(332,708,cs),
(73,708,l),
(73,0,l),
(336,0,ls),
(489,0,o),
(565,79,o),
(565,191,cs)
);
},
{
closed = 1;
nodes = (
(471,122,o),
(416,76,o),
(319,76,cs),
(165,76,l),
(165,330,l),
(318,330,ls),
(414,330,o),
(471,281,o),
(471,202,cs)
);
}
);
width = 606;
},
{
layerId = "5A5786DC-1B88-4A0B-9FB6-0051FAC2E168";
shapes = (
{
closed = 1;
nodes = (
(477,439,o),
(414,378,o),
(295,378,cs),
(106,378,l),
(106,688,l),
(289,688,ls),
(421,688,o),
(477,623,o),
(477,535,c)
);
},
{
closed = 1;
nodes = (
(513,295,o),
(428,371,o),
(322,371,c),
(314,363,l),
(404,364,o),
(497,413,o),
(497,535,c),
(497,632,o),
(436,708,o),
(289,708,cs),
(85,708,l),
(85,0,l),
(289,0,ls),
(441,0,o),
(513,84,o),
(513,189,cs)
);
},
{
closed = 1;
nodes = (
(493,84,o),
(417,20,o),
(289,20,cs),
(106,20,l),
(106,358,l),
(287,358,ls),
(415,358,o),
(493,292,o),
(493,189,cs)
);
}
);
width = 563;
}
);
unicode = 66;
},
{
glyphname = C;
layers = (
{
layerId = "F6AEDC33-7BF1-40E1-A2D2-3CCCCC93695C";
shapes = (
{
closed = 1;
nodes = (
(30,145,o),
(164,-5,o),
(382,-5,c),
(570,-5,o),
(698,108,o),
(727,276,c),
(492,276,l),
(471,228,o),
(428,201,o),
(378,201,c),
(303,201,o),
(256,262,o),
(256,357,c),
(256,452,o),
(303,513,o),
(378,513,c),
(428,513,o),
(471,486,o),
(492,438,c),
(727,438,l),
(698,606,o),
(570,719,o),
(382,719,c),
(164,719,o),
(30,569,o),
(30,357,c)
);
}
);
width = 757;
},
{
layerId = "D00D5DE3-9836-4C68-A522-E01534F2A0A6";
shapes = (
{
closed = 1;
nodes = (
(49,143,o),
(186,-6,o),
(387,-6,cs),
(564,-6,o),
(676,89,o),
(718,232,c),
(621,232,l),
(587,143,o),
(507,78,o),
(385,78,cs),
(249,78,o),
(144,184,o),
(144,354,cs),
(144,526,o),
(249,631,o),
(385,631,cs),
(507,631,o),
(587,567,o),
(621,477,c),
(718,477,l),
(676,621,o),
(564,717,o),
(387,717,cs),
(186,717,o),
(49,567,o),
(49,354,cs)
);
}
);
width = 767;
},
{
layerId = "5A5786DC-1B88-4A0B-9FB6-0051FAC2E168";
shapes = (
{
closed = 1;
nodes = (
(60,142,o),
(198,-7,o),
(390,-7,c),
(560,-7,o),
(665,78,o),
(713,208,c),
(693,208,l),
(652,96,o),
(551,11,o),
(390,11,c),
(219,11,o),
(81,141,o),
(81,353,c),
(81,567,o),
(219,697,o),
(390,697,c),
(551,697,o),
(652,612,o),
(693,499,c),
(713,499,l),
(665,630,o),
(560,715,o),
(390,715,c),
(198,715,o),
(60,566,o),
(60,353,c)
);
}
);
width = 773;
}
);
unicode = 67;
},
{
glyphname = D;
layers = (
{
layerId = "F6AEDC33-7BF1-40E1-A2D2-3CCCCC93695C";
shapes = (
{
closed = 1;
nodes = (
(50,708,l),
(50,0,l),
(345,0,ls),
(571,0,o),
(713,154,o),
(713,356,cs),
(713,560,o),
(571,708,o),
(345,708,cs)
);
},
{
closed = 1;
nodes = (
(272,198,l),
(272,514,l),
(325,514,ls),
(423,514,o),
(488,459,o),
(488,356,cs),
(488,253,o),
(423,198,o),
(325,198,cs)
);
}
);
width = 743;
},
{
layerId = "D00D5DE3-9836-4C68-A522-E01534F2A0A6";
shapes = (
{
closed = 1;
nodes = (
(73,708,l),
(73,0,l),
(298,0,ls),
(537,0,o),
(670,139,o),
(670,355,cs),
(670,571,o),
(537,708,o),
(298,708,cs)
);
},
{
closed = 1;
nodes = (
(165,82,l),
(165,628,l),
(291,628,ls),
(478,628,o),
(576,525,o),
(576,355,cs),
(576,185,o),
(478,82,o),
(291,82,cs)
);
}
);
width = 719;
},
{
layerId = "5A5786DC-1B88-4A0B-9FB6-0051FAC2E168";
shapes = (
{
closed = 1;
nodes = (
(85,708,l),
(85,0,l),
(272,0,l),
(518,0,o),
(646,131,o),
(646,354,c),
(646,577,o),
(518,708,o),
(272,708,c)
);
},
{
closed = 1;
nodes = (
(106,18,l),
(106,690,l),
(272,690,l),
(509,690,o),
(625,561,o),
(625,354,c),
(625,147,o),
(509,18,o),
(272,18,c)
);
}
);
width = 706;
}
);
unicode = 68;
},
{
glyphname = Eth;
layers = (
{
layerId = "F6AEDC33-7BF1-40E1-A2D2-3CCCCC93695C";
shapes = (
{
closed = 1;
nodes = (
(0,268,l),
(402,268,l),
(402,444,l),
(0,444,l)
);
},
{
closed = 1;
nodes = (
(50,708,l),
(50,0,l),
(345,0,ls),
(571,0,o),
(713,154,o),
(713,356,cs),
(713,560,o),
(571,708,o),
(345,708,cs)
);
},
{
closed = 1;
nodes = (
(272,198,l),
(272,514,l),
(325,514,ls),
(423,514,o),
(488,459,o),
(488,356,cs),
(488,253,o),
(423,198,o),
(325,198,cs)
);
}
);
width = 743;
},
{
layerId = "D00D5DE3-9836-4C68-A522-E01534F2A0A6";
shapes = (
{
closed = 1;
nodes = (
(6,318,l),
(388,318,l),
(388,392,l),
(6,392,l)
);
},
{
closed = 1;
nodes = (
(99,708,l),
(99,0,l),
(324,0,ls),
(563,0,o),
(696,139,o),
(696,355,cs),
(696,571,o),
(563,708,o),
(324,708,cs)
);
},
{
closed = 1;
nodes = (
(191,82,l),
(191,628,l),
(317,628,ls),
(504,628,o),
(603,525,o),
(603,355,cs),
(603,185,o),
(504,82,o),
(317,82,cs)
);
}
);
width = 745;
},
{
layerId = "5A5786DC-1B88-4A0B-9FB6-0051FAC2E168";
shapes = (
{
closed = 1;
nodes = (
(10,345,l),
(380,345,l),
(380,363,l),
(10,363,l)
);
},
{
closed = 1;
nodes = (
(126,708,l),
(126,0,l),
(312,0,l),
(558,0,o),
(686,131,o),
(686,354,c),
(686,577,o),
(558,708,o),
(312,708,c)
);
},
{
closed = 1;
nodes = (
(146,18,l),
(146,690,l),
(312,690,l),
(549,690,o),
(666,561,o),
(666,354,c),
(666,147,o),
(549,18,o),
(312,18,c)
);
}
);
width = 746;
}
);
unicode = 208;
},
{
glyphname = E;
layers = (
{
layerId = "F6AEDC33-7BF1-40E1-A2D2-3CCCCC93695C";
shapes = (
{
closed = 1;
nodes = (
(522,708,l),
(50,708,l),
(50,0,l),
(522,0,l),
(522,177,l),
(272,177,l),
(272,277,l),
(492,277,l),
(492,444,l),
(272,444,l),
(272,532,l),
(522,532,l)
);
}
);
width = 556;
},
{
layerId = "D00D5DE3-9836-4C68-A522-E01534F2A0A6";
shapes = (
{
closed = 1;
nodes = (
(463,708,l),
(73,708,l),
(73,0,l),
(463,0,l),
(463,74,l),
(165,74,l),
(165,321,l),
(433,321,l),
(433,392,l),
(165,392,l),
(165,634,l),
(463,634,l)
);
}
);
width = 508;
},
{
layerId = "5A5786DC-1B88-4A0B-9FB6-0051FAC2E168";
shapes = (
{
closed = 1;
nodes = (
(431,708,l),
(85,708,l),
(85,0,l),
(431,0,l),
(431,18,l),
(106,18,l),
(106,345,l),
(401,345,l),
(401,363,l),
(106,363,l),
(106,690,l),
(431,690,l)
);
}
);
width = 482;
}
);
unicode = 69;
},
{
glyphname = F;
layers = (
{
layerId = "F6AEDC33-7BF1-40E1-A2D2-3CCCCC93695C";
shapes = (
{
closed = 1;
nodes = (
(50,0,l),
(272,0,l),
(272,267,l),
(472,267,l),
(472,434,l),
(272,434,l),
(272,532,l),
(550,532,l),
(550,708,l),
(50,708,l)
);
}
);
width = 575;
},
{
layerId = "D00D5DE3-9836-4C68-A522-E01534F2A0A6";
shapes = (
{
closed = 1;
nodes = (
(73,0,l),
(165,0,l),
(165,317,l),
(426,317,l),
(426,388,l),
(165,388,l),
(165,634,l),
(473,634,l),
(473,708,l),
(73,708,l)
);
}
);
width = 509;
},
{
layerId = "5A5786DC-1B88-4A0B-9FB6-0051FAC2E168";
shapes = (
{
closed = 1;
nodes = (
(85,0,l),
(106,0,l),
(106,345,l),
(401,345,l),
(401,363,l),
(106,363,l),
(106,690,l),
(431,690,l),
(431,708,l),
(85,708,l)
);
}
);
width = 472;
}
);
unicode = 70;
},
{
glyphname = G;
layers = (
{
layerId = "F6AEDC33-7BF1-40E1-A2D2-3CCCCC93695C";
shapes = (
{
closed = 1;
nodes = (
(30,145,o),
(168,-5,o),
(392,-5,c),
(576,-5,o),
(677,103,o),
(726,188,c),
(726,411,l),
(363,411,l),
(363,253,l),
(541,253,l),
(508,209,o),
(467,191,o),
(416,191,c),
(307,191,o),
(256,246,o),
(256,357,c),
(256,452,o),
(305,513,o),
(391,513,c),
(437,513,o),
(470,496,o),
(487,469,c),
(722,469,l),
(701,620,o),
(579,719,o),
(390,719,c),
(167,719,o),
(30,569,o),
(30,357,c)
);
}
);
width = 756;
},
{
layerId = "D00D5DE3-9836-4C68-A522-E01534F2A0A6";
shapes = (
{
closed = 1;
nodes = (
(37,142,o),
(194,-6,o),
(393,-6,cs),
(585,-6,o),
(725,135,o),
(741,311,c),
(741,382,l),
(360,382,l),
(360,307,l),
(642,307,l),
(628,167,o),
(532,77,o),
(393,77,cs),
(244,77,o),
(132,185,o),
(132,355,cs),
(132,526,o),
(244,634,o),
(393,634,cs),
(493,634,o),
(570,586,o),
(609,503,c),
(719,503,l),
(667,640,o),
(543,717,o),
(393,717,cs),
(194,717,o),
(37,568,o),
(37,355,cs)
);
}
);
width = 782;
},
{
layerId = "5A5786DC-1B88-4A0B-9FB6-0051FAC2E168";
shapes = (
{
closed = 1;
nodes = (
(60,141,o),
(201,-8,o),
(398,-8,c),
(595,-8,o),
(736,141,o),
(736,353,c),
(736,361,l),
(383,361,l),
(383,343,l),
(717,343,l),
(712,136,o),
(571,10,o),
(398,10,c),
(222,10,o),
(81,140,o),
(81,353,c),
(81,566,o),
(222,696,o),
(398,696,c),
(545,696,o),
(652,611,o),
(693,498,c),
(713,498,l),
(665,627,o),
(554,714,o),
(398,714,c),
(201,714,o),
(60,565,o),
(60,353,c)
);
}
);
width = 796;
}
);
unicode = 71;
},
{
glyphname = Gcommaaccent;
layers = (
{
layerId = "F6AEDC33-7BF1-40E1-A2D2-3CCCCC93695C";
shapes = (
{
closed = 1;
nodes = (
(298,-35,l),
(298,-182,l),
(370,-182,l),
(370,-193,ls),
(370,-245,o),
(350,-268,o),
(315,-268,c),
(315,-346,l),
(429,-346,o),
(480,-266,o),
(480,-170,cs),
(480,-128,o),
(472,-82,o),
(454,-35,c)
);
},
{
alignment = -1;
ref = G;
}
);
width = 756;
},
{
layerId = "D00D5DE3-9836-4C68-A522-E01534F2A0A6";
shapes = (
{
closed = 1;
nodes = (
(349,-50,l),
(349,-127,l),
(395,-127,l),
(395,-136,ls),
(395,-175,o),
(380,-197,o),
(347,-197,c),
(347,-236,l),
(411,-236,o),
(448,-198,o),
(448,-118,cs),
(448,-98,o),
(444,-73,o),
(437,-50,c)
);
},
{
alignment = -1;
ref = G;
}
);
width = 779;
},
{
layerId = "5A5786DC-1B88-4A0B-9FB6-0051FAC2E168";
shapes = (
{
closed = 1;
nodes = (
(377,-59,l),
(377,-97,l),
(408,-97,l),
(408,-104,ls),
(408,-137,o),
(397,-158,o),
(365,-158,c),
(365,-176,l),
(401,-176,o),
(430,-161,o),
(430,-90,cs),
(430,-81,o),
(429,-68,o),
(428,-59,c)
);
},
{
alignment = -1;
ref = G;
}
);
width = 792;
}
);
unicode = 290;
},
{
glyphname = H;
layers = (
{
layerId = "F6AEDC33-7BF1-40E1-A2D2-3CCCCC93695C";
shapes = (
{
closed = 1;
nodes = (
(50,0,l),
(272,0,l),
(272,708,l),
(50,708,l)
);
},
{
closed = 1;
nodes = (
(483,0,l),
(705,0,l),
(705,708,l),
(483,708,l)
);
},
{
closed = 1;
nodes = (
(252,276,l),
(505,276,l),
(505,453,l),
(252,453,l)
);
}
);
width = 755;
},
{
layerId = "D00D5DE3-9836-4C68-A522-E01534F2A0A6";
shapes = (
{
closed = 1;
nodes = (
(73,0,l),
(165,0,l),
(165,708,l),
(73,708,l)
);
},
{
closed = 1;
nodes = (
(524,0,l),
(616,0,l),
(616,708,l),
(524,708,l)
);
},
{
closed = 1;
nodes = (
(151,327,l),
(540,327,l),
(540,401,l),
(151,401,l)
);
}
);
width = 689;
},
{
layerId = "5A5786DC-1B88-4A0B-9FB6-0051FAC2E168";
shapes = (
{
closed = 1;
nodes = (
(85,0,l),
(106,0,l),
(106,708,l),
(85,708,l)
);
},
{
closed = 1;
nodes = (
(547,0,l),
(567,0,l),
(567,708,l),
(547,708,l)
);
},
{
closed = 1;
nodes = (
(96,355,l),
(559,355,l),
(559,373,l),
(96,373,l)
);
}
);
width = 653;
}
);
unicode = 72;
},
{
glyphname = I;
layers = (
{
layerId = "F6AEDC33-7BF1-40E1-A2D2-3CCCCC93695C";
shapes = (
{
closed = 1;
nodes = (
(50,0,l),
(272,0,l),
(272,708,l),
(50,708,l)
);
}
);
width = 322;
},
{
layerId = "D00D5DE3-9836-4C68-A522-E01534F2A0A6";
shapes = (
{
closed = 1;
nodes = (
(73,0,l),
(165,0,l),
(165,708,l),
(73,708,l)
);
}
);
width = 238;
},
{
layerId = "5A5786DC-1B88-4A0B-9FB6-0051FAC2E168";
shapes = (
{
closed = 1;
nodes = (
(85,0,l),
(106,0,l),
(106,708,l),
(85,708,l)
);
}
);
width = 191;
}
);
unicode = 73;
},
{
glyphname = J;
layers = (
{
layerId = "F6AEDC33-7BF1-40E1-A2D2-3CCCCC93695C";
shapes = (
{
closed = 1;
nodes = (
(323,251,ls),
(323,205,o),
(305,193,o),
(281,193,cs),
(252,193,o),
(229,209,o),
(229,271,c),
(10,271,l),
(10,85,o),
(125,-7,o),
(291,-7,cs),
(447,-7,o),
(544,78,o),
(544,251,cs),
(544,708,l),
(323,708,l)
);
}
);
width = 590;
},
{
layerId = "D00D5DE3-9836-4C68-A522-E01534F2A0A6";
shapes = (
{
closed = 1;
nodes = (
(326,182,ls),
(326,128,o),
(302,76,o),
(225,76,cs),
(145,76,o),
(114,132,o),
(114,208,c),
(23,208,l),
(23,71,o),
(101,-7,o),
(228,-7,cs),
(348,-7,o),
(418,66,o),
(418,182,cs),
(418,708,l),
(326,708,l)
);
}
);
width = 486;
},
{
layerId = "5A5786DC-1B88-4A0B-9FB6-0051FAC2E168";
shapes = (
{
closed = 1;
nodes = (
(328,144,ls),
(328,85,o),
(300,11,o),
(194,11,cs),
(86,11,o),
(50,89,o),
(50,174,c),
(30,174,l),
(30,63,o),
(88,-7,o),
(194,-7,cs),
(294,-7,o),
(348,60,o),
(348,144,cs),
(348,708,l),
(328,708,l)
);
}
);
width = 428;
}
);
unicode = 74;
},
{
glyphname = K;
layers = (
{
layerId = "F6AEDC33-7BF1-40E1-A2D2-3CCCCC93695C";
shapes = (
{
closed = 1;
nodes = (
(50,0,l),
(272,0,l),
(272,708,l),
(50,708,l)
);
},
{
closed = 1;
nodes = (
(237,359,l),
(478,0,l),
(745,0,l),
(475,375,l),
(456,329,l),
(745,708,l),
(480,708,l)
);
}
);
width = 755;
},
{
layerId = "D00D5DE3-9836-4C68-A522-E01534F2A0A6";
shapes = (
{
closed = 1;
nodes = (
(73,0,l),
(165,0,l),
(165,708,l),
(73,708,l)
);
},
{
closed = 1;
nodes = (
(143,355,l),
(460,0,l),
(572,0,l),
(240,366,l),
(235,343,l),
(572,708,l),
(461,708,l)
);
}
);
width = 589;
},
{
layerId = "5A5786DC-1B88-4A0B-9FB6-0051FAC2E168";
shapes = (
{
closed = 1;
nodes = (
(85,0,l),
(106,0,l),
(106,708,l),
(85,708,l)
);
},
{
closed = 1;
nodes = (
(91,353,l),
(450,0,l),
(477,0,l),
(111,361,l),
(114,350,l),
(477,708,l),
(450,708,l)
);
}
);
width = 497;
}
);
unicode = 75;
},
{
glyphname = Kcommaaccent;
layers = (
{
layerId = "F6AEDC33-7BF1-40E1-A2D2-3CCCCC93695C";
shapes = (
{
closed = 1;
nodes = (
(319,-35,l),
(319,-182,l),
(391,-182,l),
(391,-193,ls),
(391,-245,o),
(370,-268,o),
(336,-268,c),
(336,-346,l),
(449,-346,o),
(500,-266,o),
(500,-170,cs),
(500,-128,o),
(493,-82,o),
(475,-35,c)
);
},
{
alignment = -1;
ref = K;
}
);
width = 798;
},
{
layerId = "D00D5DE3-9836-4C68-A522-E01534F2A0A6";
shapes = (
{
closed = 1;
nodes = (
(253,-50,l),
(253,-127,l),
(299,-127,l),
(299,-136,ls),
(299,-175,o),
(284,-197,o),
(252,-197,c),
(252,-236,l),
(315,-236,o),
(352,-198,o),
(352,-118,cs),
(352,-98,o),
(349,-73,o),
(341,-50,c)
);
},
{
alignment = -1;
ref = K;
}
);
width = 602;
},
{
layerId = "5A5786DC-1B88-4A0B-9FB6-0051FAC2E168";
shapes = (
{
closed = 1;
nodes = (
(217,-59,l),
(217,-97,l),
(248,-97,l),
(248,-104,ls),
(248,-137,o),
(237,-158,o),
(205,-158,c),
(205,-176,l),
(241,-176,o),
(270,-161,o),
(270,-90,cs),
(270,-81,o),
(269,-68,o),
(268,-59,c)
);
},
{
alignment = -1;
ref = K;
}
);
width = 494;
}
);
unicode = 310;
},
{
glyphname = L;
layers = (
{
layerId = "F6AEDC33-7BF1-40E1-A2D2-3CCCCC93695C";
shapes = (
{
closed = 1;
nodes = (
(50,708,l),
(50,0,l),
(486,0,l),
(486,168,l),
(272,168,l),
(272,708,l)
);
}
);
width = 506;
},
{
layerId = "D00D5DE3-9836-4C68-A522-E01534F2A0A6";
shapes = (
{
closed = 1;
nodes = (
(73,708,l),
(73,0,l),
(416,0,l),
(416,71,l),
(165,71,l),
(165,708,l)
);
}
);
width = 436;
},
{
layerId = "5A5786DC-1B88-4A0B-9FB6-0051FAC2E168";
shapes = (
{
closed = 1;
nodes = (
(85,708,l),
(85,0,l),
(377,0,l),
(377,18,l),
(106,18,l),
(106,708,l)
);
}
);
width = 397;
}
);
unicode = 76;
},
{
glyphname = Lcaron;
layers = (
{
layerId = "F6AEDC33-7BF1-40E1-A2D2-3CCCCC93695C";
shapes = (
{
closed = 1;
nodes = (
(369,708,l),
(369,562,l),
(441,562,l),
(441,550,ls),
(441,499,o),
(420,476,o),
(386,476,c),
(386,397,l),
(499,397,o),
(550,477,o),
(550,574,cs),
(550,616,o),
(543,662,o),
(525,708,c)
);
},
{
alignment = -1;
ref = L;
}
);
width = 577;
},
{
layerId = "D00D5DE3-9836-4C68-A522-E01534F2A0A6";
shapes = (
{
closed = 1;
nodes = (
(281,705,l),
(281,619,l),
(331,619,l),
(331,596,ls),
(331,560,o),
(317,541,o),
(282,541,c),
(282,500,l),
(348,500,o),
(384,538,o),
(384,613,cs),
(384,640,o),
(380,670,o),
(372,705,c)
);
},
{
alignment = -1;
ref = L;
}
);
width = 460;
},
{
layerId = "5A5786DC-1B88-4A0B-9FB6-0051FAC2E168";
shapes = (
{
closed = 1;
nodes = (
(232,704,l),
(232,651,l),
(270,651,l),
(270,622,ls),
(270,593,o),
(260,577,o),
(225,577,c),
(225,557,l),
(265,557,o),
(292,572,o),
(292,635,cs),
(292,653,o),
(291,675,o),
(288,704,c)
);
},
{
alignment = -1;
ref = L;
}
);
width = 395;
}
);
unicode = 317;
},
{
glyphname = Lcommaaccent;
layers = (
{
layerId = "F6AEDC33-7BF1-40E1-A2D2-3CCCCC93695C";
shapes = (
{
closed = 1;
nodes = (
(210,-35,l),
(210,-182,l),
(282,-182,l),
(282,-193,ls),
(282,-245,o),
(262,-268,o),
(227,-268,c),
(227,-346,l),
(341,-346,o),
(392,-266,o),
(392,-170,cs),
(392,-128,o),
(384,-82,o),
(366,-35,c)
);
},
{
alignment = -1;
ref = L;
}
);
width = 511;
},
{
layerId = "D00D5DE3-9836-4C68-A522-E01534F2A0A6";
shapes = (
{
closed = 1;
nodes = (
(208,-50,l),
(208,-127,l),
(254,-127,l),
(254,-136,ls),
(254,-175,o),
(239,-197,o),
(206,-197,c),
(206,-236,l),
(270,-236,o),
(307,-198,o),
(307,-118,cs),
(307,-98,o),
(303,-73,o),
(296,-50,c)
);
},
{
alignment = -1;
ref = L;
}
);
width = 436;
},
{
layerId = "5A5786DC-1B88-4A0B-9FB6-0051FAC2E168";
shapes = (
{
closed = 1;
nodes = (
(207,-59,l),
(207,-97,l),
(238,-97,l),
(238,-104,ls),
(238,-137,o),
(227,-158,o),
(195,-158,c),
(195,-176,l),
(231,-176,o),
(260,-161,o),
(260,-90,cs),
(260,-81,o),
(259,-68,o),
(258,-59,c)
);
},
{
alignment = -1;
ref = L;
}
);
width = 395;
}
);
unicode = 315;
},
{
glyphname = Lslash;
layers = (
{
layerId = "F6AEDC33-7BF1-40E1-A2D2-3CCCCC93695C";
shapes = (
{
closed = 1;
nodes = (
(10,221,l),
(362,318,l),
(362,534,l),
(10,437,l)
);
},
{
closed = 1;
nodes = (
(65,708,l),
(65,0,l),
(501,0,l),
(501,168,l),
(287,168,l),
(287,708,l)
);
}
);
width = 521;
},
{
layerId = "D00D5DE3-9836-4C68-A522-E01534F2A0A6";
shapes = (
{
closed = 1;
nodes = (
(10,281,l),
(314,399,l),
(314,491,l),
(10,372,l)
);
},
{
closed = 1;
nodes = (
(91,708,l),
(91,0,l),
(434,0,l),
(434,71,l),
(183,71,l),
(183,708,l)
);
}
);
width = 454;
},
{
layerId = "5A5786DC-1B88-4A0B-9FB6-0051FAC2E168";
shapes = (
{
closed = 1;
nodes = (
(10,314,l),
(288,444,l),
(288,467,l),
(10,336,l)
);
},
{
closed = 1;
nodes = (
(106,708,l),
(106,0,l),
(397,0,l),
(397,18,l),
(126,18,l),
(126,708,l)
);
}
);
width = 417;
}
);
unicode = 321;
},
{
glyphname = M;
layers = (
{
layerId = "F6AEDC33-7BF1-40E1-A2D2-3CCCCC93695C";
shapes = (
{
closed = 1;
nodes = (
(50,0,l),
(272,0,l),
(272,579,l),
(207,564,l),
(381,0,l),
(571,0,l),
(745,564,l),
(680,579,l),
(680,0,l),
(901,0,l),
(901,708,l),
(630,708,l),
(427,139,l),
(524,159,l),
(322,708,l),
(50,708,l)
);
}
);
width = 951;
},
{
layerId = "D00D5DE3-9836-4C68-A522-E01534F2A0A6";
shapes = (
{
closed = 1;
nodes = (
(75,0,l),
(167,0,l),
(167,632,l),
(141,630,l),
(395,0,l),
(476,0,l),
(730,630,l),
(704,632,l),
(704,0,l),
(796,0,l),
(796,708,l),
(686,708,l),
(415,60,l),
(457,67,l),
(185,708,l),
(75,708,l)
);
}
);
width = 870;
},
{
layerId = "5A5786DC-1B88-4A0B-9FB6-0051FAC2E168";
shapes = (
{
closed = 1;
nodes = (
(88,0,l),
(109,0,l),
(109,661,l),
(104,667,l),
(403,0,l),
(424,0,l),
(721,667,l),
(717,661,l),
(717,0,l),
(738,0,l),
(738,708,l),
(717,708,l),
(408,16,l),
(420,16,l),
(109,708,l),
(88,708,l)
);
}
);
width = 826;
}
);
unicode = 77;
},
{
glyphname = N;
layers = (
{
layerId = "F6AEDC33-7BF1-40E1-A2D2-3CCCCC93695C";
shapes = (
{
closed = 1;
nodes = (
(507,708,l),
(507,346,l),
(272,708,l),
(50,708,l),
(50,0,l),
(272,0,l),
(272,356,l),
(507,0,l),
(729,0,l),
(729,708,l)
);
}
);
width = 779;
},
{
layerId = "D00D5DE3-9836-4C68-A522-E01534F2A0A6";
shapes = (
{
closed = 1;
nodes = (
(532,708,l),
(532,147,l),
(165,708,l),
(73,708,l),
(73,0,l),
(165,0,l),
(165,560,l),
(532,0,l),
(623,0,l),
(623,708,l)
);
}
);
width = 696;
},
{
layerId = "5A5786DC-1B88-4A0B-9FB6-0051FAC2E168";
shapes = (
{
closed = 1;
nodes = (
(545,708,l),
(545,37,l),
(106,708,l),
(85,708,l),
(85,0,l),
(106,0,l),
(106,672,l),
(545,0,l),
(565,0,l),
(565,708,l)
);
}
);
width = 651;
}
);
unicode = 78;
},
{
glyphname = Ncommaaccent;
layers = (
{
layerId = "F6AEDC33-7BF1-40E1-A2D2-3CCCCC93695C";
shapes = (
{
closed = 1;
nodes = (
(334,-35,l),
(334,-182,l),
(406,-182,l),
(406,-193,ls),
(406,-245,o),
(386,-268,o),
(351,-268,c),
(351,-346,l),
(465,-346,o),
(516,-266,o),
(516,-170,cs),
(516,-128,o),
(508,-82,o),
(490,-35,c)
);
},
{
alignment = -1;
ref = N;
}
);
width = 829;
},
{
layerId = "D00D5DE3-9836-4C68-A522-E01534F2A0A6";
shapes = (
{
closed = 1;
nodes = (
(310,-50,l),
(310,-127,l),
(356,-127,l),
(356,-136,ls),
(356,-175,o),
(341,-197,o),
(308,-197,c),
(308,-236,l),
(372,-236,o),
(409,-198,o),
(409,-118,cs),
(409,-98,o),
(405,-73,o),
(398,-50,c)
);
},
{
alignment = -1;
ref = N;
}
);
width = 712;
},
{
layerId = "5A5786DC-1B88-4A0B-9FB6-0051FAC2E168";
shapes = (
{
closed = 1;
nodes = (
(297,-59,l),
(297,-97,l),
(328,-97,l),
(328,-104,ls),
(328,-137,o),
(317,-158,o),
(285,-158,c),
(285,-176,l),
(321,-176,o),
(350,-161,o),
(350,-90,cs),
(350,-81,o),
(349,-68,o),
(348,-59,c)
);
},
{
alignment = -1;
ref = N;
}
);
width = 647;
}
);
unicode = 325;
},
{
glyphname = O;
layers = (
{
layerId = "F6AEDC33-7BF1-40E1-A2D2-3CCCCC93695C";
shapes = (
{
closed = 1;
nodes = (
(30,145,o),
(195,-7,o),
(397,-7,cs),
(598,-7,o),
(762,145,o),
(762,359,cs),
(762,573,o),
(600,724,o),
(397,724,cs),
(195,724,o),
(30,573,o),
(30,359,cs)
);
},
{
closed = 1;
nodes = (
(536,264,o),
(487,201,o),
(397,201,cs),
(306,201,o),
(257,264,o),
(257,359,cs),
(257,456,o),
(306,518,o),
(397,518,cs),
(487,518,o),
(536,456,o),
(536,359,cs)
);
}
);
width = 792;
},
{
layerId = "D00D5DE3-9836-4C68-A522-E01534F2A0A6";
shapes = (
{
closed = 1;
nodes = (
(49,143,o),
(199,-8,o),
(397,-8,cs),
(596,-8,o),
(746,143,o),
(746,355,cs),
(746,568,o),
(597,718,o),
(397,718,cs),
(199,718,o),
(49,568,o),
(49,355,cs)
);
},
{
closed = 1;
nodes = (
(651,184,o),
(543,78,o),
(397,78,cs),
(252,78,o),
(144,184,o),
(144,355,cs),
(144,527,o),
(252,632,o),
(397,632,cs),
(543,632,o),
(651,527,o),
(651,355,cs)
);
}
);
width = 795;
},
{
layerId = "5A5786DC-1B88-4A0B-9FB6-0051FAC2E168";
shapes = (
{
closed = 1;
nodes = (
(60,141,o),
(201,-8,o),
(398,-8,c),
(595,-8,o),
(736,141,o),
(736,353,c),
(736,565,o),
(595,714,o),
(398,714,c),
(201,714,o),
(60,565,o),
(60,353,c)
);
},
{
closed = 1;
nodes = (
(715,140,o),
(574,10,o),
(398,10,c),
(222,10,o),
(81,140,o),
(81,353,c),
(81,566,o),
(222,696,o),
(398,696,c),
(574,696,o),
(715,566,o),
(715,353,c)
);
}
);
width = 796;
}
);
unicode = 79;
},
{
glyphname = Oslash;
layers = (
{
layerId = "F6AEDC33-7BF1-40E1-A2D2-3CCCCC93695C";
shapes = (
{
closed = 1;
nodes = (
(18,1,l),
(134,1,l),
(769,712,l),
(654,712,l)
);
},
{
alignment = -1;
pos = (-1,0);
ref = O;
}
);
width = 788;
},
{
layerId = "D00D5DE3-9836-4C68-A522-E01534F2A0A6";
shapes = (
{
closed = 1;
nodes = (
(46,0,l),
(103,0,l),
(744,707,l),
(688,707,l)
);
},
{
alignment = -1;
ref = O;
}
);
width = 791;
},
{
layerId = "5A5786DC-1B88-4A0B-9FB6-0051FAC2E168";
shapes = (
{
closed = 1;
nodes = (
(61,0,l),
(86,0,l),
(731,704,l),
(707,704,l)
);
},
{
alignment = -1;
ref = O;
}
);
width = 792;
}
);
unicode = 216;
},
{
glyphname = OE;
layers = (
{
layerId = "F6AEDC33-7BF1-40E1-A2D2-3CCCCC93695C";
shapes = (
{
closed = 1;
nodes = (
(257,455,o),
(306,518,o),
(397,518,cs),
(487,518,o),
(536,455,o),
(536,356,c),
(536,257,o),
(487,194,o),
(397,194,cs),
(306,194,o),
(257,257,o),
(257,356,c)
);
},
{
closed = 1;
nodes = (
(1021,535,l),
(1021,712,l),
(546,712,l),
(546,675,l),
(502,708,o),
(439,724,o),
(380,724,cs),
(177,724,o),
(30,572,o),
(30,356,c),
(30,140,o),
(177,-12,o),
(380,-12,c),
(439,-9,o),
(502,4,o),
(546,37,c),
(546,0,l),
(1021,0,l),
(1021,178,l),
(769,178,l),
(769,279,l),
(991,279,l),
(991,446,l),
(769,446,l),
(769,535,l)
);
}
);
width = 1055;
},
{
layerId = "D00D5DE3-9836-4C68-A522-E01534F2A0A6";
shapes = (
{
closed = 1;
nodes = (
(143,527,o),
(252,633,o),
(398,633,cs),
(543,633,o),
(651,527,o),
(651,354,cs),
(651,182,o),
(543,75,o),
(398,75,cs),
(252,75,o),
(143,182,o),
(143,354,cs)
);
},
{
closed = 1;
nodes = (
(1047,635,l),
(1047,709,l),
(656,709,l),
(656,540,l),
(619,648,o),
(513,718,o),
(392,718,cs),
(192,718,o),
(49,567,o),
(49,354,cs),
(49,141,o),
(192,-9,o),
(392,-9,c),
(513,-8,o),
(619,60,o),
(656,169,c),
(656,0,l),
(1047,0,l),
(1047,75,l),
(748,75,l),
(748,322,l),
(1017,322,l),
(1017,392,l),
(748,392,l),
(748,635,l)
);
}
);
width = 1092;
},
{
layerId = "5A5786DC-1B88-4A0B-9FB6-0051FAC2E168";
shapes = (
{
closed = 1;
nodes = (
(81,566,o),
(222,696,o),
(398,696,c),
(574,696,o),
(715,566,o),
(715,353,c),
(715,140,o),
(574,10,o),
(398,10,c),
(222,10,o),
(81,140,o),
(81,353,c)
);
},
{
closed = 1;
nodes = (
(1062,690,l),
(1062,708,l),
(716,708,l),
(716,465,l),
(684,615,o),
(554,714,o),
(398,714,c),
(201,714,o),
(60,565,o),
(60,353,c),
(60,141,o),
(201,-8,o),
(398,-8,c),
(554,-8,o),
(684,91,o),
(716,241,c),
(716,0,l),
(1062,0,l),
(1062,18,l),
(736,18,l),
(736,345,l),
(1032,345,l),
(1032,363,l),
(736,363,l),
(736,690,l)
);
}
);
width = 1112;
}
);
unicode = 338;
},
{
glyphname = P;
layers = (
{
layerId = "F6AEDC33-7BF1-40E1-A2D2-3CCCCC93695C";
shapes = (
{
closed = 1;
nodes = (
(272,400,l),
(272,530,l),
(335,530,ls),
(385,530,o),
(404,504,o),
(404,465,c),
(404,426,o),
(385,400,o),
(335,400,c)
);
},
{
closed = 1;
nodes = (
(629,608,o),
(538,708,o),
(360,708,cs),
(50,708,l),
(50,0,l),
(272,0,l),
(272,225,l),
(360,225,ls),
(538,225,o),
(629,334,o),
(629,465,c)
);
}
);
width = 649;
},
{
layerId = "D00D5DE3-9836-4C68-A522-E01534F2A0A6";
shapes = (
{
closed = 1;
nodes = (
(165,361,l),
(165,632,l),
(289,632,ls),
(405,632,o),
(447,580,o),
(447,496,cs),
(447,414,o),
(405,361,o),
(289,361,cs)
);
},
{
closed = 1;
nodes = (
(540,623,o),
(465,708,o),
(298,708,cs),
(73,708,l),
(73,0,l),
(165,0,l),
(165,286,l),
(298,286,ls),
(456,286,o),
(540,365,o),
(540,496,cs)
);
}
);
width = 573;
},
{
layerId = "5A5786DC-1B88-4A0B-9FB6-0051FAC2E168";
shapes = (
{
closed = 1;
nodes = (
(106,340,l),
(106,688,l),
(264,688,ls),
(416,688,o),
(471,622,o),
(471,513,cs),
(471,408,o),
(416,340,o),
(264,340,cs)
);
},
{
closed = 1;
nodes = (
(491,631,o),
(425,708,o),
(264,708,cs),
(85,708,l),
(85,0,l),
(106,0,l),
(106,319,l),
(264,319,ls),
(411,319,o),
(491,382,o),
(491,513,cs)
);
}
);
width = 531;
}
);
unicode = 80;
},
{
glyphname = Thorn;
layers = (
{
layerId = "F6AEDC33-7BF1-40E1-A2D2-3CCCCC93695C";
shapes = (
{
closed = 1;
nodes = (
(272,290,l),
(272,420,l),
(335,420,ls),
(385,420,o),
(404,394,o),
(404,355,c),
(404,316,o),
(385,290,o),
(335,290,c)
);
},
{
closed = 1;
nodes = (
(629,492,o),
(538,588,o),
(360,588,cs),
(270,588,l),
(270,708,l),
(50,708,l),
(50,0,l),
(272,0,l),
(272,125,l),
(360,125,ls),
(538,125,o),
(629,229,o),
(629,355,c)
);
}
);
width = 649;
},
{
layerId = "D00D5DE3-9836-4C68-A522-E01534F2A0A6";
shapes = (
{
closed = 1;
nodes = (
(165,220,l),
(165,490,l),
(289,490,ls),
(405,490,o),
(447,439,o),
(447,354,cs),
(447,273,o),
(405,220,o),
(289,220,cs)
);
},
{
closed = 1;
nodes = (
(540,479,o),
(465,563,o),
(298,563,cs),
(164,563,l),
(164,708,l),
(73,708,l),
(73,0,l),
(165,0,l),
(165,148,l),
(298,148,ls),
(456,148,o),
(540,225,o),
(540,354,cs)
);
}
);
width = 573;
},
{
layerId = "5A5786DC-1B88-4A0B-9FB6-0051FAC2E168";
shapes = (
{
closed = 1;
nodes = (
(106,181,l),
(106,529,l),
(264,529,ls),
(416,529,o),
(471,464,o),
(471,354,cs),
(471,249,o),
(416,181,o),
(264,181,cs)
);
},
{
closed = 1;
nodes = (
(491,472,o),
(425,549,o),
(264,549,cs),
(106,549,l),
(106,708,l),
(85,708,l),
(85,0,l),
(106,0,l),
(106,160,l),
(264,160,ls),
(411,160,o),
(491,223,o),
(491,354,cs)
);
}
);
width = 531;
}
);
unicode = 222;
},
{
glyphname = Q;
layers = (
{
layerId = "F6AEDC33-7BF1-40E1-A2D2-3CCCCC93695C";
shapes = (
{
closed = 1;
nodes = (
(768,-120,l),
(489,303,l),
(293,303,l),
(561,-120,l)
);
},
{
alignment = -1;
ref = O;
}
);
width = 788;
},
{
layerId = "D00D5DE3-9836-4C68-A522-E01534F2A0A6";
shapes = (
{
closed = 1;
nodes = (
(663,-95,l),
(428,273,l),
(331,273,l),
(566,-95,l)
);
},
{
alignment = -1;
ref = O;
}
);
width = 791;
},
{
layerId = "5A5786DC-1B88-4A0B-9FB6-0051FAC2E168";
shapes = (
{
closed = 1;
nodes = (
(597,-86,l),
(386,266,l),
(364,266,l),
(575,-86,l)
);
},
{
alignment = -1;
ref = O;
}
);
width = 792;
}
);
unicode = 81;
},
{
glyphname = R;
layers = (
{
layerId = "F6AEDC33-7BF1-40E1-A2D2-3CCCCC93695C";
shapes = (
{
closed = 1;
nodes = (
(424,420,o),
(402,402,o),
(360,402,cs),
(272,402,l),
(272,522,l),
(360,522,ls),
(402,522,o),
(424,498,o),
(424,462,cs)
);
},
{
closed = 1;
nodes = (
(50,708,l),
(50,0,l),
(272,0,l),
(272,254,l),
(380,254,l),
(558,254,o),
(649,352,o),
(649,476,c),
(649,606,o),
(558,708,o),
(380,708,cs)
);
},
{
closed = 1;
nodes = (
(245,305,l),
(406,0,l),
(650,0,l),
(476,305,l)
);
}
);
width = 670;
},
{
layerId = "D00D5DE3-9836-4C68-A522-E01534F2A0A6";
shapes = (
{
closed = 1;
nodes = (
(454,409,o),
(411,356,o),
(298,356,cs),
(165,356,l),
(165,629,l),
(298,629,ls),
(411,629,o),
(454,575,o),
(454,492,cs)
);
},
{
closed = 1;
nodes = (
(73,708,l),
(73,0,l),
(165,0,l),
(165,289,l),
(305,289,ls),
(463,289,o),
(547,368,o),
(547,497,cs),
(547,618,o),
(472,708,o),
(305,708,cs)
);
},
{
closed = 1;
nodes = (
(248,313,l),
(449,0,l),
(552,0,l),
(346,313,l)
);
}
);
width = 585;
},
{
layerId = "5A5786DC-1B88-4A0B-9FB6-0051FAC2E168";
shapes = (
{
closed = 1;
nodes = (
(471,403,o),
(416,330,o),
(264,330,cs),
(106,330,l),
(106,688,l),
(264,688,ls),
(416,688,o),
(471,617,o),
(471,508,cs)
);
},
{
closed = 1;
nodes = (
(85,708,l),
(85,0,l),
(106,0,l),
(106,309,l),
(264,309,ls),
(411,309,o),
(491,377,o),
(491,508,cs),
(491,625,o),
(425,708,o),
(264,708,cs)
);
},
{
closed = 1;
nodes = (
(250,317,l),
(473,0,l),
(498,0,l),
(275,317,l)
);
}
);
width = 538;
}
);
unicode = 82;
},
{
glyphname = Rcommaaccent;
layers = (
{
layerId = "F6AEDC33-7BF1-40E1-A2D2-3CCCCC93695C";
shapes = (
{
closed = 1;
nodes = (
(270,-35,l),
(270,-182,l),
(342,-182,l),
(342,-193,ls),
(342,-245,o),
(322,-268,o),
(287,-268,c),
(287,-346,l),
(401,-346,o),
(452,-266,o),
(452,-170,cs),
(452,-128,o),
(444,-82,o),
(426,-35,c)
);
},
{
alignment = -1;
ref = R;
}
);
width = 701;
},
{
layerId = "D00D5DE3-9836-4C68-A522-E01534F2A0A6";
shapes = (
{
closed = 1;
nodes = (
(249,-50,l),
(249,-127,l),
(294,-127,l),
(294,-136,ls),
(294,-175,o),
(280,-197,o),
(247,-197,c),
(247,-236,l),
(311,-236,o),
(348,-198,o),
(348,-118,cs),
(348,-98,o),
(344,-73,o),
(337,-50,c)
);
},
{
alignment = -1;
ref = R;
}
);
width = 594;
},
{
layerId = "5A5786DC-1B88-4A0B-9FB6-0051FAC2E168";
shapes = (
{
closed = 1;
nodes = (
(237,-59,l),
(237,-97,l),
(268,-97,l),
(268,-104,ls),
(268,-137,o),
(257,-158,o),
(225,-158,c),
(225,-176,l),
(261,-176,o),
(290,-161,o),
(290,-90,cs),
(290,-81,o),
(289,-68,o),
(288,-59,c)
);
},
{
alignment = -1;
ref = R;
}
);
width = 535;
}
);
unicode = 342;
},
{
glyphname = S;
layers = (
{
layerId = "F6AEDC33-7BF1-40E1-A2D2-3CCCCC93695C";
shapes = (
{
closed = 1;
nodes = (
(505,-7,o),
(600,89,o),
(600,210,cs),
(600,460,o),
(270,424,o),
(270,516,cs),
(270,540,o),
(284,550,o),
(302,550,cs),
(323,550,o),
(344,539,o),
(348,494,c),
(588,494,l),
(578,645,o),
(472,724,o),
(303,724,cs),
(151,724,o),
(30,650,o),
(30,507,c),
(30,254,o),
(362,299,o),
(362,202,cs),
(362,178,o),
(346,167,o),
(324,167,cs),
(302,167,o),
(274,176,o),
(270,228,c),
(32,228,l),
(42,68,o),
(170,-7,o),
(333,-7,cs)
);
}
);
width = 629;
},
{
layerId = "D00D5DE3-9836-4C68-A522-E01534F2A0A6";
shapes = (
{
closed = 1;
nodes = (
(455,-7,o),
(522,88,o),
(522,185,cs),
(522,450,o),
(148,345,o),
(148,535,cs),
(148,607,o),
(198,644,o),
(269,644,cs),
(358,644,o),
(399,586,o),
(408,538,c),
(507,538,l),
(494,635,o),
(415,719,o),
(270,719,cs),
(133,719,o),
(49,642,o),
(49,532,cs),
(49,273,o),
(425,379,o),
(425,182,cs),
(425,117,o),
(382,66,o),
(300,66,cs),
(203,66,o),
(157,134,o),
(150,191,c),
(52,191,l),
(62,76,o),
(161,-7,o),
(303,-7,cs)
);
}
);
width = 571;
},
{
layerId = "5A5786DC-1B88-4A0B-9FB6-0051FAC2E168";
shapes = (
{
closed = 1;
nodes = (
(427,-7,o),
(479,88,o),
(479,170,cs),
(479,443,o),
(80,302,o),
(80,546,cs),
(80,644,o),
(150,697,o),
(251,697,c),
(377,697,o),
(429,612,o),
(441,562,c),
(462,562,l),
(446,631,o),
(384,715,o),
(251,715,c),
(124,715,o),
(60,639,o),
(60,546,cs),
(60,284,o),
(459,423,o),
(459,170,cs),
(459,84,o),
(403,11,o),
(287,11,cs),
(148,11,o),
(92,112,o),
(83,170,c),
(63,170,l),
(73,80,o),
(155,-7,o),
(287,-7,cs)
);
}
);
width = 539;
}
);
unicode = 83;
},
{
glyphname = Scommaaccent;
layers = (
{
layerId = "F6AEDC33-7BF1-40E1-A2D2-3CCCCC93695C";
shapes = (
{
closed = 1;
nodes = (
(263,-35,l),
(263,-182,l),
(335,-182,l),
(335,-193,ls),
(335,-245,o),
(315,-268,o),
(280,-268,c),
(280,-346,l),
(394,-346,o),
(445,-266,o),
(445,-170,cs),
(445,-128,o),
(437,-82,o),
(419,-35,c)
);
},
{
alignment = -1;
ref = S;
}
);
width = 685;
},
{
layerId = "D00D5DE3-9836-4C68-A522-E01534F2A0A6";
shapes = (
{
closed = 1;
nodes = (
(266,-50,l),
(266,-127,l),
(311,-127,l),
(311,-136,ls),
(311,-175,o),
(297,-197,o),
(264,-197,c),
(264,-236,l),
(328,-236,o),
(364,-198,o),
(364,-118,cs),
(364,-98,o),
(361,-73,o),
(354,-50,c)
);
},
{
alignment = -1;
ref = S;
}
);
width = 589;
},
{
layerId = "5A5786DC-1B88-4A0B-9FB6-0051FAC2E168";
shapes = (
{
closed = 1;
nodes = (
(267,-59,l),
(267,-97,l),
(298,-97,l),
(298,-104,ls),
(298,-137,o),
(287,-158,o),
(255,-158,c),
(255,-176,l),
(291,-176,o),
(320,-161,o),
(320,-90,cs),
(320,-81,o),
(319,-68,o),
(318,-59,c)
);
},
{
alignment = -1;
ref = S;
}
);
width = 536;
}
);
unicode = 536;
},
{
glyphname = T;
layers = (
{
layerId = "F6AEDC33-7BF1-40E1-A2D2-3CCCCC93695C";
shapes = (
{
closed = 1;
nodes = (
(10,532,l),
(196,532,l),
(196,0,l),
(418,0,l),
(418,532,l),
(606,532,l),
(606,708,l),
(10,708,l)
);
}
);
width = 616;
},
{
layerId = "D00D5DE3-9836-4C68-A522-E01534F2A0A6";
shapes = (
{
closed = 1;
nodes = (
(16,634,l),
(215,634,l),
(215,0,l),
(307,0,l),
(307,634,l),
(507,634,l),
(507,708,l),
(16,708,l)
);
}
);
width = 524;
},
{
layerId = "5A5786DC-1B88-4A0B-9FB6-0051FAC2E168";
shapes = (
{
closed = 1;
nodes = (
(20,690,l),
(226,690,l),
(226,0,l),
(246,0,l),
(246,690,l),
(453,690,l),
(453,708,l),
(20,708,l)
);
}
);
width = 473;
}
);
unicode = 84;
},
{
glyphname = Tcommaaccent;
layers = (
{
layerId = "F6AEDC33-7BF1-40E1-A2D2-3CCCCC93695C";
shapes = (
{
closed = 1;
nodes = (
(229,-35,l),
(229,-182,l),
(301,-182,l),
(301,-193,ls),
(301,-245,o),
(280,-268,o),
(246,-268,c),
(246,-346,l),
(359,-346,o),
(410,-266,o),
(410,-170,cs),
(410,-128,o),
(403,-82,o),
(385,-35,c)
);
},
{
alignment = -1;
ref = T;
}
);
width = 616;
},
{
layerId = "D00D5DE3-9836-4C68-A522-E01534F2A0A6";
shapes = (
{
closed = 1;
nodes = (
(215,-50,l),
(215,-127,l),
(260,-127,l),
(260,-136,ls),
(260,-175,o),
(246,-197,o),
(213,-197,c),
(213,-236,l),
(276,-236,o),
(313,-198,o),
(313,-118,cs),
(313,-98,o),
(310,-73,o),
(303,-50,c)
);
},
{
alignment = -1;
ref = T;
}
);
width = 522;
},
{
layerId = "5A5786DC-1B88-4A0B-9FB6-0051FAC2E168";
shapes = (
{
closed = 1;
nodes = (
(207,-59,l),
(207,-97,l),
(238,-97,l),
(238,-104,ls),
(238,-137,o),
(227,-158,o),
(195,-158,c),
(195,-176,l),
(231,-176,o),
(260,-161,o),
(260,-90,cs),
(260,-81,o),
(259,-68,o),
(258,-59,c)
);
},
{
alignment = -1;
ref = T;
}
);
width = 470;
}
);
unicode = 538;
},
{
glyphname = U;
layers = (
{
layerId = "F6AEDC33-7BF1-40E1-A2D2-3CCCCC93695C";
shapes = (
{
closed = 1;
nodes = (
(46,309,ls),
(46,100,o),
(176,-7,o),
(353,-7,cs),
(530,-7,o),
(673,100,o),
(673,309,cs),
(673,708,l),
(452,708,l),
(452,309,ls),
(452,248,o),
(425,203,o),
(358,203,cs),
(291,203,o),
(267,248,o),
(267,309,cs),
(267,708,l),
(46,708,l)
);
}
);
width = 719;
},
{
layerId = "D00D5DE3-9836-4C68-A522-E01534F2A0A6";
shapes = (
{
closed = 1;
nodes = (
(68,283,ls),
(68,83,o),
(179,-7,o),
(331,-7,cs),
(484,-7,o),
(595,83,o),
(595,283,cs),
(595,708,l),
(504,708,l),
(504,283,ls),
(504,139,o),
(435,79,o),
(333,79,cs),
(228,79,o),
(160,139,o),
(160,283,cs),
(160,708,l),
(68,708,l)
);
}
);
width = 664;
},
{
layerId = "5A5786DC-1B88-4A0B-9FB6-0051FAC2E168";
shapes = (
{
closed = 1;
nodes = (
(80,268,ls),
(80,73,o),
(180,-7,o),
(319,-7,cs),
(458,-7,o),
(552,73,o),
(552,268,cs),
(552,708,l),
(532,708,l),
(532,268,ls),
(532,79,o),
(441,11,o),
(319,11,cs),
(194,11,o),
(101,79,o),
(101,268,cs),
(101,708,l),
(80,708,l)
);
}
);
width = 633;
}
);
unicode = 85;
},
{
glyphname = Uogonek;
layers = (
{
layerId = "231C0D87-2517-4296-A7BE-3EDBC2CA7719";
name = "LightItalic.Sep 20 17, 19:51";
shapes = (
{
closed = 1;
nodes = (
(80,267,ls),
(80,93,o),
(170,10,o),
(286,-5,c),
(254,-14,o),
(233,-48,o),
(233,-82,c),
(233,-135,o),
(271,-177,o),
(348,-177,c),
(416,-177,l),
(416,-157,l),
(348,-157,ls),
(289,-157,o),
(253,-129,o),
(253,-82,c),
(253,-39,o),
(283,-11,o),
(333,-7,cs),
(462,2,o),
(549,80,o),
(549,267,cs),
(549,704,l),
(529,704,l),
(529,267,ls),
(529,60,o),
(426,11,o),
(317,11,cs),
(193,11,o),
(100,79,o),
(100,267,cs),
(100,704,l),
(80,704,l)
);
}
);
width = 629;
},
{
layerId = "F6AEDC33-7BF1-40E1-A2D2-3CCCCC93695C";
shapes = (
{
alignment = -1;
ref = U;
},
{
pos = (157,3);
ref = ogonek;
}
);
width = 719;
},
{
layerId = "D00D5DE3-9836-4C68-A522-E01534F2A0A6";
shapes = (
{
alignment = -1;
ref = U;
},
{
pos = (209,0);
ref = ogonek;
}
);
width = 690;
},
{
layerId = "5A5786DC-1B88-4A0B-9FB6-0051FAC2E168";
shapes = (
{
alignment = -1;
ref = U;
},
{
pos = (165,0);
ref = ogonek;
}
);
width = 629;
}
);
unicode = 370;
},
{
glyphname = V;
layers = (
{
layerId = "F6AEDC33-7BF1-40E1-A2D2-3CCCCC93695C";
shapes = (
{
closed = 1;
nodes = (
(238,0,l),
(525,0,l),
(763,708,l),
(527,708,l),
(382,221,l),
(236,708,l),
(0,708,l)
);
}
);
width = 763;
},
{
layerId = "D00D5DE3-9836-4C68-A522-E01534F2A0A6";
shapes = (
{
closed = 1;
nodes = (
(279,0,l),
(393,0,l),
(653,708,l),
(553,708,l),
(336,101,l),
(119,708,l),
(19,708,l)
);
}
);
width = 672;
},
{
layerId = "5A5786DC-1B88-4A0B-9FB6-0051FAC2E168";
shapes = (
{
closed = 1;
nodes = (
(301,0,l),
(321,0,l),
(592,708,l),
(568,708,l),
(310,35,l),
(54,708,l),
(30,708,l)
);
}
);
width = 622;
}
);
unicode = 86;
},
{
glyphname = W;
layers = (
{
layerId = "F6AEDC33-7BF1-40E1-A2D2-3CCCCC93695C";
shapes = (
{
closed = 1;
nodes = (
(192,0,l),
(468,0,l),
(560,451,l),
(540,451,l),
(632,0,l),
(908,0,l),
(1070,708,l),
(831,708,l),
(745,112,l),
(799,112,l),
(671,708,l),
(429,708,l),
(301,112,l),
(355,112,l),
(269,708,l),
(30,708,l)
);
}
);
width = 1100;
},
{
layerId = "D00D5DE3-9836-4C68-A522-E01534F2A0A6";
shapes = (
{
closed = 1;
nodes = (
(213,0,l),
(324,0,l),
(498,612,l),
(479,612,l),
(653,0,l),
(764,0,l),
(944,708,l),
(843,708,l),
(694,49,l),
(724,49,l),
(539,708,l),
(437,708,l),
(253,49,l),
(283,49,l),
(134,708,l),
(33,708,l)
);
}
);
width = 977;
},
{
layerId = "5A5786DC-1B88-4A0B-9FB6-0051FAC2E168";
shapes = (
{
closed = 1;
nodes = (
(225,0,l),
(245,0,l),
(464,701,l),
(445,701,l),
(664,0,l),
(684,0,l),
(874,708,l),
(850,708,l),
(666,15,l),
(682,15,l),
(467,708,l),
(442,708,l),
(227,15,l),
(243,15,l),
(59,708,l),
(35,708,l)
);
}
);
width = 909;
}
);
unicode = 87;
},
{
glyphname = X;
layers = (
{
layerId = "F6AEDC33-7BF1-40E1-A2D2-3CCCCC93695C";
shapes = (
{
closed = 1;
nodes = (
(501,0,l),
(764,0,l),
(263,708,l),
(0,708,l)
);
},
{
closed = 1;
nodes = (
(275,416,l),
(10,0,l),
(263,0,l),
(406,243,l)
);
},
{
closed = 1;
nodes = (
(480,293,l),
(745,708,l),
(492,708,l),
(350,466,l)
);
}
);
width = 764;
},
{
layerId = "D00D5DE3-9836-4C68-A522-E01534F2A0A6";
shapes = (
{
closed = 1;
nodes = (
(468,0,l),
(576,0,l),
(128,708,l),
(19,708,l)
);
},
{
closed = 1;
nodes = (
(256,388,l),
(23,0,l),
(128,0,l),
(312,320,l)
);
},
{
closed = 1;
nodes = (
(337,329,l),
(570,708,l),
(465,708,l),
(281,397,l)
);
}
);
width = 596;
},
{
layerId = "5A5786DC-1B88-4A0B-9FB6-0051FAC2E168";
shapes = (
{
closed = 1;
nodes = (
(450,0,l),
(473,0,l),
(53,708,l),
(30,708,l)
);
},
{
closed = 1;
nodes = (
(245,373,l),
(30,0,l),
(53,0,l),
(261,363,l)
);
},
{
closed = 1;
nodes = (
(259,349,l),
(473,708,l),
(450,708,l),
(243,359,l)
);
}
);
width = 503;
}
);
unicode = 88;
},
{
glyphname = Y;
layers = (
{
layerId = "F6AEDC33-7BF1-40E1-A2D2-3CCCCC93695C";
shapes = (
{
closed = 1;
nodes = (
(254,215,l),
(254,0,l),
(476,0,l),
(476,215,l),
(730,708,l),
(480,708,l),
(327,368,l),
(407,368,l),
(254,708,l),
(0,708,l)
);
}
);
width = 730;
},
{
layerId = "D00D5DE3-9836-4C68-A522-E01534F2A0A6";
shapes = (
{
closed = 1;
nodes = (
(252,268,l),
(252,0,l),
(344,0,l),
(344,268,l),
(576,708,l),
(472,708,l),
(281,331,l),
(315,331,l),
(125,708,l),
(19,708,l)
);
}
);
width = 595;
},
{
layerId = "5A5786DC-1B88-4A0B-9FB6-0051FAC2E168";
shapes = (
{
closed = 1;
nodes = (
(251,297,l),
(251,0,l),
(272,0,l),
(272,297,l),
(491,708,l),
(467,708,l),
(256,311,l),
(265,311,l),
(54,708,l),
(30,708,l)
);
}
);
width = 521;
}
);
unicode = 89;
},
{
glyphname = Z;
layers = (
{
layerId = "F6AEDC33-7BF1-40E1-A2D2-3CCCCC93695C";
shapes = (
{
closed = 1;
nodes = (
(580,708,l),
(50,708,l),
(50,532,l),
(330,532,l),
(50,167,l),
(50,0,l),
(580,0,l),
(580,177,l),
(296,177,l),
(580,541,l)
);
}
);
width = 630;
},
{
layerId = "D00D5DE3-9836-4C68-A522-E01534F2A0A6";
shapes = (
{
closed = 1;
nodes = (
(492,708,l),
(49,708,l),
(49,633,l),
(390,633,l),
(40,72,l),
(40,0,l),
(499,0,l),
(499,75,l),
(142,75,l),
(492,636,l)
);
}
);
width = 540;
},
{
layerId = "5A5786DC-1B88-4A0B-9FB6-0051FAC2E168";
shapes = (
{
closed = 1;
nodes = (
(444,708,l),
(48,708,l),
(48,688,l),
(423,688,l),
(35,19,l),
(35,0,l),
(455,0,l),
(455,19,l),
(57,19,l),
(444,688,l)
);
}
);
width = 490;
}
);
unicode = 90;
},
{
color = (255, 153, 153, 255);
glyphname = a;
layers = (
{
layerId = "F6AEDC33-7BF1-40E1-A2D2-3CCCCC93695C";
shapes = (
{
closed = 1;
nodes = (
(20,44,o),
(102,-11,o),
(202,-11,cs),
(272,-11,o),
(343,18,o),
(372,76,c),
(372,0,l),
(593,0,l),
(593,332,ls),
(593,475,o),
(482,572,o),
(313,572,cs),
(167,572,o),
(57,480,o),
(27,354,c),
(251,354,l),
(260,377,o),
(281,394,o),
(312,394,cs),
(349,394,o),
(371,370,o),
(371,323,c),
(274,323,ls),
(103,323,o),
(20,256,o),
(20,151,cs)
);
},
{
closed = 1;
nodes = (
(244,214,o),
(268,233,o),
(308,233,cs),
(370,233,l),
(370,221,ls),
(370,180,o),
(334,143,o),
(290,143,cs),
(262,143,o),
(244,158,o),
(244,186,cs)
);
}
);
width = 643;
},
{
layerId = "D00D5DE3-9836-4C68-A522-E01534F2A0A6";
shapes = (
{
closed = 1;
nodes = (
(43,59,o),
(120,-10,o),
(227,-10,cs),
(306,-10,o),
(389,28,o),
(428,99,c),
(428,0,l),
(520,0,l),
(520,321,ls),
(520,469,o),
(423,557,o),
(293,557,cs),
(166,557,o),
(76,484,o),
(57,357,c),
(146,357,l),
(159,433,o),
(212,478,o),
(289,478,cs),
(374,478,o),
(425,420,o),
(428,325,c),
(259,325,ls),
(118,325,o),
(43,253,o),
(43,153,cs)
);
},
{
closed = 1;
nodes = (
(135,215,o),
(176,251,o),
(259,251,cs),
(428,251,l),
(428,242,ls),
(428,133,o),
(337,70,o),
(245,70,cs),
(177,70,o),
(135,106,o),
(135,159,cs)
);
}
);
width = 598;
},
{
layerId = "5A5786DC-1B88-4A0B-9FB6-0051FAC2E168";
shapes = (
{
closed = 1;
nodes = (
(60,44,o),
(142,-10,o),
(236,-10,cs),
(343,-10,o),
(435,53,o),
(469,156,c),
(469,0,l),
(488,0,l),
(488,314,ls),
(488,465,o),
(413,545,o),
(285,545,cs),
(171,545,o),
(92,474,o),
(75,362,c),
(94,362,l),
(109,465,o),
(182,528,o),
(285,528,cs),
(405,528,o),
(465,456,o),
(469,308,c),
(259,308,ls),
(132,308,o),
(60,244,o),
(60,145,cs)
);
},
{
closed = 1;
nodes = (
(78,233,o),
(144,290,o),
(259,290,cs),
(469,290,l),
(469,253,ls),
(469,108,o),
(370,7,o),
(237,7,cs),
(142,7,o),
(78,62,o),
(78,145,cs)
);
}
);
width = 573;
}
);
unicode = 97;
},
{
glyphname = ae;
leftMetricsKey = a;
rightMetricsKey = e;
layers = (
{
layerId = "F6AEDC33-7BF1-40E1-A2D2-3CCCCC93695C";
shapes = (
{
closed = 1;
nodes = (
(262,143,o),
(244,158,o),
(244,186,cs),
(244,214,o),
(268,233,o),
(308,233,cs),
(385,233,l),
(386,323,l),
(274,323,ls),
(103,323,o),
(20,256,o),
(20,151,cs),
(20,44,o),
(102,-11,o),
(271,-11,cs),
(381,-11,o),
(456,12,o),
(489,77,c),
(518,22,o),
(599,-7,o),
(722,-7,cs),
(847,-7,o),
(961,84,o),
(985,203,c),
(750,203,l),
(740,181,o),
(719,167,o),
(680,167,cs),
(608,167,o),
(597,229,o),
(597,288,cs),
(597,352,o),
(617,397,o),
(687,397,cs),
(732,397,o),
(772,378,o),
(772,334,c),
(587,334,l),
(586,243,l),
(992,243,l),
(995,257,o),
(997,273,o),
(997,287,cs),
(997,464,o),
(874,571,o),
(731,571,cs),
(654,571,o),
(563,540,o),
(536,487,c),
(487,541,o),
(409,572,o),
(313,572,cs),
(167,572,o),
(57,480,o),
(27,354,c),
(251,354,l),
(260,377,o),
(281,394,o),
(312,394,cs),
(374,394,o),
(371,336,o),
(371,291,cs),
(371,267,ls),
(371,211,o),
(365,143,o),
(290,143,cs)
);
}
);
width = 1017;
},
{
layerId = "D00D5DE3-9836-4C68-A522-E01534F2A0A6";
shapes = (
{
closed = 1;
nodes = (
(177,70,o),
(135,106,o),
(135,159,cs),
(135,215,o),
(176,251,o),
(259,251,cs),
(443,251,l),
(443,325,l),
(259,325,ls),
(118,325,o),
(43,253,o),
(43,153,cs),
(43,59,o),
(120,-10,o),
(227,-10,cs),
(357,-10,o),
(428,23,o),
(473,106,c),
(497,39,o),
(599,-9,o),
(716,-9,cs),
(833,-9,o),
(928,55,o),
(961,169,c),
(863,169,l),
(844,108,o),
(786,68,o),
(701,68,cs),
(583,68,o),
(516,166,o),
(516,276,cs),
(516,390,o),
(583,480,o),
(702,480,cs),
(801,480,o),
(879,415,o),
(879,309,c),
(503,309,l),
(503,243,l),
(969,243,l),
(972,260,o),
(973,278,o),
(973,297,cs),
(973,447,o),
(865,560,o),
(716,557,c),
(624,557,o),
(537,520,o),
(490,447,c),
(452,517,o),
(380,557,o),
(293,557,cs),
(166,557,o),
(76,484,o),
(57,357,c),
(146,357,l),
(159,433,o),
(212,478,o),
(289,478,cs),
(398,478,o),
(428,397,o),
(428,309,cs),
(428,230,ls),
(428,151,o),
(373,70,o),
(245,70,cs)
);
}
);
width = 1020;
},
{
layerId = "5A5786DC-1B88-4A0B-9FB6-0051FAC2E168";
shapes = (
{
closed = 1;
nodes = (
(142,7,o),
(78,62,o),
(78,145,cs),
(78,233,o),
(144,290,o),
(259,290,cs),
(483,290,l),
(483,308,l),
(259,308,ls),
(132,308,o),
(60,244,o),
(60,145,cs),
(60,44,o),
(142,-10,o),
(236,-10,cs),
(370,-10,o),
(480,81,o),
(480,192,c),
(506,63,o),
(599,-7,o),
(727,-7,cs),
(867,-7,o),
(957,72,o),
(975,183,c),
(955,183,l),
(938,76,o),
(847,11,o),
(727,11,cs),
(578,11,o),
(487,129,o),
(487,271,cs),
(487,418,o),
(573,529,o),
(727,529,cs),
(847,529,o),
(967,453,o),
(957,279,c),
(473,279,l),
(473,261,l),
(971,261,l),
(974,279,o),
(975,289,o),
(975,315,cs),
(975,428,o),
(892,547,o),
(727,547,cs),
(614,547,o),
(511,485,o),
(483,365,c),
(468,483,o),
(398,545,o),
(285,545,cs),
(171,545,o),
(92,474,o),
(75,362,c),
(94,362,l),
(109,465,o),
(182,528,o),
(285,528,cs),
(412,528,o),
(468,429,o),
(468,308,cs),
(468,223,ls),
(468,96,o),
(357,7,o),
(237,7,cs)
);
}
);
width = 1035;
}
);
unicode = 230;
},
{
glyphname = b;
layers = (
{
layerId = "F6AEDC33-7BF1-40E1-A2D2-3CCCCC93695C";
shapes = (
{
closed = 1;
nodes = (
(272,740,l),
(50,740,l),
(50,0,l),
(272,0,l),
(272,77,l),
(299,26,o),
(352,-7,o),
(427,-7,c),
(557,-7,o),
(660,100,o),
(660,282,c),
(660,464,o),
(557,571,o),
(427,571,c),
(352,571,o),
(299,538,o),
(272,487,c)
);
},
{
closed = 1;
nodes = (
(435,220,o),
(399,187,o),
(353,187,c),
(307,187,o),
(271,220,o),
(271,282,c),
(271,344,o),
(307,377,o),
(353,377,c),
(399,377,o),
(435,344,o),
(435,282,c)
);
}
);
width = 680;
},
{
layerId = "D00D5DE3-9836-4C68-A522-E01534F2A0A6";
shapes = (
{
closed = 1;
nodes = (
(168,740,l),
(77,740,l),
(77,0,l),
(168,0,l),
(168,101,l),
(202,41,o),
(273,-9,o),
(373,-9,cs),
(520,-9,o),
(633,106,o),
(633,276,cs),
(633,447,o),
(521,557,o),
(373,557,cs),
(276,557,o),
(203,507,o),
(168,446,c)
);
},
{
closed = 1;
nodes = (
(540,147,o),
(455,71,o),
(354,71,cs),
(255,71,o),
(168,146,o),
(168,275,cs),
(168,402,o),
(255,478,o),
(354,478,cs),
(455,478,o),
(540,405,o),
(540,276,cs)
);
}
);
width = 676;
},
{
layerId = "5A5786DC-1B88-4A0B-9FB6-0051FAC2E168";
shapes = (
{
closed = 1;
nodes = (
(104,740,l),
(85,740,l),
(85,0,l),
(104,0,l),
(104,174,l),
(132,69,o),
(220,-7,o),
(348,-7,c),
(503,-7,o),
(611,98,o),
(611,270,c),
(611,442,o),
(503,547,o),
(348,547,c),
(220,547,o),
(132,471,o),
(104,366,c)
);
},
{
closed = 1;
nodes = (
(591,109,o),
(496,11,o),
(348,11,c),
(207,11,o),
(104,114,o),
(104,270,c),
(104,426,o),
(207,529,o),
(348,529,c),
(496,529,o),
(591,431,o),
(591,270,c)
);
}
);
width = 671;
}
);
unicode = 98;
},
{
glyphname = c;
layers = (
{
layerId = "F6AEDC33-7BF1-40E1-A2D2-3CCCCC93695C";
shapes = (
{
closed = 1;
nodes = (
(20,102,o),
(139,-7,o),
(308,-7,cs),
(453,-7,o),
(562,79,o),
(589,227,c),
(354,227,l),
(346,200,o),
(331,183,o),
(303,183,cs),
(269,183,o),
(245,214,o),
(245,282,c),
(245,350,o),
(269,381,o),
(303,381,cs),
(331,381,o),
(346,364,o),
(354,337,c),
(589,337,l),
(562,485,o),
(453,571,o),
(308,571,cs),
(139,571,o),
(20,462,o),
(20,282,c)
);
}
);
width = 609;
},
{
layerId = "D00D5DE3-9836-4C68-A522-E01534F2A0A6";
shapes = (
{
closed = 1;
nodes = (
(46,98,o),
(159,-7,o),
(316,-7,cs),
(458,-7,o),
(554,74,o),
(575,199,c),
(479,199,l),
(465,120,o),
(401,72,o),
(314,72,cs),
(222,72,o),
(139,135,o),
(139,274,cs),
(139,414,o),
(222,476,o),
(314,476,cs),
(401,476,o),
(465,429,o),
(479,350,c),
(575,350,l),
(554,474,o),
(458,556,o),
(316,556,cs),
(159,556,o),
(46,450,o),
(46,274,cs)
);
}
);
width = 621;
},
{
layerId = "5A5786DC-1B88-4A0B-9FB6-0051FAC2E168";
shapes = (
{
closed = 1;
nodes = (
(60,96,o),
(170,-7,o),
(320,-7,cs),
(460,-7,o),
(550,72,o),
(568,183,c),
(548,183,l),
(531,76,o),
(440,11,o),
(320,11,cs),
(196,11,o),
(80,91,o),
(80,270,c),
(80,449,o),
(196,529,o),
(320,529,cs),
(440,529,o),
(531,464,o),
(548,357,c),
(568,357,l),
(550,468,o),
(460,547,o),
(320,547,cs),
(170,547,o),
(60,444,o),
(60,270,c)
);
}
);
width = 628;
}
);
unicode = 99;
},
{
glyphname = d;
layers = (
{
layerId = "F6AEDC33-7BF1-40E1-A2D2-3CCCCC93695C";
shapes = (
{
closed = 1;
nodes = (
(20,100,o),
(123,-7,o),
(253,-7,c),
(328,-7,o),
(381,26,o),
(408,77,c),
(408,0,l),
(630,0,l),
(630,740,l),
(408,740,l),
(408,487,l),
(381,538,o),
(328,571,o),
(253,571,c),
(123,571,o),
(20,464,o),
(20,282,c)
);
},
{
closed = 1;
nodes = (
(409,220,o),
(373,187,o),
(327,187,c),
(281,187,o),
(245,220,o),
(245,282,c),
(245,344,o),
(281,377,o),
(327,377,c),
(373,377,o),
(409,344,o),
(409,282,c)
);
}
);
width = 680;
},
{
anchors = (
{
name = topright;
position = "{599, 740}";
}
);
layerId = "D00D5DE3-9836-4C68-A522-E01534F2A0A6";
shapes = (
{
closed = 1;
nodes = (
(43,106,o),
(156,-9,o),
(303,-9,cs),
(403,-9,o),
(474,42,o),
(507,103,c),
(507,0,l),
(599,0,l),
(599,740,l),
(507,740,l),
(507,450,l),
(469,513,o),
(390,557,o),
(304,557,cs),
(156,557,o),
(43,447,o),
(43,276,cs)
);
},
{
closed = 1;
nodes = (
(507,146,o),
(421,71,o),
(321,71,cs),
(221,71,o),
(136,147,o),
(136,276,cs),
(136,405,o),
(221,478,o),
(321,478,cs),
(421,478,o),
(507,402,o),
(507,275,cs)
);
}
);
width = 676;
},
{
layerId = "5A5786DC-1B88-4A0B-9FB6-0051FAC2E168";
shapes = (
{
closed = 1;
nodes = (
(60,98,o),
(168,-7,o),
(323,-7,c),
(451,-7,o),
(539,69,o),
(567,174,c),
(567,0,l),
(586,0,l),
(586,740,l),
(567,740,l),
(567,366,l),
(539,471,o),
(451,547,o),
(323,547,c),
(168,547,o),
(60,442,o),
(60,270,c)
);
},
{
closed = 1;
nodes = (
(567,114,o),
(464,11,o),
(323,11,c),
(175,11,o),
(80,109,o),
(80,270,c),
(80,431,o),
(175,529,o),
(323,529,c),
(464,529,o),
(567,426,o),
(567,270,c)
);
}
);
width = 671;
}
);
unicode = 100;
},
{
glyphname = eth;
layers = (
{
layerId = "F6AEDC33-7BF1-40E1-A2D2-3CCCCC93695C";
shapes = (
{
closed = 1;
nodes = (
(397,210,o),
(362,186,o),
(328,186,cs),
(295,186,o),
(246,210,o),
(246,282,cs),
(246,354,o),
(289,377,o),
(324,377,cs),
(355,377,o),
(397,354,o),
(397,282,cs)
);
},
{
closed = 1;
nodes = (
(20,105,o),
(164,-6,o),
(328,-6,cs),
(488,-6,o),
(623,107,o),
(623,317,cs),
(623,476,o),
(541,636,o),
(440,740,c),
(247,740,l),
(290,702,o),
(347,627,o),
(380,560,c),
(351,565,o),
(324,568,o),
(301,568,cs),
(144,568,o),
(20,462,o),
(20,284,cs)
);
},
{
closed = 1;
nodes = (
(264,660,l),
(264,588,l),
(529,663,l),
(529,735,l)
);
}
);
width = 643;
},
{
layerId = "D00D5DE3-9836-4C68-A522-E01534F2A0A6";
shapes = (
{
closed = 1;
nodes = (
(505,143,o),
(425,73,o),
(325,73,cs),
(221,73,o),
(139,147,o),
(139,285,cs),
(139,413,o),
(221,478,o),
(323,478,cs),
(420,478,o),
(505,409,o),
(505,274,cs)
);
},
{
closed = 1;
nodes = (
(46,110,o),
(160,-7,o),
(325,-7,cs),
(482,-7,o),
(598,99,o),
(598,311,cs),
(598,479,o),
(524,620,o),
(378,740,c),
(295,740,l),
(420,640,o),
(478,547,o),
(503,425,c),
(470,517,o),
(395,558,o),
(315,558,cs),
(156,558,o),
(46,451,o),
(46,285,cs)
);
},
{
closed = 1;
nodes = (
(256,641,l),
(256,603,l),
(547,702,l),
(547,739,l)
);
}
);
width = 644;
},
{
layerId = "5A5786DC-1B88-4A0B-9FB6-0051FAC2E168";
shapes = (
{
closed = 1;
nodes = (
(565,106,o),
(459,11,o),
(323,11,cs),
(181,11,o),
(80,112,o),
(80,286,cs),
(80,445,o),
(184,534,o),
(323,534,cs),
(455,534,o),
(565,440,o),
(565,270,cs)
);
},
{
closed = 1;
nodes = (
(60,113,o),
(158,-7,o),
(323,-7,cs),
(478,-7,o),
(585,95,o),
(585,307,cs),
(585,480,o),
(514,611,o),
(344,740,c),
(322,740,l),
(492,606,o),
(550,503,o),
(571,351,c),
(536,491,o),
(434,552,o),
(323,552,cs),
(162,552,o),
(60,445,o),
(60,286,cs)
);
},
{
closed = 1;
nodes = (
(252,630,l),
(252,612,l),
(557,723,l),
(557,741,l)
);
}
);
width = 645;
}
);
unicode = 240;
},
{
glyphname = dcaron;
layers = (
{
layerId = "F6AEDC33-7BF1-40E1-A2D2-3CCCCC93695C";
shapes = (
{
closed = 1;
nodes = (
(690,740,l),
(690,594,l),
(762,594,l),
(762,582,ls),
(762,531,o),
(742,508,o),
(707,508,c),
(707,429,l),
(821,429,o),
(872,509,o),
(872,606,cs),
(872,648,o),
(864,694,o),
(846,740,c)
);
},
{
alignment = -1;
ref = d;
}
);
width = 882;
},
{
layerId = "D00D5DE3-9836-4C68-A522-E01534F2A0A6";
shapes = (
{
closed = 1;
nodes = (
(659,740,l),
(659,654,l),
(709,654,l),
(709,631,ls),
(709,594,o),
(696,576,o),
(661,576,c),
(661,535,l),
(727,535,o),
(762,573,o),
(762,648,cs),
(762,674,o),
(759,705,o),
(751,740,c)
);
},
{
alignment = -1;
ref = d;
}
);
width = 746;
},
{
layerId = "5A5786DC-1B88-4A0B-9FB6-0051FAC2E168";
shapes = (
{
closed = 1;
nodes = (
(642,740,l),
(642,687,l),
(680,687,l),
(680,658,ls),
(680,629,o),
(670,613,o),
(635,613,c),
(635,593,l),
(675,593,o),
(702,608,o),
(702,671,cs),
(702,689,o),
(701,711,o),
(698,740,c)
);
},
{
alignment = -1;
ref = d;
}
);
width = 671;
}
);
unicode = 271;
},
{
glyphname = dcroat;
layers = (
{
layerId = "F6AEDC33-7BF1-40E1-A2D2-3CCCCC93695C";
shapes = (
{
closed = 1;
nodes = (
(349,592,l),
(694,592,l),
(694,688,l),
(349,688,l)
);
},
{
alignment = -1;
ref = d;
}
);
width = 704;
},
{
layerId = "D00D5DE3-9836-4C68-A522-E01534F2A0A6";
shapes = (
{
closed = 1;
nodes = (
(357,629,l),
(668,629,l),
(668,675,l),
(357,675,l)
);
},
{
alignment = -1;
ref = d;
}
);
width = 678;
},
{
layerId = "5A5786DC-1B88-4A0B-9FB6-0051FAC2E168";
shapes = (
{
closed = 1;
nodes = (
(362,650,l),
(654,650,l),
(654,668,l),
(362,668,l)
);
},
{
alignment = -1;
ref = d;
}
);
width = 664;
}
);
unicode = 273;
},
{
glyphname = e;
layers = (
{
layerId = "F6AEDC33-7BF1-40E1-A2D2-3CCCCC93695C";
shapes = (
{
closed = 1;
nodes = (
(20,102,o),
(139,-7,o),
(308,-7,cs),
(450,-7,o),
(560,83,o),
(584,203,c),
(349,203,l),
(341,186,o),
(326,170,o),
(297,170,cs),
(233,170,o),
(236,235,o),
(236,282,cs),
(236,336,o),
(236,397,o),
(308,397,c),
(341,397,o),
(371,379,o),
(371,334,c),
(216,334,l),
(216,243,l),
(591,243,l),
(594,257,o),
(596,273,o),
(596,287,c),
(596,464,o),
(477,571,o),
(308,571,c),
(139,571,o),
(20,462,o),
(20,282,c)
);
}
);
width = 616;
},
{
layerId = "D00D5DE3-9836-4C68-A522-E01534F2A0A6";
shapes = (
{
closed = 1;
nodes = (
(43,104,o),
(158,-9,o),
(314,-9,cs),
(432,-9,o),
(532,53,o),
(566,169,c),
(468,169,l),
(447,108,o),
(393,68,o),
(314,68,cs),
(193,68,o),
(134,161,o),
(134,273,cs),
(134,384,o),
(188,480,o),
(310,480,cs),
(406,480,o),
(483,419,o),
(483,314,c),
(122,314,l),
(121,240,l),
(574,240,l),
(576,259,o),
(577,278,o),
(577,295,cs),
(577,453,o),
(467,557,o),
(314,557,cs),
(153,557,o),
(43,446,o),
(43,275,cs)
);
}
);
width = 624;
},
{
layerId = "5A5786DC-1B88-4A0B-9FB6-0051FAC2E168";
shapes = (
{
closed = 1;
nodes = (
(60,96,o),
(170,-7,o),
(320,-7,cs),
(460,-7,o),
(550,72,o),
(568,183,c),
(548,183,l),
(531,76,o),
(440,11,o),
(320,11,cs),
(197,11,o),
(80,93,o),
(80,270,cs),
(80,446,o),
(197,529,o),
(320,529,cs),
(440,529,o),
(560,453,o),
(550,279,c),
(70,279,l),
(70,261,l),
(564,261,l),
(567,279,o),
(568,289,o),
(568,315,cs),
(568,428,o),
(485,547,o),
(320,547,cs),
(170,547,o),
(60,444,o),
(60,270,c)
);
}
);
width = 628;
}
);
unicode = 101;
},
{
glyphname = f;
layers = (
{
layerId = "F6AEDC33-7BF1-40E1-A2D2-3CCCCC93695C";
shapes = (
{
closed = 1;
nodes = (
(70,0,l),
(292,0,l),
(292,539,ls),
(292,595,o),
(314,611,o),
(375,604,c),
(375,793,l),
(182,810,o),
(70,722,o),
(70,559,cs)
);
},
{
closed = 1;
nodes = (
(10,379,l),
(375,379,l),
(375,564,l),
(10,564,l)
);
}
);
width = 385;
},
{
layerId = "D00D5DE3-9836-4C68-A522-E01534F2A0A6";
shapes = (
{
closed = 1;
nodes = (
(95,0,l),
(186,0,l),
(186,564,ls),
(186,647,o),
(217,681,o),
(316,679,c),
(316,759,l),
(163,765,o),
(95,697,o),
(95,571,cs)
);
},
{
closed = 1;
nodes = (
(16,469,l),
(316,469,l),
(316,549,l),
(16,549,l)
);
}
);
width = 342;
},
{
layerId = "5A5786DC-1B88-4A0B-9FB6-0051FAC2E168";
shapes = (
{
closed = 1;
nodes = (
(108,0,l),
(128,0,l),
(128,578,ls),
(128,675,o),
(164,720,o),
(283,720,c),
(283,740,l),
(152,740,o),
(108,683,o),
(108,578,cs)
);
},
{
closed = 1;
nodes = (
(20,519,l),
(283,519,l),
(283,540,l),
(20,540,l)
);
}
);
width = 318;
}
);
unicode = 102;
},
{
glyphname = g;
layers = (
{
layerId = "F6AEDC33-7BF1-40E1-A2D2-3CCCCC93695C";
shapes = (
{
closed = 1;
nodes = (
(409,220,o),
(373,187,o),
(327,187,c),
(281,187,o),
(245,220,o),
(245,282,c),
(245,344,o),
(281,377,o),
(327,377,c),
(373,377,o),
(409,344,o),
(409,282,c)
);
},
{
closed = 1;
nodes = (
(123,571,o),
(20,464,o),
(20,282,c),
(20,100,o),
(123,-7,o),
(253,-7,c),
(328,-7,o),
(382,26,o),
(409,77,c),
(409,10,l),
(409,-69,o),
(371,-85,o),
(326,-85,cs),
(285,-85,o),
(260,-70,o),
(254,-41,c),
(36,-41,l),
(51,-184,o),
(158,-277,o),
(342,-277,cs),
(553,-277,o),
(630,-139,o),
(630,10,c),
(630,564,l),
(409,564,l),
(409,487,l),
(382,538,o),
(328,571,o),
(253,571,c)
);
}
);
width = 680;
},
{
anchors = (
{
name = top;
position = "{339, 548}";
}
);
layerId = "D00D5DE3-9836-4C68-A522-E01534F2A0A6";
shapes = (
{
closed = 1;
nodes = (
(507,146,o),
(421,71,o),
(321,71,cs),
(221,71,o),
(136,147,o),
(136,276,cs),
(136,405,o),
(221,478,o),
(321,478,cs),
(421,478,o),
(507,402,o),
(507,275,cs)
);
},
{
closed = 1;
nodes = (
(156,557,o),
(43,447,o),
(43,276,cs),
(43,106,o),
(156,-9,o),
(303,-9,cs),
(403,-9,o),
(474,44,o),
(507,103,c),
(507,-12,ls),
(507,-129,o),
(434,-191,o),
(337,-191,cs),
(247,-191,o),
(182,-146,o),
(162,-80,c),
(72,-80,l),
(90,-197,o),
(193,-270,o),
(337,-270,cs),
(498,-270,o),
(599,-163,o),
(599,-12,cs),
(599,548,l),
(507,548,l),
(507,448,l),
(475,507,o),
(403,557,o),
(303,557,cs)
);
}
);
width = 676;
},
{
layerId = "5A5786DC-1B88-4A0B-9FB6-0051FAC2E168";
shapes = (
{
closed = 1;
nodes = (
(567,114,o),
(464,11,o),
(323,11,c),
(175,11,o),
(80,109,o),
(80,270,c),
(80,431,o),
(175,529,o),
(323,529,c),
(464,529,o),
(567,426,o),
(567,270,c)
);
},
{
closed = 1;
nodes = (
(168,547,o),
(60,442,o),
(60,270,c),
(60,98,o),
(168,-7,o),
(323,-7,c),
(451,-7,o),
(539,69,o),
(567,174,c),
(567,-20,l),
(567,-159,o),
(470,-246,o),
(347,-246,cs),
(222,-246,o),
(145,-181,o),
(116,-88,c),
(96,-88,l),
(127,-192,o),
(213,-264,o),
(347,-264,cs),
(472,-264,o),
(586,-176,o),
(586,-20,c),
(586,540,l),
(567,540,l),
(567,366,l),
(539,471,o),
(451,547,o),
(323,547,c)
);
}
);
width = 671;
}
);
unicode = 103;
},
{
glyphname = gcommaaccent;
layers = (
{
layerId = "F6AEDC33-7BF1-40E1-A2D2-3CCCCC93695C";
shapes = (
{
closed = 1;
nodes = (
(438,599,l),
(438,746,l),
(366,746,l),
(366,757,ls),
(366,809,o),
(387,832,o),
(421,832,c),
(421,910,l),
(308,910,o),
(257,830,o),
(257,734,cs),
(257,692,o),
(264,646,o),
(282,599,c)
);
},
{
alignment = -1;
ref = g;
}
);
width = 680;
},
{
layerId = "D00D5DE3-9836-4C68-A522-E01534F2A0A6";
shapes = (
{
closed = 1;
nodes = (
(381,595,l),
(381,682,l),
(331,682,l),
(331,704,ls),
(331,741,o),
(345,760,o),
(380,760,c),
(380,800,l),
(314,800,o),
(278,762,o),
(278,688,cs),
(278,661,o),
(281,631,o),
(290,595,c)
);
},
{
alignment = -1;
ref = g;
}
);
width = 674;
},
{
layerId = "5A5786DC-1B88-4A0B-9FB6-0051FAC2E168";
shapes = (
{
closed = 1;
nodes = (
(350,593,l),
(350,646,l),
(312,646,l),
(312,675,ls),
(312,704,o),
(322,720,o),
(357,720,c),
(357,740,l),
(317,740,o),
(290,725,o),
(290,662,cs),
(290,644,o),
(291,622,o),
(294,593,c)
);
},
{
alignment = -1;
ref = g;
}
);
width = 671;
}
);
unicode = 291;
},
{
glyphname = h;
layers = (
{
layerId = "F6AEDC33-7BF1-40E1-A2D2-3CCCCC93695C";
shapes = (
{
closed = 1;
nodes = (
(50,0,l),
(272,0,l),
(272,740,l),
(50,740,l)
);
},
{
closed = 1;
nodes = (
(430,0,l),
(651,0,l),
(651,327,ls),
(651,473,o),
(575,568,o),
(445,568,cs),
(345,568,o),
(284,511,o),
(257,451,c),
(272,299,l),
(272,353,o),
(302,386,o),
(351,386,cs),
(399,386,o),
(430,353,o),
(430,299,cs)
);
}
);
width = 697;
},
{
layerId = "D00D5DE3-9836-4C68-A522-E01534F2A0A6";
shapes = (
{
closed = 1;
nodes = (
(77,0,l),
(168,0,l),
(168,740,l),
(77,740,l)
);
},
{
closed = 1;
nodes = (
(478,0,l),
(568,0,l),
(568,323,ls),
(568,480,o),
(471,558,o),
(349,558,cs),
(248,558,o),
(163,504,o),
(144,409,c),
(168,303,l),
(168,421,o),
(232,479,o),
(325,479,cs),
(417,479,o),
(478,422,o),
(478,310,cs)
);
}
);
width = 640;
},
{
layerId = "5A5786DC-1B88-4A0B-9FB6-0051FAC2E168";
shapes = (
{
closed = 1;
nodes = (
(85,0,l),
(105,0,l),
(105,740,l),
(85,740,l)
);
},
{
closed = 1;
nodes = (
(515,0,l),
(534,0,l),
(534,315,ls),
(534,482,o),
(435,552,o),
(317,552,c),
(207,552,o),
(102,485,o),
(97,325,c),
(105,287,l),
(105,456,o),
(194,534,o),
(317,534,c),
(436,534,o),
(515,461,o),
(515,317,cs)
);
}
);
width = 614;
}
);
unicode = 104;
},
{
glyphname = i;
layers = (
{
layerId = "F6AEDC33-7BF1-40E1-A2D2-3CCCCC93695C";
shapes = (
{
closed = 1;
nodes = (
(50,0,l),
(272,0,l),
(272,564,l),
(50,564,l)
);
},
{
closed = 1;
nodes = (
(240,609,o),
(289,657,o),
(289,718,cs),
(289,780,o),
(240,829,o),
(162,829,cs),
(83,829,o),
(34,780,o),
(34,718,cs),
(34,657,o),
(83,609,o),
(162,609,cs)
);
}
);
width = 322;
},
{
layerId = "D00D5DE3-9836-4C68-A522-E01534F2A0A6";
shapes = (
{
closed = 1;
nodes = (
(73,0,l),
(164,0,l),
(164,549,l),
(73,549,l)
);
},
{
closed = 1;
nodes = (
(156,654,o),
(181,677,o),
(181,710,cs),
(181,743,o),
(156,766,o),
(119,766,cs),
(82,766,o),
(57,743,o),
(57,710,cs),
(57,677,o),
(82,654,o),
(119,654,cs)
);
}
);
width = 237;
},
{
layerId = "5A5786DC-1B88-4A0B-9FB6-0051FAC2E168";
shapes = (
{
closed = 1;
nodes = (
(85,0,l),
(105,0,l),
(105,540,l),
(85,540,l)
);
},
{
closed = 1;
nodes = (
(109,678,o),
(121,688,o),
(121,705,cs),
(121,722,o),
(109,732,o),
(95,732,c),
(81,732,o),
(69,722,o),
(69,705,cs),
(69,688,o),
(81,678,o),
(95,678,c)
);
}
);
width = 190;
}
);
unicode = 105;
},
{
glyphname = dotlessi;
layers = (
{
layerId = "F6AEDC33-7BF1-40E1-A2D2-3CCCCC93695C";
shapes = (
{
closed = 1;
nodes = (
(75,0,l),
(297,0,l),
(297,564,l),
(75,564,l)
);
}
);
width = 372;
},
{
layerId = "D00D5DE3-9836-4C68-A522-E01534F2A0A6";
shapes = (
{
closed = 1;
nodes = (
(81,0,l),
(173,0,l),
(173,549,l),
(81,549,l)
);
}
);
width = 255;
},
{
layerId = "5A5786DC-1B88-4A0B-9FB6-0051FAC2E168";
shapes = (
{
closed = 1;
nodes = (
(85,0,l),
(105,0,l),
(105,540,l),
(85,540,l)
);
}
);
width = 190;
}
);
unicode = 305;
},
{
glyphname = j;
layers = (
{
layerId = "F6AEDC33-7BF1-40E1-A2D2-3CCCCC93695C";
shapes = (
{
closed = 1;
nodes = (
(40,-270,ls),
(172,-270,o),
(272,-214,o),
(272,-39,cs),
(272,564,l),
(50,564,l),
(50,-43,ls),
(50,-69,o),
(38,-81,o),
(9,-81,cs),
(-34,-81,l),
(-34,-270,l)
);
},
{
closed = 1;
nodes = (
(238,609,o),
(287,657,o),
(287,718,cs),
(287,780,o),
(238,829,o),
(160,829,cs),
(81,829,o),
(32,780,o),
(32,718,cs),
(32,657,o),
(81,609,o),
(160,609,cs)
);
}
);
width = 320;
},
{
layerId = "D00D5DE3-9836-4C68-A522-E01534F2A0A6";
shapes = (
{
closed = 1;
nodes = (
(21,-260,ls),
(118,-260,o),
(171,-213,o),
(171,-112,cs),
(171,549,l),
(79,549,l),
(79,-109,ls),
(79,-163,o),
(57,-180,o),
(10,-180,cs),
(-28,-180,l),
(-28,-260,l)
);
},
{
closed = 1;
nodes = (
(161,654,o),
(186,677,o),
(186,710,cs),
(186,743,o),
(161,766,o),
(125,766,cs),
(87,766,o),
(62,743,o),
(62,710,cs),
(62,677,o),
(87,654,o),
(125,654,cs)
);
}
);
width = 243;
},
{
layerId = "5A5786DC-1B88-4A0B-9FB6-0051FAC2E168";
shapes = (
{
closed = 1;
nodes = (
(11,-254,ls),
(89,-254,o),
(115,-213,o),
(115,-152,cs),
(115,540,l),
(95,540,l),
(95,-146,ls),
(95,-214,o),
(67,-234,o),
(11,-234,cs),
(-25,-234,l),
(-25,-254,l)
);
},
{
closed = 1;
nodes = (
(119,678,o),
(131,688,o),
(131,705,cs),
(131,722,o),
(119,732,o),
(105,732,c),
(91,732,o),
(79,722,o),
(79,705,cs),
(79,688,o),
(91,678,o),
(105,678,c)
);
}
);
width = 200;
}
);
unicode = 106;
},
{
glyphname = k;
layers = (
{
layerId = "F6AEDC33-7BF1-40E1-A2D2-3CCCCC93695C";
shapes = (
{
closed = 1;
nodes = (
(50,0,l),
(272,0,l),
(272,740,l),
(50,740,l)
);
},
{
closed = 1;
nodes = (
(231,291,l),
(411,0,l),
(676,0,l),
(446,298,l),
(453,271,l),
(671,564,l),
(413,564,l)
);
}
);
width = 676;
},
{
layerId = "D00D5DE3-9836-4C68-A522-E01534F2A0A6";
shapes = (
{
closed = 1;
nodes = (
(73,0,l),
(164,0,l),
(164,740,l),
(73,740,l)
);
},
{
closed = 1;
nodes = (
(137,279,l),
(374,0,l),
(488,0,l),
(218,296,l),
(223,261,l),
(482,549,l),
(371,549,l)
);
}
);
width = 495;
},
{
layerId = "5A5786DC-1B88-4A0B-9FB6-0051FAC2E168";
shapes = (
{
closed = 1;
nodes = (
(85,0,l),
(105,0,l),
(105,740,l),
(85,740,l)
);
},
{
closed = 1;
nodes = (
(85,273,l),
(354,0,l),
(385,0,l),
(93,295,l),
(96,256,l),
(378,540,l),
(348,540,l)
);
}
);
width = 395;
}
);
unicode = 107;
},
{
glyphname = kcommaaccent;
layers = (
{
layerId = "F6AEDC33-7BF1-40E1-A2D2-3CCCCC93695C";
shapes = (
{
closed = 1;
nodes = (
(262,-35,l),
(262,-182,l),
(334,-182,l),
(334,-193,ls),
(334,-245,o),
(313,-268,o),
(279,-268,c),
(279,-346,l),
(392,-346,o),
(443,-266,o),
(443,-170,cs),
(443,-128,o),
(436,-82,o),
(418,-35,c)
);
},
{
alignment = -1;
ref = k;
}
);
width = 676;
},
{
layerId = "D00D5DE3-9836-4C68-A522-E01534F2A0A6";
shapes = (
{
closed = 1;
nodes = (
(207,-50,l),
(207,-127,l),
(253,-127,l),
(253,-136,ls),
(253,-175,o),
(238,-197,o),
(205,-197,c),
(205,-236,l),
(269,-236,o),
(306,-198,o),
(306,-118,cs),
(306,-98,o),
(302,-73,o),
(295,-50,c)
);
},
{
alignment = -1;
ref = k;
}
);
width = 495;
},
{
layerId = "5A5786DC-1B88-4A0B-9FB6-0051FAC2E168";
shapes = (
{
closed = 1;
nodes = (
(177,-59,l),
(177,-97,l),
(208,-97,l),
(208,-104,ls),
(208,-137,o),
(197,-158,o),
(165,-158,c),
(165,-176,l),
(201,-176,o),
(230,-161,o),
(230,-90,cs),
(230,-81,o),
(229,-68,o),
(228,-59,c)
);
},
{
alignment = -1;
ref = k;
}
);
width = 395;
}
);
unicode = 311;
},
{
glyphname = l;
layers = (
{
layerId = "F6AEDC33-7BF1-40E1-A2D2-3CCCCC93695C";
shapes = (
{
closed = 1;
nodes = (
(50,0,l),
(272,0,l),
(272,740,l),
(50,740,l)
);
}
);
width = 322;
},
{
layerId = "D00D5DE3-9836-4C68-A522-E01534F2A0A6";
shapes = (
{
closed = 1;
nodes = (
(73,0,l),
(164,0,l),
(164,740,l),
(73,740,l)
);
}
);
width = 237;
},
{
layerId = "5A5786DC-1B88-4A0B-9FB6-0051FAC2E168";
shapes = (
{
closed = 1;
nodes = (
(85,0,l),
(105,0,l),
(105,740,l),
(85,740,l)
);
}
);
width = 190;
}
);
unicode = 108;
},
{
glyphname = lcaron;
layers = (
{
layerId = "F6AEDC33-7BF1-40E1-A2D2-3CCCCC93695C";
shapes = (
{
closed = 1;
nodes = (
(325,740,l),
(325,594,l),
(397,594,l),
(397,582,ls),
(397,531,o),
(376,508,o),
(342,508,c),
(342,429,l),
(455,429,o),
(506,509,o),
(506,606,cs),
(506,648,o),
(499,694,o),
(481,740,c)
);
},
{
alignment = -1;
ref = l;
}
);
width = 516;
},
{
layerId = "D00D5DE3-9836-4C68-A522-E01534F2A0A6";
shapes = (
{
closed = 1;
nodes = (
(220,740,l),
(220,654,l),
(270,654,l),
(270,631,ls),
(270,594,o),
(256,576,o),
(221,576,c),
(221,535,l),
(287,535,o),
(323,573,o),
(323,648,cs),
(323,674,o),
(320,705,o),
(311,740,c)
);
},
{
alignment = -1;
ref = l;
}
);
width = 306;
},
{
layerId = "5A5786DC-1B88-4A0B-9FB6-0051FAC2E168";
shapes = (
{
closed = 1;
nodes = (
(162,740,l),
(162,687,l),
(200,687,l),
(200,658,ls),
(200,629,o),
(190,613,o),
(155,613,c),
(155,593,l),
(195,593,o),
(222,608,o),
(222,671,cs),
(222,689,o),
(221,711,o),
(218,740,c)
);
},
{
alignment = -1;
ref = l;
}
);
width = 190;
}
);
unicode = 318;
},
{
glyphname = lcommaaccent;
layers = (
{
layerId = "F6AEDC33-7BF1-40E1-A2D2-3CCCCC93695C";
shapes = (
{
closed = 1;
nodes = (
(87,-35,l),
(87,-182,l),
(159,-182,l),
(159,-193,ls),
(159,-245,o),
(138,-268,o),
(104,-268,c),
(104,-346,l),
(217,-346,o),
(268,-266,o),
(268,-170,cs),
(268,-128,o),
(261,-82,o),
(243,-35,c)
);
},
{
alignment = -1;
ref = l;
}
);
width = 322;
},
{
layerId = "D00D5DE3-9836-4C68-A522-E01534F2A0A6";
shapes = (
{
closed = 1;
nodes = (
(74,-50,l),
(74,-127,l),
(120,-127,l),
(120,-136,ls),
(120,-175,o),
(105,-197,o),
(72,-197,c),
(72,-236,l),
(136,-236,o),
(173,-198,o),
(173,-118,cs),
(173,-98,o),
(169,-73,o),
(162,-50,c)
);
},
{
alignment = -1;
ref = l;
}
);
width = 237;
},
{
layerId = "5A5786DC-1B88-4A0B-9FB6-0051FAC2E168";
shapes = (
{
closed = 1;
nodes = (
(67,-59,l),
(67,-97,l),
(98,-97,l),
(98,-104,ls),
(98,-137,o),
(87,-158,o),
(55,-158,c),
(55,-176,l),
(91,-176,o),
(120,-161,o),
(120,-90,cs),
(120,-81,o),
(119,-68,o),
(118,-59,c)
);
},
{
alignment = -1;
ref = l;
}
);
width = 190;
}
);
unicode = 316;
},
{
glyphname = lslash;
layers = (
{
layerId = "F6AEDC33-7BF1-40E1-A2D2-3CCCCC93695C";
shapes = (
{
closed = 1;
nodes = (
(10,221,l),
(362,318,l),
(362,534,l),
(10,437,l)
);
},
{
closed = 1;
nodes = (
(75,0,l),
(297,0,l),
(297,740,l),
(75,740,l)
);
}
);
width = 372;
},
{
layerId = "D00D5DE3-9836-4C68-A522-E01534F2A0A6";
shapes = (
{
closed = 1;
nodes = (
(10,351,l),
(258,455,l),
(258,544,l),
(10,440,l)
);
},
{
closed = 1;
nodes = (
(88,0,l),
(180,0,l),
(180,740,l),
(88,740,l)
);
}
);
width = 268;
},
{
layerId = "5A5786DC-1B88-4A0B-9FB6-0051FAC2E168";
shapes = (
{
closed = 1;
nodes = (
(10,422,l),
(200,531,l),
(200,550,l),
(10,441,l)
);
},
{
closed = 1;
nodes = (
(95,0,l),
(115,0,l),
(115,740,l),
(95,740,l)
);
}
);
width = 210;
}
);
unicode = 322;
},
{
glyphname = m;
layers = (
{
layerId = "F6AEDC33-7BF1-40E1-A2D2-3CCCCC93695C";
shapes = (
{
closed = 1;
nodes = (
(50,0,l),
(272,0,l),
(272,564,l),
(50,564,l)
);
},
{
closed = 1;
nodes = (
(430,0,l),
(651,0,l),
(651,327,ls),
(651,473,o),
(566,568,o),
(435,568,cs),
(340,568,o),
(282,516,o),
(257,461,c),
(272,299,l),
(272,347,o),
(302,376,o),
(351,376,cs),
(399,376,o),
(430,347,o),
(430,299,cs)
);
},
{
closed = 1;
nodes = (
(809,0,l),
(1030,0,l),
(1030,327,ls),
(1030,473,o),
(949,568,o),
(803,568,cs),
(701,568,o),
(627,497,o),
(595,427,c),
(651,299,l),
(651,347,o),
(681,376,o),
(730,376,cs),
(778,376,o),
(809,347,o),
(809,299,cs)
);
}
);
width = 1076;
},
{
layerId = "D00D5DE3-9836-4C68-A522-E01534F2A0A6";
shapes = (
{
closed = 1;
nodes = (
(77,0,l),
(168,0,l),
(168,548,l),
(77,548,l)
);
},
{
closed = 1;
nodes = (
(473,0,l),
(563,0,l),
(563,323,ls),
(563,480,o),
(466,558,o),
(341,558,cs),
(246,558,o),
(163,504,o),
(143,406,c),
(168,302,l),
(168,420,o),
(231,479,o),
(323,479,cs),
(413,479,o),
(473,422,o),
(473,310,cs)
);
},
{
closed = 1;
nodes = (
(868,0,l),
(958,0,l),
(958,323,ls),
(958,480,o),
(861,558,o),
(736,558,cs),
(642,558,o),
(555,504,o),
(532,406,c),
(563,302,l),
(563,420,o),
(626,479,o),
(718,479,cs),
(808,479,o),
(868,422,o),
(868,310,cs)
);
}
);
width = 1030;
},
{
layerId = "5A5786DC-1B88-4A0B-9FB6-0051FAC2E168";
shapes = (
{
closed = 1;
nodes = (
(85,0,l),
(105,0,l),
(105,540,l),
(85,540,l)
);
},
{
closed = 1;
nodes = (
(495,0,l),
(514,0,l),
(514,315,ls),
(514,482,o),
(420,552,o),
(309,552,c),
(203,552,o),
(102,485,o),
(97,325,c),
(105,287,l),
(105,456,o),
(191,534,o),
(309,534,c),
(421,534,o),
(495,461,o),
(495,317,cs)
);
},
{
closed = 1;
nodes = (
(904,0,l),
(923,0,l),
(923,315,ls),
(923,482,o),
(829,552,o),
(718,552,c),
(611,552,o),
(509,485,o),
(504,325,c),
(514,287,l),
(514,456,o),
(600,534,o),
(718,534,c),
(830,534,o),
(904,461,o),
(904,317,cs)
);
}
);
width = 1003;
}
);
unicode = 109;
},
{
glyphname = n;
layers = (
{
layerId = "F6AEDC33-7BF1-40E1-A2D2-3CCCCC93695C";
shapes = (
{
closed = 1;
nodes = (
(50,0,l),
(272,0,l),
(272,564,l),
(50,564,l)
);
},
{
closed = 1;
nodes = (
(430,0,l),
(651,0,l),
(651,327,ls),
(651,473,o),
(575,568,o),
(445,568,cs),
(345,568,o),
(284,511,o),
(257,451,c),
(272,299,l),
(272,353,o),
(302,386,o),
(351,386,cs),
(399,386,o),
(430,353,o),
(430,299,cs)
);
}
);
width = 697;
},
{
anchors = (
{
name = bottom;
position = "{317, 0}";
},
{
name = top;
position = "{322, 548}";
}
);
layerId = "D00D5DE3-9836-4C68-A522-E01534F2A0A6";
shapes = (
{
closed = 1;
nodes = (
(77,0,l),
(168,0,l),
(168,548,l),
(77,548,l)
);
},
{
closed = 1;
nodes = (
(478,0,l),
(568,0,l),
(568,323,ls),
(568,480,o),
(471,558,o),
(344,558,cs),
(247,558,o),
(163,504,o),
(144,409,c),
(168,303,l),
(168,421,o),
(232,479,o),
(325,479,cs),
(417,479,o),
(478,422,o),
(478,310,cs)
);
}
);
width = 640;
},
{
layerId = "5A5786DC-1B88-4A0B-9FB6-0051FAC2E168";
shapes = (
{
closed = 1;
nodes = (
(85,0,l),
(105,0,l),
(105,540,l),
(85,540,l)
);
},
{
closed = 1;
nodes = (
(515,0,l),
(534,0,l),
(534,315,ls),
(534,482,o),
(435,552,o),
(317,552,c),
(207,552,o),
(102,485,o),
(97,325,c),
(105,287,l),
(105,456,o),
(194,534,o),
(317,534,c),
(436,534,o),
(515,461,o),
(515,317,cs)
);
}
);
width = 614;
}
);
unicode = 110;
},
{
glyphname = ncommaaccent;
layers = (
{
layerId = "F6AEDC33-7BF1-40E1-A2D2-3CCCCC93695C";
shapes = (
{
closed = 1;
nodes = (
(293,-35,l),
(293,-182,l),
(365,-182,l),
(365,-193,ls),
(365,-245,o),
(344,-268,o),
(310,-268,c),
(310,-346,l),
(423,-346,o),
(474,-266,o),
(474,-170,cs),
(474,-128,o),
(467,-82,o),
(449,-35,c)
);
},
{
alignment = -1;
ref = n;
}
);
width = 697;
},
{
layerId = "D00D5DE3-9836-4C68-A522-E01534F2A0A6";
shapes = (
{
closed = 1;
nodes = (
(289,-50,l),
(289,-127,l),
(335,-127,l),
(335,-136,ls),
(335,-175,o),
(320,-197,o),
(287,-197,c),
(287,-236,l),
(351,-236,o),
(388,-198,o),
(388,-118,cs),
(388,-98,o),
(384,-73,o),
(377,-50,c)
);
},
{
alignment = -1;
ref = n;
}
);
width = 643;
},
{
layerId = "5A5786DC-1B88-4A0B-9FB6-0051FAC2E168";
shapes = (
{
closed = 1;
nodes = (
(287,-59,l),
(287,-97,l),
(318,-97,l),
(318,-104,ls),
(318,-137,o),
(307,-158,o),
(275,-158,c),
(275,-176,l),
(311,-176,o),
(340,-161,o),
(340,-90,cs),
(340,-81,o),
(339,-68,o),
(338,-59,c)
);
},
{
alignment = -1;
ref = n;
}
);
width = 614;
}
);
unicode = 326;
},
{
glyphname = o;
layers = (
{
layerId = "F6AEDC33-7BF1-40E1-A2D2-3CCCCC93695C";
shapes = (
{
closed = 1;
nodes = (
(20,102,o),
(148,-7,o),
(318,-7,c),
(488,-7,o),
(616,102,o),
(616,282,c),
(616,462,o),
(488,571,o),
(318,571,c),
(148,571,o),
(20,462,o),
(20,282,c)
);
},
{
closed = 1;
nodes = (
(391,215,o),
(357,185,o),
(318,185,c),
(278,185,o),
(245,215,o),
(245,282,c),
(245,349,o),
(279,379,o),
(318,379,c),
(357,379,o),
(391,349,o),
(391,282,c)
);
}
);
width = 636;
},
{
layerId = "D00D5DE3-9836-4C68-A522-E01534F2A0A6";
shapes = (
{
closed = 1;
nodes = (
(46,98,o),
(165,-7,o),
(322,-7,cs),
(479,-7,o),
(597,98,o),
(597,274,cs),
(597,450,o),
(479,556,o),
(322,556,cs),
(165,556,o),
(46,450,o),
(46,274,cs)
);
},
{
closed = 1;
nodes = (
(505,135,o),
(416,73,o),
(322,73,cs),
(228,73,o),
(139,135,o),
(139,274,cs),
(139,414,o),
(228,476,o),
(322,476,cs),
(416,476,o),
(505,414,o),
(505,274,cs)
);
}
);
width = 643;
},
{
layerId = "5A5786DC-1B88-4A0B-9FB6-0051FAC2E168";
shapes = (
{
closed = 1;
nodes = (
(60,96,o),
(174,-7,o),
(324,-7,c),
(474,-7,o),
(587,96,o),
(587,270,c),
(587,444,o),
(474,547,o),
(324,547,c),
(174,547,o),
(60,444,o),
(60,270,c)
);
},
{
closed = 1;
nodes = (
(567,91,o),
(448,11,o),
(324,11,c),
(200,11,o),
(80,91,o),
(80,270,c),
(80,449,o),
(200,529,o),
(324,529,c),
(448,529,o),
(567,449,o),
(567,270,c)
);
}
);
width = 647;
}
);
unicode = 111;
},
{
glyphname = oslash;
layers = (
{
layerId = "F6AEDC33-7BF1-40E1-A2D2-3CCCCC93695C";
shapes = (
{
closed = 1;
nodes = (
(0,0,l),
(103,0,l),
(621,564,l),
(518,564,l)
);
},
{
alignment = -1;
pos = (-8,0);
ref = o;
}
);
width = 621;
},
{
layerId = "D00D5DE3-9836-4C68-A522-E01534F2A0A6";
shapes = (
{
closed = 1;
nodes = (
(45,0,l),
(95,0,l),
(595,549,l),
(544,549,l)
);
},
{
alignment = -1;
pos = (-3,0);
ref = o;
}
);
width = 638;
},
{
layerId = "5A5786DC-1B88-4A0B-9FB6-0051FAC2E168";
shapes = (
{
closed = 1;
nodes = (
(69,0,l),
(91,0,l),
(581,540,l),
(559,540,l)
);
},
{
alignment = -1;
ref = o;
}
);
width = 647;
}
);
unicode = 248;
},
{
glyphname = oe;
layers = (
{
layerId = "F6AEDC33-7BF1-40E1-A2D2-3CCCCC93695C";
shapes = (
{
closed = 1;
nodes = (
(20,102,o),
(148,-7,o),
(318,-7,c),
(390,-7,o),
(455,13,o),
(505,49,c),
(554,13,o),
(616,-7,o),
(688,-7,cs),
(830,-7,o),
(940,83,o),
(964,203,c),
(729,203,l),
(721,186,o),
(706,170,o),
(677,170,cs),
(613,170,o),
(616,235,o),
(616,282,cs),
(616,336,o),
(616,397,o),
(688,397,c),
(721,397,o),
(751,379,o),
(751,334,c),
(576,334,l),
(576,243,l),
(971,243,l),
(974,257,o),
(976,273,o),
(976,287,c),
(976,464,o),
(857,571,o),
(688,571,c),
(616,571,o),
(554,551,o),
(505,515,c),
(455,551,o),
(390,571,o),
(318,571,c),
(148,571,o),
(20,462,o),
(20,282,c)
);
},
{
closed = 1;
nodes = (
(245,349,o),
(279,379,o),
(318,379,c),
(357,379,o),
(391,349,o),
(391,282,c),
(391,215,o),
(357,185,o),
(318,185,c),
(278,185,o),
(245,215,o),
(245,282,c)
);
}
);
width = 1022;
},
{
layerId = "D00D5DE3-9836-4C68-A522-E01534F2A0A6";
shapes = (
{
closed = 1;
nodes = (
(43,104,o),
(160,-9,o),
(316,-9,cs),
(416,-9,o),
(503,41,o),
(548,126,c),
(589,41,o),
(671,-9,o),
(770,-9,cs),
(888,-9,o),
(989,52,o),
(1023,169,c),
(925,169,l),
(904,108,o),
(850,68,o),
(770,68,cs),
(647,68,o),
(595,161,o),
(595,274,cs),
(595,385,o),
(647,480,o),
(770,480,cs),
(866,480,o),
(943,415,o),
(943,306,c),
(582,306,l),
(582,243,l),
(1033,243,l),
(1036,260,o),
(1037,278,o),
(1037,297,cs),
(1037,445,o),
(930,557,o),
(774,557,cs),
(673,557,o),
(591,508,o),
(548,424,c),
(504,508,o),
(419,557,o),
(320,557,cs),
(150,557,o),
(46,437,o),
(43,275,c)
);
},
{
closed = 1;
nodes = (
(136,409,o),
(220,480,o),
(318,480,cs),
(417,480,o),
(503,409,o),
(503,275,cs),
(503,141,o),
(415,68,o),
(316,68,cs),
(218,68,o),
(136,140,o),
(136,275,cs)
);
}
);
width = 1080;
},
{
layerId = "5A5786DC-1B88-4A0B-9FB6-0051FAC2E168";
shapes = (
{
closed = 1;
nodes = (
(60,96,o),
(174,-7,o),
(324,-7,c),
(448,-7,o),
(546,63,o),
(577,185,c),
(607,63,o),
(703,-7,o),
(827,-7,cs),
(967,-7,o),
(1057,72,o),
(1075,183,c),
(1055,183,l),
(1038,76,o),
(947,11,o),
(827,11,cs),
(704,11,o),
(587,98,o),
(587,275,cs),
(587,451,o),
(704,529,o),
(827,529,cs),
(947,529,o),
(1067,453,o),
(1057,279,c),
(577,279,l),
(577,261,l),
(1071,261,l),
(1074,279,o),
(1075,289,o),
(1075,315,cs),
(1075,428,o),
(992,547,o),
(827,547,cs),
(703,547,o),
(607,477,o),
(577,355,c),
(546,477,o),
(448,547,o),
(324,547,c),
(174,547,o),
(60,444,o),
(60,270,c)
);
},
{
closed = 1;
nodes = (
(80,449,o),
(200,529,o),
(324,529,c),
(448,529,o),
(567,449,o),
(567,270,c),
(567,91,o),
(448,11,o),
(324,11,c),
(200,11,o),
(80,91,o),
(80,270,c)
);
}
);
width = 1135;
}
);
unicode = 339;
},
{
glyphname = p;
layers = (
{
layerId = "F6AEDC33-7BF1-40E1-A2D2-3CCCCC93695C";
shapes = (
{
closed = 1;
nodes = (
(272,564,l),
(50,564,l),
(50,-270,l),
(272,-270,l),
(272,77,l),
(299,26,o),
(352,-7,o),
(427,-7,c),
(557,-7,o),
(660,100,o),
(660,282,c),
(660,464,o),
(557,571,o),
(427,571,c),
(352,571,o),
(299,538,o),
(272,487,c)
);
},
{
closed = 1;
nodes = (
(435,220,o),
(399,187,o),
(353,187,c),
(307,187,o),
(271,220,o),
(271,282,c),
(271,344,o),
(307,377,o),
(353,377,c),
(399,377,o),
(435,344,o),
(435,282,c)
);
}
);
width = 680;
},
{
guides = (
{
position = "{0, 84}";
}
);
layerId = "D00D5DE3-9836-4C68-A522-E01534F2A0A6";
shapes = (
{
closed = 1;
nodes = (
(168,548,l),
(77,548,l),
(77,-260,l),
(168,-260,l),
(168,101,l),
(202,45,o),
(273,-9,o),
(373,-9,cs),
(520,-9,o),
(633,106,o),
(633,276,cs),
(633,447,o),
(520,557,o),
(373,557,cs),
(273,557,o),
(201,505,o),
(168,447,c)
);
},
{
closed = 1;
nodes = (
(540,147,o),
(455,71,o),
(354,71,cs),
(255,71,o),
(168,146,o),
(168,275,cs),
(168,402,o),
(255,478,o),
(354,478,cs),
(455,478,o),
(540,405,o),
(540,276,cs)
);
}
);
width = 676;
},
{
layerId = "5A5786DC-1B88-4A0B-9FB6-0051FAC2E168";
shapes = (
{
closed = 1;
nodes = (
(104,540,l),
(85,540,l),
(85,-254,l),
(104,-254,l),
(104,174,l),
(132,69,o),
(220,-7,o),
(348,-7,c),
(503,-7,o),
(611,98,o),
(611,270,c),
(611,442,o),
(503,547,o),
(348,547,c),
(220,547,o),
(132,471,o),
(104,366,c)
);
},
{
closed = 1;
nodes = (
(591,109,o),
(496,11,o),
(348,11,c),
(207,11,o),
(104,114,o),
(104,270,c),
(104,426,o),
(207,529,o),
(348,529,c),
(496,529,o),
(591,431,o),
(591,270,c)
);
}
);
width = 671;
}
);
unicode = 112;
},
{
glyphname = thorn;
layers = (
{
layerId = "F6AEDC33-7BF1-40E1-A2D2-3CCCCC93695C";
shapes = (
{
closed = 1;
nodes = (
(272,740,l),
(50,740,l),
(50,-270,l),
(272,-270,l),
(272,62,l),
(310,16,o),
(352,-6,o),
(411,-6,cs),
(545,-6,o),
(660,108,o),
(660,278,cs),
(660,448,o),
(545,568,o),
(411,568,cs),
(352,568,o),
(309,554,o),
(272,514,c)
);
},
{
closed = 1;
nodes = (
(435,206,o),
(387,187,o),
(354,187,cs),
(320,187,o),
(272,210,o),
(272,282,cs),
(272,354,o),
(320,376,o),
(354,376,cs),
(387,376,o),
(435,350,o),
(435,278,cs)
);
}
);
width = 680;
},
{
layerId = "D00D5DE3-9836-4C68-A522-E01534F2A0A6";
shapes = (
{
closed = 1;
nodes = (
(164,740,l),
(73,740,l),
(73,-260,l),
(164,-260,l),
(164,134,l),
(195,50,o),
(267,-7,o),
(370,-7,cs),
(518,-7,o),
(628,102,o),
(628,273,cs),
(628,444,o),
(518,554,o),
(370,554,cs),
(267,554,o),
(195,500,o),
(164,419,c)
);
},
{
closed = 1;
nodes = (
(536,143,o),
(457,73,o),
(350,73,cs),
(247,73,o),
(164,148,o),
(164,274,cs),
(164,400,o),
(247,475,o),
(350,475,cs),
(457,475,o),
(536,402,o),
(536,273,cs)
);
}
);
width = 674;
},
{
layerId = "5A5786DC-1B88-4A0B-9FB6-0051FAC2E168";
shapes = (
{
closed = 1;
nodes = (
(104,740,l),
(85,740,l),
(85,-254,l),
(104,-254,l),
(104,174,l),
(132,69,o),
(220,-7,o),
(348,-7,c),
(503,-7,o),
(611,98,o),
(611,270,c),
(611,442,o),
(503,547,o),
(348,547,c),
(220,547,o),
(132,471,o),
(104,366,c)
);
},
{
closed = 1;
nodes = (
(591,109,o),
(496,11,o),
(348,11,c),
(207,11,o),
(104,114,o),
(104,270,c),
(104,426,o),
(207,529,o),
(348,529,c),
(496,529,o),
(591,431,o),
(591,270,c)
);
}
);
width = 671;
}
);
unicode = 254;
},
{
glyphname = q;
layers = (
{
layerId = "F6AEDC33-7BF1-40E1-A2D2-3CCCCC93695C";
shapes = (
{
closed = 1;
nodes = (
(20,108,o),
(136,-6,o),
(269,-6,cs),
(327,-6,o),
(369,16,o),
(409,62,c),
(409,-270,l),
(630,-270,l),
(630,564,l),
(409,564,l),
(409,514,l),
(372,554,o),
(327,568,o),
(269,568,cs),
(136,568,o),
(20,448,o),
(20,278,cs)
);
},
{
closed = 1;
nodes = (
(409,210,o),
(360,187,o),
(327,187,cs),
(294,187,o),
(245,206,o),
(245,278,cs),
(245,350,o),
(294,376,o),
(327,376,cs),
(360,376,o),
(409,354,o),
(409,282,cs)
);
}
);
width = 680;
},
{
guides = (
{
position = "{0, 84}";
}
);
layerId = "D00D5DE3-9836-4C68-A522-E01534F2A0A6";
shapes = (
{
closed = 1;
nodes = (
(43,106,o),
(156,-9,o),
(301,-9,cs),
(403,-9,o),
(476,45,o),
(507,101,c),
(507,-260,l),
(599,-260,l),
(599,548,l),
(507,548,l),
(507,448,l),
(476,505,o),
(404,557,o),
(304,557,cs),
(156,557,o),
(43,447,o),
(43,276,cs)
);
},
{
closed = 1;
nodes = (
(507,146,o),
(421,71,o),
(321,71,cs),
(221,71,o),
(136,147,o),
(136,276,cs),
(136,405,o),
(221,478,o),
(321,478,cs),
(421,478,o),
(507,402,o),
(507,275,cs)
);
}
);
width = 676;
},
{
layerId = "5A5786DC-1B88-4A0B-9FB6-0051FAC2E168";
shapes = (
{
closed = 1;
nodes = (
(60,98,o),
(168,-7,o),
(323,-7,c),
(451,-7,o),
(539,69,o),
(567,174,c),
(567,-254,l),
(586,-254,l),
(586,540,l),
(567,540,l),
(567,366,l),
(539,471,o),
(451,547,o),
(323,547,c),
(168,547,o),
(60,442,o),
(60,270,c)
);
},
{
closed = 1;
nodes = (
(567,114,o),
(464,11,o),
(323,11,c),
(175,11,o),
(80,109,o),
(80,270,c),
(80,431,o),
(175,529,o),
(323,529,c),
(464,529,o),
(567,426,o),
(567,270,c)
);
}
);
width = 671;
}
);
unicode = 113;
},
{
glyphname = r;
layers = (
{
layerId = "F6AEDC33-7BF1-40E1-A2D2-3CCCCC93695C";
shapes = (
{
closed = 1;
nodes = (
(272,231,l),
(272,308,o),
(314,331,o),
(394,331,cs),
(457,331,l),
(457,568,l),
(327,568,o),
(217,428,o),
(217,291,c)
);
},
{
closed = 1;
nodes = (
(50,0,l),
(272,0,l),
(272,564,l),
(50,564,l)
);
}
);
width = 467;
},
{
anchors = (
{
name = bottom;
position = "{124, 0}";
},
{
name = top;
position = "{231, 548}";
}
);
layerId = "D00D5DE3-9836-4C68-A522-E01534F2A0A6";
shapes = (
{
closed = 1;
nodes = (
(168,298,l),
(168,425,o),
(234,464,o),
(321,464,cs),
(345,464,l),
(345,558,l),
(208,558,o),
(141,464,o),
(141,333,c)
);
},
{
closed = 1;
nodes = (
(77,0,l),
(168,0,l),
(168,548,l),
(77,548,l)
);
}
);
width = 373;
},
{
layerId = "5A5786DC-1B88-4A0B-9FB6-0051FAC2E168";
shapes = (
{
closed = 1;
nodes = (
(105,321,l),
(105,481,o),
(212,530,o),
(309,530,cs),
(318,530,l),
(318,552,l),
(171,552,o),
(98,479,o),
(98,341,c)
);
},
{
closed = 1;
nodes = (
(85,0,l),
(105,0,l),
(105,540,l),
(85,540,l)
);
}
);
width = 338;
}
);
unicode = 114;
},
{
glyphname = rcommaaccent;
layers = (
{
layerId = "F6AEDC33-7BF1-40E1-A2D2-3CCCCC93695C";
shapes = (
{
closed = 1;
nodes = (
(80,-35,l),
(80,-182,l),
(152,-182,l),
(152,-193,ls),
(152,-245,o),
(131,-268,o),
(97,-268,c),
(97,-346,l),
(210,-346,o),
(261,-266,o),
(261,-170,cs),
(261,-128,o),
(254,-82,o),
(236,-35,c)
);
},
{
alignment = -1;
ref = r;
}
);
width = 467;
},
{
layerId = "D00D5DE3-9836-4C68-A522-E01534F2A0A6";
shapes = (
{
closed = 1;
nodes = (
(72,-50,l),
(72,-127,l),
(117,-127,l),
(117,-136,ls),
(117,-175,o),
(103,-197,o),
(70,-197,c),
(70,-236,l),
(133,-236,o),
(170,-198,o),
(170,-118,cs),
(170,-98,o),
(167,-73,o),
(160,-50,c)
);
},
{
alignment = -1;
ref = r;
}
);
width = 384;
},
{
layerId = "5A5786DC-1B88-4A0B-9FB6-0051FAC2E168";
shapes = (
{
closed = 1;
nodes = (
(67,-59,l),
(67,-97,l),
(98,-97,l),
(98,-104,ls),
(98,-137,o),
(87,-158,o),
(55,-158,c),
(55,-176,l),
(91,-176,o),
(120,-161,o),
(120,-90,cs),
(120,-81,o),
(119,-68,o),
(118,-59,c)
);
},
{
alignment = -1;
ref = r;
}
);
width = 338;
}
);
unicode = 343;
},
{
glyphname = s;
layers = (
{
layerId = "F6AEDC33-7BF1-40E1-A2D2-3CCCCC93695C";
shapes = (
{
closed = 1;
nodes = (
(36,176,o),
(347,246,o),
(347,170,c),
(347,155,o),
(336,146,o),
(313,146,cs),
(280,146,o),
(249,156,o),
(244,195,c),
(31,195,l),
(53,64,o),
(151,-7,o),
(314,-7,c),
(464,-7,o),
(551,65,o),
(551,165,c),
(551,382,o),
(236,323,o),
(236,393,c),
(236,409,o),
(246,417,o),
(267,417,c),
(297,417,o),
(325,405,o),
(335,369,c),
(542,369,l),
(519,483,o),
(433,571,o),
(272,571,c),
(115,571,o),
(36,493,o),
(36,394,c)
);
}
);
width = 579;
},
{
layerId = "D00D5DE3-9836-4C68-A522-E01534F2A0A6";
shapes = (
{
closed = 1;
nodes = (
(58,204,o),
(382,270,o),
(382,149,cs),
(382,102,o),
(339,68,o),
(270,68,cs),
(195,68,o),
(146,106,o),
(141,161,c),
(47,161,l),
(53,61,o),
(144,-9,o),
(271,-9,cs),
(390,-9,o),
(471,59,o),
(471,149,c),
(468,344,o),
(157,271,o),
(149,404,c),
(149,449,o),
(191,480,o),
(256,480,cs),
(327,480,o),
(371,442,o),
(375,385,c),
(466,385,l),
(461,492,o),
(380,557,o),
(259,557,cs),
(139,557,o),
(58,488,o),
(58,404,cs)
);
}
);
width = 517;
},
{
layerId = "5A5786DC-1B88-4A0B-9FB6-0051FAC2E168";
shapes = (
{
closed = 1;
nodes = (
(66,206,o),
(403,321,o),
(403,133,c),
(403,64,o),
(355,11,o),
(267,11,cs),
(149,11,o),
(88,80,o),
(80,158,c),
(60,158,l),
(72,57,o),
(152,-7,o),
(266,-7,cs),
(360,-7,o),
(423,51,o),
(423,133,c),
(423,342,o),
(86,226,o),
(86,407,c),
(86,479,o),
(139,529,o),
(230,529,cs),
(338,529,o),
(391,458,o),
(399,382,c),
(419,382,l),
(407,483,o),
(338,547,o),
(230,547,cs),
(132,547,o),
(66,493,o),
(66,407,c)
);
}
);
width = 483;
}
);
unicode = 115;
},
{
glyphname = scommaaccent;
layers = (
{
layerId = "F6AEDC33-7BF1-40E1-A2D2-3CCCCC93695C";
shapes = (
{
closed = 1;
nodes = (
(208,-35,l),
(208,-182,l),
(280,-182,l),
(280,-193,ls),
(280,-245,o),
(259,-268,o),
(225,-268,c),
(225,-346,l),
(338,-346,o),
(389,-266,o),
(389,-170,cs),
(389,-128,o),
(382,-82,o),
(364,-35,c)
);
},
{
alignment = -1;
ref = s;
}
);
width = 579;
},
{
layerId = "D00D5DE3-9836-4C68-A522-E01534F2A0A6";
shapes = (
{
closed = 1;
nodes = (
(227,-50,l),
(227,-127,l),
(272,-127,l),
(272,-136,ls),
(272,-175,o),
(258,-197,o),
(225,-197,c),
(225,-236,l),
(288,-236,o),
(325,-198,o),
(325,-118,cs),
(325,-98,o),
(322,-73,o),
(315,-50,c)
);
},
{
alignment = -1;
ref = s;
}
);
width = 517;
},
{
layerId = "5A5786DC-1B88-4A0B-9FB6-0051FAC2E168";
shapes = (
{
closed = 1;
nodes = (
(237,-59,l),
(237,-97,l),
(268,-97,l),
(268,-104,ls),
(268,-137,o),
(257,-158,o),
(225,-158,c),
(225,-176,l),
(261,-176,o),
(290,-161,o),
(290,-90,cs),
(290,-81,o),
(289,-68,o),
(288,-59,c)
);
},
{
alignment = -1;
ref = s;
}
);
width = 483;
}
);
unicode = 537;
},
{
glyphname = germandbls;
layers = (
{
layerId = "F6AEDC33-7BF1-40E1-A2D2-3CCCCC93695C";
shapes = (
{
closed = 1;
nodes = (
(50,0,l),
(272,0,l),
(270,476,ls),
(270,525,o),
(299,548,o),
(333,548,c),
(369,548,o),
(389,522,o),
(389,489,cs),
(389,470,o),
(382,454,o),
(360,438,cs),
(349,430,l),
(349,346,l),
(493,272,ls),
(533,252,o),
(548,241,o),
(548,215,cs),
(548,199,o),
(540,186,o),
(521,186,c),
(508,186,o),
(492,193,o),
(487,219,c),
(307,219,l),
(309,82,o),
(383,-6,o),
(543,-6,cs),
(682,-6,o),
(763,85,o),
(763,197,cs),
(763,302,o),
(716,361,o),
(601,423,cs),
(490,483,l),
(419,401,l),
(492,428,ls),
(588,464,o),
(616,511,o),
(616,573,cs),
(616,661,o),
(534,750,o),
(360,750,cs),
(157,750,o),
(50,652,o),
(50,428,cs)
);
}
);
width = 773;
},
{
layerId = "D00D5DE3-9836-4C68-A522-E01534F2A0A6";
shapes = (
{
closed = 1;
nodes = (
(73,0,l),
(164,0,l),
(164,548,l),
(164,622,o),
(208,667,o),
(279,667,cs),
(343,667,o),
(384,621,o),
(384,557,cs),
(384,513,o),
(365,483,o),
(321,460,cs),
(288,443,l),
(288,402,l),
(445,304,l),
(515,259,o),
(535,221,o),
(535,170,cs),
(535,122,o),
(503,70,o),
(427,70,cs),
(353,70,o),
(318,117,o),
(316,182,c),
(239,182,l),
(240,61,o),
(312,-10,o),
(435,-10,cs),
(548,-10,o),
(624,65,o),
(624,163,cs),
(624,252,o),
(585,311,o),
(486,371,c),
(350,457,l),
(323,425,l),
(373,446,ls),
(447,479,o),
(477,526,o),
(477,587,cs),
(477,683,o),
(402,750,o),
(288,750,cs),
(154,750,o),
(73,677,o),
(73,531,cs)
);
}
);
width = 654;
},
{
layerId = "5A5786DC-1B88-4A0B-9FB6-0051FAC2E168";
shapes = (
{
closed = 1;
nodes = (
(85,0,l),
(105,0,l),
(105,588,ls),
(105,676,o),
(158,732,o),
(249,732,c),
(328,732,o),
(381,676,o),
(381,595,c),
(381,536,o),
(355,499,o),
(299,472,cs),
(254,450,l),
(254,433,l),
(418,322,ls),
(505,263,o),
(528,210,o),
(528,145,cs),
(528,79,o),
(482,6,o),
(376,6,cs),
(268,6,o),
(222,75,o),
(222,161,c),
(202,161,l),
(202,50,o),
(273,-12,o),
(376,-12,cs),
(475,-12,o),
(548,54,o),
(548,145,cs),
(548,225,o),
(513,283,o),
(423,343,cs),
(273,443,l),
(270,438,l),
(307,456,ls),
(370,487,o),
(401,534,o),
(401,595,c),
(401,695,o),
(330,750,o),
(249,750,c),
(152,750,o),
(85,690,o),
(85,588,cs)
);
}
);
width = 588;
}
);
unicode = 223;
},
{
glyphname = t;
layers = (
{
layerId = "F6AEDC33-7BF1-40E1-A2D2-3CCCCC93695C";
shapes = (
{
closed = 1;
nodes = (
(85,231,ls),
(85,56,o),
(185,0,o),
(317,0,cs),
(401,0,l),
(401,189,l),
(348,189,ls),
(319,189,o),
(307,201,o),
(307,227,cs),
(307,700,l),
(85,700,l)
);
},
{
closed = 1;
nodes = (
(399,379,l),
(399,564,l),
(15,564,l),
(15,379,l)
);
}
);
width = 436;
},
{
layerId = "D00D5DE3-9836-4C68-A522-E01534F2A0A6";
shapes = (
{
closed = 1;
nodes = (
(100,174,ls),
(100,44,o),
(160,0,o),
(267,0,cs),
(335,0,l),
(335,80,l),
(279,80,ls),
(216,80,o),
(192,100,o),
(192,172,cs),
(192,686,l),
(100,686,l)
);
},
{
closed = 1;
nodes = (
(334,470,l),
(334,549,l),
(18,549,l),
(18,470,l)
);
}
);
width = 373;
},
{
layerId = "5A5786DC-1B88-4A0B-9FB6-0051FAC2E168";
shapes = (
{
closed = 1;
nodes = (
(108,142,ls),
(108,37,o),
(147,0,o),
(239,0,cs),
(298,0,l),
(298,20,l),
(241,20,ls),
(159,20,o),
(128,45,o),
(128,142,cs),
(128,678,l),
(108,678,l)
);
},
{
closed = 1;
nodes = (
(298,520,l),
(298,540,l),
(20,540,l),
(20,520,l)
);
}
);
width = 338;
}
);
unicode = 116;
},
{
glyphname = tcaron;
layers = (
{
layerId = "F6AEDC33-7BF1-40E1-A2D2-3CCCCC93695C";
shapes = (
{
closed = 1;
nodes = (
(338,890,l),
(338,744,l),
(410,744,l),
(410,727,ls),
(410,701,o),
(390,688,o),
(355,688,c),
(355,609,l),
(469,609,o),
(520,678,o),
(520,766,cs),
(520,808,o),
(512,844,o),
(494,890,c)
);
},
{
alignment = -1;
ref = t;
}
);
width = 436;
},
{
layerId = "D00D5DE3-9836-4C68-A522-E01534F2A0A6";
shapes = (
{
closed = 1;
nodes = (
(250,793,l),
(250,707,l),
(300,707,l),
(300,682,ls),
(300,655,o),
(287,640,o),
(252,640,c),
(252,599,l),
(318,599,o),
(354,633,o),
(354,705,cs),
(354,731,o),
(350,758,o),
(342,793,c)
);
},
{
alignment = -1;
ref = t;
}
);
width = 373;
},
{
layerId = "5A5786DC-1B88-4A0B-9FB6-0051FAC2E168";
shapes = (
{
closed = 1;
nodes = (
(202,740,l),
(202,687,l),
(240,687,l),
(240,658,ls),
(240,629,o),
(230,613,o),
(195,613,c),
(195,593,l),
(235,593,o),
(262,608,o),
(262,671,cs),
(262,689,o),
(261,711,o),
(258,740,c)
);
},
{
alignment = -1;
ref = t;
}
);
width = 338;
}
);
unicode = 357;
},
{
glyphname = tcommaaccent;
layers = (
{
layerId = "F6AEDC33-7BF1-40E1-A2D2-3CCCCC93695C";
shapes = (
{
closed = 1;
nodes = (
(147,-35,l),
(147,-182,l),
(219,-182,l),
(219,-193,ls),
(219,-245,o),
(199,-268,o),
(164,-268,c),
(164,-346,l),
(278,-346,o),
(329,-266,o),
(329,-170,cs),
(329,-128,o),
(321,-82,o),
(303,-35,c)
);
},
{
alignment = -1;
ref = t;
}
);
width = 436;
},
{
layerId = "D00D5DE3-9836-4C68-A522-E01534F2A0A6";
shapes = (
{
closed = 1;
nodes = (
(166,-50,l),
(166,-127,l),
(212,-127,l),
(212,-136,ls),
(212,-175,o),
(198,-197,o),
(165,-197,c),
(165,-236,l),
(228,-236,o),
(265,-198,o),
(265,-118,cs),
(265,-98,o),
(262,-73,o),
(255,-50,c)
);
},
{
alignment = -1;
ref = t;
}
);
width = 373;
},
{
layerId = "5A5786DC-1B88-4A0B-9FB6-0051FAC2E168";
shapes = (
{
closed = 1;
nodes = (
(177,-59,l),
(177,-97,l),
(208,-97,l),
(208,-104,ls),
(208,-137,o),
(197,-158,o),
(165,-158,c),
(165,-176,l),
(201,-176,o),
(230,-161,o),
(230,-90,cs),
(230,-81,o),
(229,-68,o),
(228,-59,c)
);
},
{
alignment = -1;
ref = t;
}
);
width = 338;
}
);
unicode = 539;
},
{
glyphname = u;
layers = (
{
layerId = "F6AEDC33-7BF1-40E1-A2D2-3CCCCC93695C";
shapes = (
{
closed = 1;
nodes = (
(647,564,l),
(425,564,l),
(425,0,l),
(647,0,l)
);
},
{
closed = 1;
nodes = (
(267,564,l),
(46,564,l),
(46,237,ls),
(46,91,o),
(122,-4,o),
(252,-4,cs),
(352,-4,o),
(413,53,o),
(440,113,c),
(425,265,l),
(425,211,o),
(395,178,o),
(346,178,cs),
(298,178,o),
(267,211,o),
(267,265,cs)
);
}
);
width = 697;
},
{
anchors = (
{
name = ogonek;
position = "{563, -1}";
},
{
name = top;
position = "{321, 548}";
}
);
layerId = "D00D5DE3-9836-4C68-A522-E01534F2A0A6";
shapes = (
{
closed = 1;
nodes = (
(563,548,l),
(472,548,l),
(472,0,l),
(563,0,l)
);
},
{
closed = 1;
nodes = (
(162,548,l),
(72,548,l),
(72,227,ls),
(72,70,o),
(171,-8,o),
(297,-8,cs),
(392,-8,o),
(477,46,o),
(495,140,c),
(472,247,l),
(472,129,o),
(409,71,o),
(315,71,cs),
(223,71,o),
(162,128,o),
(162,239,cs)
);
}
);
width = 640;
},
{
layerId = "5A5786DC-1B88-4A0B-9FB6-0051FAC2E168";
shapes = (
{
closed = 1;
nodes = (
(514,540,l),
(494,540,l),
(494,0,l),
(514,0,l)
);
},
{
closed = 1;
nodes = (
(84,540,l),
(65,540,l),
(65,225,ls),
(65,58,o),
(164,-12,o),
(282,-12,c),
(392,-12,o),
(497,55,o),
(502,215,c),
(494,253,l),
(494,84,o),
(405,6,o),
(282,6,c),
(163,6,o),
(84,79,o),
(84,223,cs)
);
}
);
width = 599;
}
);
unicode = 117;
},
{
glyphname = v;
layers = (
{
layerId = "F6AEDC33-7BF1-40E1-A2D2-3CCCCC93695C";
shapes = (
{
closed = 1;
nodes = (
(9,564,l),
(197,0,l),
(474,0,l),
(662,564,l),
(426,564,l),
(336,211,l),
(245,564,l)
);
}
);
width = 671;
},
{
layerId = "D00D5DE3-9836-4C68-A522-E01534F2A0A6";
shapes = (
{
closed = 1;
nodes = (
(16,549,l),
(231,0,l),
(339,0,l),
(554,549,l),
(456,549,l),
(286,97,l),
(114,549,l)
);
}
);
width = 570;
},
{
layerId = "5A5786DC-1B88-4A0B-9FB6-0051FAC2E168";
shapes = (
{
closed = 1;
nodes = (
(20,540,l),
(250,0,l),
(265,0,l),
(495,540,l),
(473,540,l),
(258,35,l),
(42,540,l)
);
}
);
width = 515;
}
);
unicode = 118;
},
{
glyphname = w;
layers = (
{
layerId = "F6AEDC33-7BF1-40E1-A2D2-3CCCCC93695C";
shapes = (
{
closed = 1;
nodes = (
(132,0,l),
(382,0,l),
(474,409,l),
(434,409,l),
(522,0,l),
(772,0,l),
(906,564,l),
(701,564,l),
(633,72,l),
(685,72,l),
(576,564,l),
(339,564,l),
(235,72,l),
(287,72,l),
(219,564,l),
(-1,564,l)
);
}
);
width = 903;
},
{
layerId = "D00D5DE3-9836-4C68-A522-E01534F2A0A6";
shapes = (
{
closed = 1;
nodes = (
(169,0,l),
(268,0,l),
(433,486,l),
(406,487,l),
(571,0,l),
(669,0,l),
(827,549,l),
(740,549,l),
(608,34,l),
(640,34,l),
(469,549,l),
(374,549,l),
(205,34,l),
(236,34,l),
(105,549,l),
(13,549,l)
);
}
);
width = 839;
},
{
layerId = "5A5786DC-1B88-4A0B-9FB6-0051FAC2E168";
shapes = (
{
closed = 1;
nodes = (
(190,0,l),
(205,0,l),
(411,528,l),
(391,530,l),
(598,0,l),
(613,0,l),
(783,540,l),
(761,540,l),
(595,13,l),
(615,13,l),
(410,540,l),
(393,540,l),
(188,13,l),
(208,13,l),
(42,540,l),
(20,540,l)
);
}
);
width = 803;
}
);
unicode = 119;
},
{
glyphname = x;
layers = (
{
layerId = "F6AEDC33-7BF1-40E1-A2D2-3CCCCC93695C";
shapes = (
{
closed = 1;
nodes = (
(420,0,l),
(668,0,l),
(248,564,l),
(0,564,l)
);
},
{
closed = 1;
nodes = (
(249,375,l),
(10,0,l),
(254,0,l),
(373,213,l)
);
},
{
closed = 1;
nodes = (
(420,209,l),
(659,564,l),
(415,564,l),
(306,371,l)
);
}
);
width = 668;
},
{
layerId = "D00D5DE3-9836-4C68-A522-E01534F2A0A6";
shapes = (
{
closed = 1;
nodes = (
(389,0,l),
(493,0,l),
(119,549,l),
(15,549,l)
);
},
{
closed = 1;
nodes = (
(217,316,l),
(16,0,l),
(117,0,l),
(268,245,l)
);
},
{
closed = 1;
nodes = (
(285,240,l),
(486,549,l),
(385,549,l),
(238,312,l)
);
}
);
width = 505;
},
{
layerId = "5A5786DC-1B88-4A0B-9FB6-0051FAC2E168";
shapes = (
{
closed = 1;
nodes = (
(372,0,l),
(396,0,l),
(48,540,l),
(24,540,l)
);
},
{
closed = 1;
nodes = (
(200,284,l),
(20,0,l),
(42,0,l),
(210,262,l)
);
},
{
closed = 1;
nodes = (
(211,257,l),
(391,540,l),
(369,540,l),
(200,279,l)
);
}
);
width = 416;
}
);
unicode = 120;
},
{
glyphname = y;
layers = (
{
layerId = "F6AEDC33-7BF1-40E1-A2D2-3CCCCC93695C";
shapes = (
{
closed = 1;
nodes = (
(225,28,l),
(83,-270,l),
(326,-270,l),
(687,564,l),
(442,564,l),
(343,278,l),
(237,564,l),
(-10,564,l)
);
}
);
width = 677;
},
{
layerId = "D00D5DE3-9836-4C68-A522-E01534F2A0A6";
shapes = (
{
closed = 1;
nodes = (
(240,9,l),
(126,-260,l),
(229,-260,l),
(555,549,l),
(454,549,l),
(289,117,l),
(111,549,l),
(9,549,l)
);
}
);
width = 565;
},
{
layerId = "5A5786DC-1B88-4A0B-9FB6-0051FAC2E168";
shapes = (
{
closed = 1;
nodes = (
(249,-1,l),
(150,-254,l),
(175,-254,l),
(483,540,l),
(461,540,l),
(260,29,l),
(42,540,l),
(20,540,l)
);
}
);
width = 503;
}
);
unicode = 121;
},
{
glyphname = z;
layers = (
{
layerId = "F6AEDC33-7BF1-40E1-A2D2-3CCCCC93695C";
shapes = (
{
closed = 1;
nodes = (
(488,564,l),
(23,564,l),
(23,380,l),
(235,380,l),
(20,174,l),
(20,0,l),
(498,0,l),
(498,184,l),
(263,184,l),
(488,390,l)
);
}
);
width = 518;
},
{
layerId = "D00D5DE3-9836-4C68-A522-E01534F2A0A6";
shapes = (
{
closed = 1;
nodes = (
(410,549,l),
(34,549,l),
(34,472,l),
(306,472,l),
(26,73,l),
(26,0,l),
(420,0,l),
(420,77,l),
(126,77,l),
(410,475,l)
);
}
);
width = 446;
},
{
layerId = "5A5786DC-1B88-4A0B-9FB6-0051FAC2E168";
shapes = (
{
closed = 1;
nodes = (
(367,540,l),
(40,540,l),
(40,522,l),
(345,522,l),
(30,18,l),
(30,0,l),
(377,0,l),
(377,18,l),
(51,18,l),
(367,522,l)
);
}
);
width = 407;
}
);
unicode = 122;
},
{
glyphname = fi;
layers = (
{
layerId = "F6AEDC33-7BF1-40E1-A2D2-3CCCCC93695C";
shapes = (
{
closed = 1;
nodes = (
(70,0,l),
(292,0,l),
(292,539,ls),
(292,595,o),
(310,610,o),
(361,604,c),
(361,793,l),
(177,809,o),
(70,722,o),
(70,559,cs)
);
},
{
closed = 1;
nodes = (
(605,589,o),
(654,632,o),
(654,694,cs),
(654,755,o),
(605,799,o),
(527,799,cs),
(448,799,o),
(399,755,o),
(399,694,cs),
(399,632,o),
(448,589,o),
(527,589,cs)
);
},
{
closed = 1;
nodes = (
(10,564,l),
(10,379,l),
(415,379,l),
(415,0,l),
(637,0,l),
(637,564,l)
);
}
);
width = 712;
},
{
layerId = "D00D5DE3-9836-4C68-A522-E01534F2A0A6";
shapes = (
{
closed = 1;
nodes = (
(95,0,l),
(186,0,l),
(186,564,ls),
(186,647,o),
(216,681,o),
(311,679,c),
(311,759,l),
(161,764,o),
(95,697,o),
(95,571,cs)
);
},
{
closed = 1;
nodes = (
(488,646,o),
(513,668,o),
(513,701,cs),
(513,734,o),
(488,756,o),
(452,756,cs),
(414,756,o),
(389,734,o),
(389,701,cs),
(389,668,o),
(414,646,o),
(452,646,cs)
);
},
{
closed = 1;
nodes = (
(18,549,l),
(18,469,l),
(405,469,l),
(405,0,l),
(496,0,l),
(496,549,l)
);
}
);
width = 571;
},
{
layerId = "5A5786DC-1B88-4A0B-9FB6-0051FAC2E168";
shapes = (
{
closed = 1;
nodes = (
(108,0,l),
(128,0,l),
(128,578,ls),
(128,675,o),
(164,720,o),
(283,720,c),
(283,740,l),
(152,740,o),
(108,683,o),
(108,578,cs)
);
},
{
closed = 1;
nodes = (
(424,678,o),
(436,688,o),
(436,705,cs),
(436,722,o),
(424,732,o),
(410,732,c),
(396,732,o),
(384,722,o),
(384,705,cs),
(384,688,o),
(396,678,o),
(410,678,c)
);
},
{
closed = 1;
nodes = (
(22,540,l),
(22,519,l),
(399,519,l),
(399,0,l),
(419,0,l),
(419,540,l)
);
}
);
width = 494;
}
);
unicode = 64257;
},
{
glyphname = fl;
layers = (
{
layerId = "F6AEDC33-7BF1-40E1-A2D2-3CCCCC93695C";
shapes = (
{
closed = 1;
nodes = (
(70,0,l),
(292,0,l),
(292,539,ls),
(292,591,o),
(311,605,o),
(364,605,cs),
(431,605,o),
(541,587,o),
(632,559,c),
(632,740,l),
(533,770,o),
(432,796,o),
(330,796,cs),
(165,796,o),
(70,710,o),
(70,559,cs)
);
},
{
closed = 1;
nodes = (
(10,379,l),
(375,379,l),
(375,564,l),
(10,564,l)
);
},
{
closed = 1;
nodes = (
(410,0,l),
(632,0,l),
(632,740,l),
(410,740,l)
);
}
);
width = 682;
},
{
layerId = "D00D5DE3-9836-4C68-A522-E01534F2A0A6";
shapes = (
{
closed = 1;
nodes = (
(95,0,l),
(186,0,l),
(186,564,ls),
(186,642,o),
(213,679,o),
(298,679,cs),
(365,679,o),
(434,668,o),
(501,661,c),
(501,740,l),
(434,747,o),
(365,759,o),
(298,759,cs),
(158,759,o),
(95,692,o),
(95,571,cs)
);
},
{
closed = 1;
nodes = (
(16,469,l),
(316,469,l),
(316,549,l),
(16,549,l)
);
},
{
closed = 1;
nodes = (
(410,0,l),
(501,0,l),
(501,740,l),
(410,740,l)
);
}
);
width = 561;
},
{
layerId = "5A5786DC-1B88-4A0B-9FB6-0051FAC2E168";
shapes = (
{
closed = 1;
nodes = (
(108,0,l),
(128,0,l),
(128,578,ls),
(128,688,o),
(180,720,o),
(283,720,cs),
(287,720,o),
(291,720,o),
(429,720,c),
(429,740,l),
(385,740,o),
(339,740,o),
(267,740,cs),
(148,740,o),
(108,679,o),
(108,578,cs)
);
},
{
closed = 1;
nodes = (
(20,519,l),
(283,519,l),
(283,540,l),
(20,540,l)
);
},
{
closed = 1;
nodes = (
(409,0,l),
(429,0,l),
(429,740,l),
(409,740,l)
);
}
);
width = 494;
}
);
unicode = 64258;
},
{
color = (255, 153, 153, 255);
glyphname = ordfeminine;
layers = (
{
layerId = "F6AEDC33-7BF1-40E1-A2D2-3CCCCC93695C";
shapes = (
{
closed = 1;
nodes = (
(12,411,o),
(59,380,o),
(116,380,cs),
(156,380,o),
(197,396,o),
(214,430,c),
(214,386,l),
(341,386,l),
(341,577,ls),
(341,659,o),
(277,715,o),
(180,715,cs),
(96,715,o),
(33,662,o),
(16,590,c),
(144,590,l),
(150,603,o),
(162,613,o),
(179,613,cs),
(201,613,o),
(213,599,o),
(213,572,c),
(158,572,ls),
(59,572,o),
(12,533,o),
(12,473,cs)
);
},
{
closed = 1;
nodes = (
(140,509,o),
(154,520,o),
(177,520,cs),
(213,520,l),
(213,513,ls),
(213,489,o),
(192,468,o),
(167,468,cs),
(151,468,o),
(140,477,o),
(140,493,cs)
);
}
);
width = 370;
},
{
layerId = "D00D5DE3-9836-4C68-A522-E01534F2A0A6";
shapes = (
{
closed = 1;
nodes = (
(23,427,o),
(68,388,o),
(129,388,cs),
(174,388,o),
(221,409,o),
(242,449,c),
(242,394,l),
(304,394,l),
(304,580,ls),
(304,664,o),
(247,715,o),
(169,715,cs),
(95,715,o),
(43,672,o),
(31,599,c),
(91,599,l),
(98,639,o),
(127,663,o),
(168,663,cs),
(213,663,o),
(240,632,o),
(242,581,c),
(150,581,ls),
(67,581,o),
(23,539,o),
(23,482,cs)
);
},
{
closed = 1;
nodes = (
(85,518,o),
(107,537,o),
(152,537,cs),
(242,537,l),
(242,531,ls),
(242,473,o),
(194,439,o),
(144,439,cs),
(108,439,o),
(85,459,o),
(85,487,cs)
);
}
);
width = 347;
},
{
layerId = "5A5786DC-1B88-4A0B-9FB6-0051FAC2E168";
shapes = (
{
closed = 1;
nodes = (
(33,427,o),
(79,394,o),
(135,394,cs),
(193,394,o),
(245,428,o),
(265,484,c),
(265,400,l),
(285,400,l),
(285,582,ls),
(285,668,o),
(238,715,o),
(165,715,cs),
(97,715,o),
(51,674,o),
(41,608,c),
(60,608,l),
(69,664,o),
(108,699,o),
(164,699,cs),
(229,699,o),
(262,658,o),
(265,579,c),
(149,579,ls),
(74,579,o),
(33,541,o),
(33,484,cs)
);
},
{
closed = 1;
nodes = (
(52,532,o),
(87,563,o),
(149,563,cs),
(265,563,l),
(265,544,ls),
(265,465,o),
(209,412,o),
(137,412,cs),
(86,412,o),
(52,441,o),
(52,485,cs)
);
}
);
width = 332;
}
);
unicode = 170;
},
{
glyphname = ordmasculine;
layers = (
{
layerId = "F6AEDC33-7BF1-40E1-A2D2-3CCCCC93695C";
shapes = (
{
closed = 1;
nodes = (
(12,446,o),
(85,383,o),
(183,383,c),
(281,383,o),
(354,446,o),
(354,549,c),
(354,653,o),
(281,715,o),
(183,715,c),
(85,715,o),
(12,653,o),
(12,549,c)
);
},
{
closed = 1;
nodes = (
(225,511,o),
(205,493,o),
(183,493,c),
(160,493,o),
(141,511,o),
(141,549,c),
(141,588,o),
(160,605,o),
(183,605,c),
(205,605,o),
(225,588,o),
(225,549,c)
);
}
);
width = 366;
},
{
layerId = "D00D5DE3-9836-4C68-A522-E01534F2A0A6";
shapes = (
{
closed = 1;
nodes = (
(24,450,o),
(94,390,o),
(185,390,cs),
(276,390,o),
(344,450,o),
(344,552,cs),
(344,654,o),
(276,715,o),
(185,715,cs),
(94,715,o),
(24,654,o),
(24,552,cs)
);
},
{
closed = 1;
nodes = (
(282,477,o),
(235,444,o),
(185,444,cs),
(134,444,o),
(87,477,o),
(87,552,cs),
(87,627,o),
(134,661,o),
(185,661,cs),
(235,661,o),
(282,627,o),
(282,552,cs)
);
}
);
width = 370;
},
{
layerId = "5A5786DC-1B88-4A0B-9FB6-0051FAC2E168";
shapes = (
{
closed = 1;
nodes = (
(33,455,o),
(99,395,o),
(186,395,cs),
(273,395,o),
(339,455,o),
(339,555,cs),
(339,655,o),
(273,715,o),
(186,715,cs),
(99,715,o),
(33,655,o),
(33,555,cs)
);
},
{
closed = 1;
nodes = (
(319,457,o),
(254,413,o),
(186,413,cs),
(118,413,o),
(53,457,o),
(53,555,cs),
(53,653,o),
(118,697,o),
(186,697,cs),
(254,697,o),
(319,653,o),
(319,555,cs)
);
}
);
width = 372;
}
);
unicode = 186;
},
{
glyphname = pi;
layers = (
{
layerId = "F6AEDC33-7BF1-40E1-A2D2-3CCCCC93695C";
shapes = (
{
closed = 1;
nodes = (
(10,398,l),
(75,398,l),
(75,0,l),
(297,0,l),
(297,398,l),
(416,398,l),
(416,0,l),
(638,0,l),
(638,398,l),
(703,398,l),
(703,564,l),
(10,564,l)
);
}
);
width = 708;
},
{
layerId = "D00D5DE3-9836-4C68-A522-E01534F2A0A6";
shapes = (
{
closed = 1;
nodes = (
(45,478,l),
(125,478,l),
(125,0,l),
(216,0,l),
(216,478,l),
(502,478,l),
(502,0,l),
(593,0,l),
(593,478,l),
(673,478,l),
(673,549,l),
(45,549,l)
);
}
);
width = 716;
},
{
layerId = "5A5786DC-1B88-4A0B-9FB6-0051FAC2E168";
shapes = (
{
closed = 1;
nodes = (
(65,522,l),
(152,522,l),
(152,0,l),
(172,0,l),
(172,522,l),
(549,522,l),
(549,0,l),
(569,0,l),
(569,522,l),
(656,522,l),
(656,540,l),
(65,540,l)
);
}
);
width = 721;
}
);
unicode = 960;
},
{
glyphname = zero;
layers = (
{
layerId = "F6AEDC33-7BF1-40E1-A2D2-3CCCCC93695C";
shapes = (
{
closed = 1;
nodes = (
(117,724,o),
(30,569,o),
(30,359,cs),
(30,148,o),
(117,-7,o),
(332,-7,cs),
(546,-7,o),
(634,148,o),
(634,359,cs),
(634,569,o),
(546,724,o),
(332,724,cs)
);
},
{
closed = 1;
nodes = (
(410,520,o),
(421,444,o),
(421,359,cs),
(421,273,o),
(410,197,o),
(332,197,cs),
(252,197,o),
(242,273,o),
(242,359,cs),
(242,444,o),
(252,520,o),
(332,520,cs)
);
}
);
width = 662;
},
{
layerId = "D00D5DE3-9836-4C68-A522-E01534F2A0A6";
shapes = (
{
closed = 1;
nodes = (
(110,718,o),
(50,563,o),
(50,356,cs),
(50,150,o),
(110,-7,o),
(308,-7,cs),
(506,-7,o),
(567,150,o),
(567,356,cs),
(567,563,o),
(506,718,o),
(308,718,cs)
);
},
{
closed = 1;
nodes = (
(449,632,o),
(473,512,o),
(473,356,cs),
(473,201,o),
(449,78,o),
(308,78,cs),
(169,78,o),
(145,201,o),
(145,356,cs),
(145,512,o),
(169,632,o),
(308,632,cs)
);
}
);
width = 617;
},
{
layerId = "5A5786DC-1B88-4A0B-9FB6-0051FAC2E168";
shapes = (
{
closed = 1;
nodes = (
(107,714,o),
(70,559,o),
(70,355,c),
(70,150,o),
(107,-7,o),
(296,-7,cs),
(484,-7,o),
(521,150,o),
(521,355,c),
(521,559,o),
(484,714,o),
(296,714,cs)
);
},
{
closed = 1;
nodes = (
(470,696,o),
(501,549,o),
(501,355,c),
(501,160,o),
(470,11,o),
(296,11,cs),
(122,11,o),
(91,160,o),
(91,355,c),
(91,549,o),
(122,696,o),
(296,696,cs)
);
}
);
width = 591;
}
);
unicode = 48;
},
{
glyphname = one;
layers = (
{
layerId = "A4A73B90-88F9-4FAA-AFB8-5E26653F51D9";
associatedMasterId = "F6AEDC33-7BF1-40E1-A2D2-3CCCCC93695C";
name = 1;
shapes = (
{
closed = 1;
nodes = (
(116,0,l),
(349,0,l),
(349,708,l),
(10,708,l),
(10,500,l),
(116,500,l)
);
}
);
width = 399;
},
{
layerId = "F6AEDC33-7BF1-40E1-A2D2-3CCCCC93695C";
shapes = (
{
closed = 1;
nodes = (
(116,0,l),
(338,0,l),
(338,708,l),
(10,708,l),
(10,510,l),
(116,510,l)
);
}
);
width = 390;
},
{
layerId = "D00D5DE3-9836-4C68-A522-E01534F2A0A6";
shapes = (
{
closed = 1;
nodes = (
(120,0,l),
(211,0,l),
(211,708,l),
(13,708,l),
(13,626,l),
(120,626,l)
);
}
);
width = 285;
},
{
layerId = "5A5786DC-1B88-4A0B-9FB6-0051FAC2E168";
shapes = (
{
closed = 1;
nodes = (
(122,0,l),
(142,0,l),
(142,708,l),
(15,708,l),
(15,690,l),
(122,690,l)
);
}
);
width = 227;
}
);
unicode = 49;
},
{
glyphname = two;
layers = (
{
layerId = "F6AEDC33-7BF1-40E1-A2D2-3CCCCC93695C";
shapes = (
{
closed = 1;
nodes = (
(27,0,l),
(549,0,l),
(549,181,l),
(318,181,l),
(435,254,o),
(542,372,o),
(542,508,cs),
(542,615,o),
(481,724,o),
(297,724,cs),
(158,724,o),
(31,649,o),
(24,453,c),
(241,453,l),
(241,519,o),
(253,536,o),
(279,536,cs),
(298,536,o),
(314,525,o),
(314,486,cs),
(314,395,o),
(170,276,o),
(27,169,c)
);
}
);
width = 569;
},
{
layerId = "D00D5DE3-9836-4C68-A522-E01534F2A0A6";
shapes = (
{
closed = 1;
nodes = (
(51,7,l),
(531,7,l),
(531,93,l),
(202,93,l),
(329,194,o),
(512,341,o),
(512,514,cs),
(512,644,o),
(427,726,o),
(288,726,cs),
(159,726,o),
(60,647,o),
(54,491,c),
(154,491,l),
(158,578,o),
(201,640,o),
(287,640,cs),
(376,640,o),
(418,583,o),
(418,508,cs),
(418,368,o),
(235,229,o),
(51,82,c)
);
}
);
width = 574;
},
{
layerId = "5A5786DC-1B88-4A0B-9FB6-0051FAC2E168";
shapes = (
{
closed = 1;
nodes = (
(50,0,l),
(520,0,l),
(520,18,l),
(88,18,l),
(256,118,o),
(496,327,o),
(496,517,cs),
(496,664,o),
(395,714,o),
(295,714,cs),
(160,714,o),
(77,625,o),
(66,482,c),
(86,482,l),
(96,601,o),
(158,696,o),
(295,696,cs),
(434,696,o),
(476,608,o),
(476,517,cs),
(476,353,o),
(298,171,o),
(50,11,c)
);
}
);
width = 570;
}
);
unicode = 50;
},
{
glyphname = three;
layers = (
{
layerId = "F6AEDC33-7BF1-40E1-A2D2-3CCCCC93695C";
shapes = (
{
closed = 1;
nodes = (
(264,480,l),
(264,508,o),
(268,539,o),
(300,539,c),
(318,539,o),
(336,527,o),
(336,492,cs),
(336,438,o),
(288,439,o),
(270,440,c),
(235,440,l),
(235,270,l),
(271,270,ls),
(330,270,o),
(348,248,o),
(348,215,cs),
(348,186,o),
(332,168,o),
(309,168,cs),
(267,168,o),
(254,193,o),
(257,238,c),
(50,238,l),
(52,61,o),
(161,-7,o),
(318,-7,cs),
(466,-7,o),
(554,76,o),
(554,199,cs),
(554,288,o),
(505,334,o),
(439,359,c),
(439,363,l),
(481,377,o),
(542,419,o),
(542,519,cs),
(542,627,o),
(460,714,o),
(305,714,cs),
(149,714,o),
(61,632,o),
(57,480,c)
);
}
);
width = 618;
},
{
layerId = "D00D5DE3-9836-4C68-A522-E01534F2A0A6";
shapes = (
{
closed = 1;
nodes = (
(164,521,l),
(172,586,o),
(217,632,o),
(295,632,cs),
(373,632,o),
(420,588,o),
(420,523,cs),
(420,444,o),
(353,412,o),
(245,411,c),
(221,411,l),
(221,327,l),
(244,327,ls),
(364,327,o),
(434,291,o),
(434,198,cs),
(434,130,o),
(387,78,o),
(299,78,cs),
(211,78,o),
(160,133,o),
(152,205,c),
(54,205,l),
(64,64,o),
(165,-7,o),
(301,-7,cs),
(448,-7,o),
(526,79,o),
(526,189,cs),
(526,290,o),
(471,349,o),
(391,369,c),
(391,374,l),
(461,390,o),
(513,451,o),
(513,534,cs),
(513,637,o),
(438,718,o),
(298,718,cs),
(164,718,o),
(73,646,o),
(64,521,c)
);
}
);
width = 592;
},
{
layerId = "5A5786DC-1B88-4A0B-9FB6-0051FAC2E168";
shapes = (
{
closed = 1;
nodes = (
(86,518,l),
(103,648,o),
(199,696,o),
(299,696,cs),
(414,696,o),
(478,631,o),
(478,539,cs),
(478,439,o),
(405,377,o),
(228,377,cs),
(210,377,l),
(210,358,l),
(227,358,ls),
(390,358,o),
(491,299,o),
(491,180,cs),
(491,87,o),
(429,13,o),
(298,13,cs),
(169,13,o),
(93,93,o),
(73,198,c),
(53,198,l),
(75,68,o),
(165,-7,o),
(298,-7,cs),
(447,-7,o),
(511,78,o),
(511,180,cs),
(511,293,o),
(428,342,o),
(322,365,c),
(322,371,l),
(458,382,o),
(498,465,o),
(498,539,cs),
(498,638,o),
(428,714,o),
(299,714,cs),
(162,714,o),
(79,638,o),
(66,518,c)
);
}
);
width = 578;
}
);
unicode = 51;
},
{
glyphname = four;
layers = (
{
layerId = "F6AEDC33-7BF1-40E1-A2D2-3CCCCC93695C";
shapes = (
{
closed = 1;
nodes = (
(365,0,l),
(585,0,l),
(585,108,l),
(656,108,l),
(656,297,l),
(585,297,l),
(585,708,l),
(350,708,l),
(57,290,l),
(57,108,l),
(365,108,l)
);
},
{
closed = 1;
nodes = (
(276,297,l),
(383,459,l),
(383,297,l)
);
}
);
width = 704;
},
{
layerId = "D00D5DE3-9836-4C68-A522-E01534F2A0A6";
shapes = (
{
closed = 1;
nodes = (
(404,0,l),
(507,0,l),
(507,154,l),
(603,154,l),
(603,243,l),
(507,243,l),
(507,708,l),
(386,708,l),
(44,234,l),
(44,154,l),
(404,154,l)
);
},
{
closed = 1;
nodes = (
(160,243,l),
(410,598,l),
(410,243,l)
);
}
);
width = 637;
},
{
layerId = "5A5786DC-1B88-4A0B-9FB6-0051FAC2E168";
shapes = (
{
closed = 1;
nodes = (
(419,0,l),
(439,0,l),
(439,191,l),
(562,191,l),
(562,209,l),
(439,209,l),
(439,708,l),
(419,708,l),
(20,207,l),
(20,191,l),
(419,191,l)
);
},
{
closed = 1;
nodes = (
(45,209,l),
(419,676,l),
(419,209,l)
);
}
);
width = 577;
}
);
unicode = 52;
},
{
glyphname = five;
layers = (
{
layerId = "F6AEDC33-7BF1-40E1-A2D2-3CCCCC93695C";
shapes = (
{
closed = 1;
nodes = (
(100,708,l),
(100,270,l),
(311,270,l),
(311,285,o),
(324,302,o),
(353,302,c),
(384,302,o),
(404,283,o),
(404,244,cs),
(404,206,o),
(390,179,o),
(356,179,cs),
(319,179,o),
(310,206,o),
(310,222,c),
(99,222,l),
(96,89,o),
(195,-7,o),
(367,-7,cs),
(520,-7,o),
(614,83,o),
(614,240,cs),
(614,363,o),
(550,471,o),
(411,471,cs),
(361,471,o),
(320,458,o),
(295,435,c),
(295,517,l),
(579,517,l),
(579,708,l)
);
}
);
width = 660;
},
{
layerId = "D00D5DE3-9836-4C68-A522-E01534F2A0A6";
shapes = (
{
closed = 1;
nodes = (
(93,708,l),
(93,302,l),
(190,302,l),
(212,354,o),
(259,391,o),
(327,391,cs),
(423,391,o),
(475,335,o),
(475,240,cs),
(475,149,o),
(427,79,o),
(326,79,cs),
(247,79,o),
(194,123,o),
(179,192,c),
(79,192,l),
(94,75,o),
(182,-7,o),
(327,-7,cs),
(491,-7,o),
(570,101,o),
(570,241,cs),
(570,352,o),
(514,476,o),
(345,476,cs),
(277,476,o),
(216,446,o),
(187,408,c),
(187,617,l),
(526,617,l),
(526,708,l)
);
}
);
width = 631;
},
{
layerId = "5A5786DC-1B88-4A0B-9FB6-0051FAC2E168";
shapes = (
{
closed = 1;
nodes = (
(81,708,l),
(81,335,l),
(100,335,l),
(140,403,o),
(216,445,o),
(310,445,cs),
(446,445,o),
(520,364,o),
(520,237,cs),
(520,110,o),
(453,13,o),
(305,13,cs),
(197,13,o),
(114,73,o),
(91,193,c),
(70,193,l),
(89,68,o),
(180,-7,o),
(306,-7,cs),
(476,-7,o),
(540,113,o),
(540,237,cs),
(540,354,o),
(477,464,o),
(310,464,cs),
(220,464,o),
(140,424,o),
(102,368,c),
(102,690,l),
(506,690,l),
(506,708,l)
);
}
);
width = 595;
}
);
unicode = 53;
},
{
glyphname = six;
layers = (
{
layerId = "F6AEDC33-7BF1-40E1-A2D2-3CCCCC93695C";
shapes = (
{
closed = 1;
nodes = (
(567,496,l),
(560,610,o),
(494,724,o),
(328,724,c),
(139,724,o),
(61,612,o),
(61,350,c),
(61,150,o),
(113,-7,o),
(333,-7,cs),
(488,-7,o),
(583,85,o),
(583,232,cs),
(583,381,o),
(499,457,o),
(378,457,cs),
(322,457,o),
(277,433,o),
(252,398,c),
(252,493,o),
(261,552,o),
(314,552,cs),
(346,552,o),
(359,532,o),
(366,496,c)
);
},
{
closed = 1;
nodes = (
(359,291,o),
(382,272,o),
(382,235,c),
(382,195,o),
(360,178,o),
(325,178,c),
(290,178,o),
(267,195,o),
(267,235,c),
(267,272,o),
(291,291,o),
(325,291,c)
);
}
);
width = 637;
},
{
layerId = "D00D5DE3-9836-4C68-A522-E01534F2A0A6";
shapes = (
{
closed = 1;
nodes = (
(546,531,l),
(536,632,o),
(467,719,o),
(329,719,cs),
(149,719,o),
(80,584,o),
(80,357,cs),
(80,145,o),
(126,-7,o),
(337,-7,cs),
(492,-7,o),
(570,98,o),
(570,228,cs),
(570,377,o),
(482,463,o),
(351,463,cs),
(269,463,o),
(195,426,o),
(165,360,c),
(164,558,o),
(220,634,o),
(327,634,cs),
(402,634,o),
(439,596,o),
(452,531,c)
);
},
{
closed = 1;
nodes = (
(424,379,o),
(476,319,o),
(476,226,cs),
(476,136,o),
(418,79,o),
(332,79,cs),
(228,79,o),
(177,147,o),
(177,235,cs),
(177,334,o),
(252,379,o),
(329,379,cs)
);
}
);
width = 635;
},
{
layerId = "5A5786DC-1B88-4A0B-9FB6-0051FAC2E168";
shapes = (
{
closed = 1;
nodes = (
(527,524,l),
(513,637,o),
(446,714,o),
(322,714,cs),
(135,714,o),
(71,565,o),
(71,340,cs),
(71,162,o),
(111,-7,o),
(329,-7,cs),
(496,-7,o),
(556,110,o),
(556,224,cs),
(556,375,o),
(474,470,o),
(324,470,cs),
(206,470,o),
(109,404,o),
(92,298,c),
(78,589,o),
(169,696,o),
(322,696,cs),
(432,696,o),
(494,630,o),
(507,524,c)
);
},
{
closed = 1;
nodes = (
(454,452,o),
(536,374,o),
(536,224,cs),
(536,91,o),
(453,11,o),
(329,11,cs),
(161,11,o),
(98,133,o),
(98,245,cs),
(98,387,o),
(218,452,o),
(324,452,cs)
);
}
);
width = 617;
}
);
unicode = 54;
},
{
glyphname = seven;
layers = (
{
layerId = "F6AEDC33-7BF1-40E1-A2D2-3CCCCC93695C";
shapes = (
{
closed = 1;
nodes = (
(20,708,l),
(20,520,l),
(273,520,l),
(30,0,l),
(255,0,l),
(496,547,l),
(496,708,l)
);
}
);
width = 512;
},
{
layerId = "D00D5DE3-9836-4C68-A522-E01534F2A0A6";
shapes = (
{
closed = 1;
nodes = (
(15,708,l),
(15,619,l),
(372,619,l),
(105,0,l),
(214,0,l),
(478,629,l),
(478,708,l)
);
}
);
width = 508;
},
{
layerId = "5A5786DC-1B88-4A0B-9FB6-0051FAC2E168";
shapes = (
{
closed = 1;
nodes = (
(10,708,l),
(10,690,l),
(445,690,l),
(160,0,l),
(183,0,l),
(465,690,l),
(465,708,l)
);
}
);
width = 505;
}
);
unicode = 55;
},
{
glyphname = eight;
layers = (
{
layerId = "F6AEDC33-7BF1-40E1-A2D2-3CCCCC93695C";
shapes = (
{
closed = 1;
nodes = (
(99,344,o),
(67,291,o),
(67,215,cs),
(67,67,o),
(191,-7,o),
(330,-7,c),
(469,-7,o),
(592,67,o),
(592,215,cs),
(592,291,o),
(561,344,o),
(499,381,c),
(546,408,o),
(578,455,o),
(578,524,c),
(578,612,o),
(502,714,o),
(330,714,c),
(158,714,o),
(81,612,o),
(81,524,c),
(81,455,o),
(114,408,o),
(161,381,c)
);
},
{
closed = 1;
nodes = (
(355,544,o),
(373,524,o),
(373,488,c),
(373,450,o),
(354,432,o),
(330,432,c),
(306,432,o),
(287,450,o),
(287,488,c),
(287,524,o),
(305,544,o),
(330,544,c)
);
},
{
closed = 1;
nodes = (
(367,292,o),
(391,264,o),
(391,227,c),
(391,191,o),
(369,164,o),
(330,164,c),
(291,164,o),
(268,191,o),
(268,227,c),
(268,264,o),
(293,292,o),
(330,292,c)
);
}
);
width = 661;
},
{
layerId = "D00D5DE3-9836-4C68-A522-E01534F2A0A6";
shapes = (
{
closed = 1;
nodes = (
(119,350,o),
(70,287,o),
(70,202,cs),
(70,73,o),
(171,-7,o),
(317,-7,cs),
(463,-7,o),
(565,73,o),
(565,202,cs),
(565,287,o),
(516,349,o),
(439,375,c),
(506,402,o),
(548,458,o),
(548,532,cs),
(548,632,o),
(470,718,o),
(317,718,cs),
(163,718,o),
(86,633,o),
(86,532,cs),
(86,456,o),
(127,403,o),
(195,375,c)
);
},
{
closed = 1;
nodes = (
(398,634,o),
(454,595,o),
(454,519,cs),
(454,451,o),
(396,406,o),
(317,406,cs),
(238,406,o),
(180,450,o),
(180,518,cs),
(180,596,o),
(237,634,o),
(317,634,cs)
);
},
{
closed = 1;
nodes = (
(402,331,o),
(471,289,o),
(471,205,cs),
(471,129,o),
(409,76,o),
(317,76,cs),
(224,76,o),
(161,128,o),
(161,205,cs),
(161,292,o),
(233,331,o),
(317,331,cs)
);
}
);
width = 634;
},
{
layerId = "5A5786DC-1B88-4A0B-9FB6-0051FAC2E168";
shapes = (
{
closed = 1;
nodes = (
(127,354,o),
(61,289,o),
(61,191,cs),
(61,69,o),
(151,-7,o),
(306,-7,c),
(461,-7,o),
(550,69,o),
(550,191,cs),
(550,289,o),
(485,354,o),
(380,372,c),
(488,394,o),
(530,462,o),
(530,539,cs),
(530,644,o),
(446,714,o),
(306,714,c),
(165,714,o),
(81,644,o),
(81,539,cs),
(81,462,o),
(124,394,o),
(231,372,c)
);
},
{
closed = 1;
nodes = (
(427,696,o),
(511,643,o),
(511,539,cs),
(511,437,o),
(431,381,o),
(306,381,c),
(180,381,o),
(101,437,o),
(101,539,cs),
(101,643,o),
(184,696,o),
(306,696,c)
);
},
{
closed = 1;
nodes = (
(425,363,o),
(530,316,o),
(530,191,cs),
(530,73,o),
(439,11,o),
(306,11,c),
(172,11,o),
(81,73,o),
(81,191,cs),
(81,316,o),
(186,363,o),
(306,363,c)
);
}
);
width = 611;
}
);
unicode = 56;
},
{
glyphname = nine;
layers = (
{
layerId = "F6AEDC33-7BF1-40E1-A2D2-3CCCCC93695C";
shapes = (
{
closed = 1;
nodes = (
(55,221,l),
(62,107,o),
(145,-7,o),
(312,-7,c),
(500,-7,o),
(561,134,o),
(561,376,c),
(561,577,o),
(510,724,o),
(290,724,cs),
(135,724,o),
(39,632,o),
(39,485,cs),
(39,336,o),
(124,260,o),
(244,260,cs),
(301,260,o),
(346,284,o),
(370,319,c),
(370,224,o),
(364,165,o),
(312,165,cs),
(280,165,o),
(263,185,o),
(256,221,c)
);
},
{
closed = 1;
nodes = (
(263,426,o),
(240,445,o),
(240,482,c),
(240,522,o),
(262,539,o),
(298,539,c),
(333,539,o),
(355,522,o),
(355,482,c),
(355,445,o),
(332,426,o),
(298,426,c)
);
}
);
width = 600;
},
{
layerId = "D00D5DE3-9836-4C68-A522-E01534F2A0A6";
shapes = (
{
closed = 1;
nodes = (
(94,189,l),
(104,83,o),
(175,-7,o),
(318,-7,cs),
(505,-7,o),
(556,127,o),
(556,363,cs),
(556,581,o),
(505,719,o),
(309,719,cs),
(156,719,o),
(73,621,o),
(73,484,cs),
(73,334,o),
(170,253,o),
(299,253,cs),
(374,253,o),
(442,287,o),
(469,344,c),
(472,147,o),
(421,78,o),
(323,78,cs),
(245,78,o),
(201,119,o),
(189,189,c)
);
},
{
closed = 1;
nodes = (
(219,338,o),
(167,400,o),
(167,486,cs),
(167,574,o),
(225,635,o),
(311,635,cs),
(406,635,o),
(458,570,o),
(458,479,cs),
(458,390,o),
(397,338,o),
(318,338,cs)
);
}
);
width = 627;
},
{
layerId = "5A5786DC-1B88-4A0B-9FB6-0051FAC2E168";
shapes = (
{
closed = 1;
nodes = (
(91,183,l),
(105,70,o),
(171,-7,o),
(296,-7,cs),
(483,-7,o),
(546,142,o),
(546,367,cs),
(546,545,o),
(507,714,o),
(289,714,cs),
(122,714,o),
(61,597,o),
(61,483,cs),
(61,332,o),
(144,237,o),
(294,237,cs),
(411,237,o),
(509,303,o),
(526,409,c),
(539,118,o),
(448,11,o),
(296,11,cs),
(185,11,o),
(124,77,o),
(111,183,c)
);
},
{
closed = 1;
nodes = (
(164,255,o),
(81,333,o),
(81,483,cs),
(81,616,o),
(165,696,o),
(289,696,cs),
(457,696,o),
(520,574,o),
(520,462,cs),
(520,320,o),
(399,255,o),
(294,255,cs)
);
}
);
width = 617;
}
);
unicode = 57;
},
{
glyphname = fraction;
layers = (
{
layerId = "F6AEDC33-7BF1-40E1-A2D2-3CCCCC93695C";
shapes = (
{
closed = 1;
nodes = (
(-150,0,l),
(2,0,l),
(375,711,l),
(223,711,l)
);
}
);
width = 249;
},
{
layerId = "D00D5DE3-9836-4C68-A522-E01534F2A0A6";
shapes = (
{
closed = 1;
nodes = (
(-175,0,l),
(-94,0,l),
(313,709,l),
(233,709,l)
);
}
);
width = 147;
},
{
layerId = "5A5786DC-1B88-4A0B-9FB6-0051FAC2E168";
shapes = (
{
closed = 1;
nodes = (
(-179,0,l),
(-155,0,l),
(271,708,l),
(247,708,l)
);
}
);
width = 92;
}
);
unicode = 8260;
},
{
glyphname = asterisk;
layers = (
{
layerId = "F6AEDC33-7BF1-40E1-A2D2-3CCCCC93695C";
shapes = (
{
closed = 1;
nodes = (
(356,744,l),
(214,744,l),
(245,625,l),
(153,708,l),
(86,587,l),
(195,555,l),
(84,519,l),
(159,390,l),
(244,477,l),
(216,360,l),
(355,360,l),
(327,477,l),
(414,391,l),
(487,518,l),
(376,552,l),
(487,588,l),
(420,709,l),
(327,625,l)
);
}
);
width = 561;
},
{
layerId = "D00D5DE3-9836-4C68-A522-E01534F2A0A6";
shapes = (
{
closed = 1;
nodes = (
(284,734,l),
(201,734,l),
(219,582,l),
(98,674,l),
(56,601,l),
(198,547,l),
(56,493,l),
(98,418,l),
(219,512,l),
(202,360,l),
(284,360,l),
(264,512,l),
(383,421,l),
(424,493,l),
(281,547,l),
(424,601,l),
(384,673,l),
(264,582,l)
);
}
);
width = 476;
},
{
layerId = "5A5786DC-1B88-4A0B-9FB6-0051FAC2E168";
shapes = (
{
closed = 1;
nodes = (
(244,728,l),
(194,728,l),
(205,559,l),
(67,656,l),
(40,609,l),
(199,543,l),
(40,479,l),
(65,434,l),
(206,531,l),
(194,360,l),
(245,360,l),
(229,531,l),
(366,437,l),
(389,480,l),
(228,544,l),
(389,608,l),
(364,653,l),
(229,559,l)
);
}
);
width = 429;
}
);
unicode = 42;
},
{
glyphname = backslash;
layers = (
{
layerId = "F6AEDC33-7BF1-40E1-A2D2-3CCCCC93695C";
shapes = (
{
closed = 1;
nodes = (
(412,955,l),
(200,955,l),
(440,-198,l),
(652,-198,l)
);
}
);
width = 878;
},
{
layerId = "D00D5DE3-9836-4C68-A522-E01534F2A0A6";
shapes = (
{
closed = 1;
nodes = (
(180,942,l),
(90,942,l),
(404,-171,l),
(493,-171,l)
);
}
);
width = 617;
},
{
layerId = "5A5786DC-1B88-4A0B-9FB6-0051FAC2E168";
shapes = (
{
closed = 1;
nodes = (
(53,935,l),
(30,935,l),
(384,-156,l),
(405,-156,l)
);
}
);
width = 474;
}
);
unicode = 92;
},
{
glyphname = bullet;
layers = (
{
layerId = "F6AEDC33-7BF1-40E1-A2D2-3CCCCC93695C";
shapes = (
{
closed = 1;
nodes = (
(363,166,o),
(436,239,o),
(436,333,cs),
(436,428,o),
(363,502,o),
(268,502,cs),
(174,502,o),
(100,428,o),
(100,333,cs),
(100,239,o),
(174,166,o),
(268,166,cs)
);
}
);
width = 536;
},
{
layerId = "D00D5DE3-9836-4C68-A522-E01534F2A0A6";
shapes = (
{
closed = 1;
nodes = (
(247,211,o),
(301,265,o),
(301,333,cs),
(301,402,o),
(247,457,o),
(178,457,cs),
(110,457,o),
(55,402,o),
(55,333,cs),
(55,265,o),
(110,211,o),
(178,211,cs)
);
}
);
width = 355;
},
{
layerId = "5A5786DC-1B88-4A0B-9FB6-0051FAC2E168";
shapes = (
{
closed = 1;
nodes = (
(183,236,o),
(226,279,o),
(226,333,cs),
(226,388,o),
(183,432,o),
(128,432,cs),
(74,432,o),
(30,388,o),
(30,333,cs),
(30,279,o),
(74,236,o),
(128,236,cs)
);
}
);
width = 256;
}
);
unicode = 8226;
},
{
glyphname = colon;
layers = (
{
layerId = "F6AEDC33-7BF1-40E1-A2D2-3CCCCC93695C";
shapes = (
{
closed = 1;
nodes = (
(62,0,l),
(282,0,l),
(282,212,l),
(62,212,l)
);
},
{
closed = 1;
nodes = (
(62,391,l),
(282,391,l),
(282,603,l),
(62,603,l)
);
}
);
width = 332;
},
{
layerId = "D00D5DE3-9836-4C68-A522-E01534F2A0A6";
shapes = (
{
closed = 1;
nodes = (
(42,0,l),
(152,0,l),
(152,107,l),
(42,107,l)
);
},
{
closed = 1;
nodes = (
(42,432,l),
(152,432,l),
(152,539,l),
(42,539,l)
);
}
);
width = 191;
},
{
layerId = "5A5786DC-1B88-4A0B-9FB6-0051FAC2E168";
shapes = (
{
closed = 1;
nodes = (
(31,0,l),
(81,0,l),
(81,49,l),
(31,49,l)
);
},
{
closed = 1;
nodes = (
(31,454,l),
(81,454,l),
(81,503,l),
(31,503,l)
);
}
);
width = 113;
}
);
unicode = 58;
},
{
glyphname = comma;
layers = (
{
layerId = "F6AEDC33-7BF1-40E1-A2D2-3CCCCC93695C";
shapes = (
{
closed = 1;
nodes = (
(25,131,l),
(25,-61,l),
(112,-61,l),
(112,-72,ls),
(112,-124,o),
(91,-132,o),
(57,-132,c),
(57,-210,l),
(266,-210,o),
(265,18,o),
(196,131,c)
);
}
);
width = 276;
},
{
layerId = "D00D5DE3-9836-4C68-A522-E01534F2A0A6";
shapes = (
{
closed = 1;
nodes = (
(33,67,l),
(33,-26,l),
(84,-26,l),
(84,-35,ls),
(84,-74,o),
(69,-91,o),
(36,-91,c),
(36,-130,l),
(138,-130,o),
(158,-32,o),
(126,67,c)
);
}
);
width = 175;
},
{
layerId = "5A5786DC-1B88-4A0B-9FB6-0051FAC2E168";
shapes = (
{
closed = 1;
nodes = (
(37,31,l),
(37,-7,l),
(68,-7,l),
(68,-14,ls),
(68,-47,o),
(57,-68,o),
(25,-68,c),
(25,-86,l),
(67,-86,o),
(99,-59,o),
(88,31,c)
);
}
);
width = 120;
}
);
unicode = 44;
},
{
glyphname = ellipsis;
layers = (
{
layerId = "F6AEDC33-7BF1-40E1-A2D2-3CCCCC93695C";
shapes = (
{
alignment = -1;
pos = (275,0);
ref = period;
},
{
alignment = -1;
pos = (550,0);
ref = period;
},
{
alignment = -1;
ref = period;
}
);
width = 827;
},
{
layerId = "D00D5DE3-9836-4C68-A522-E01534F2A0A6";
shapes = (
{
closed = 1;
nodes = (
(221,0,l),
(331,0,l),
(331,107,l),
(221,107,l)
);
},
{
closed = 1;
nodes = (
(412,0,l),
(522,0,l),
(522,107,l),
(412,107,l)
);
},
{
closed = 1;
nodes = (
(30,0,l),
(140,0,l),
(140,107,l),
(30,107,l)
);
}
);
width = 554;
},
{
layerId = "5A5786DC-1B88-4A0B-9FB6-0051FAC2E168";
shapes = (
{
alignment = -1;
pos = (145,0);
ref = period;
},
{
alignment = -1;
pos = (290,0);
ref = period;
},
{
alignment = -1;
ref = period;
}
);
width = 403;
}
);
unicode = 8230;
},
{
glyphname = exclam;
layers = (
{
layerId = "F6AEDC33-7BF1-40E1-A2D2-3CCCCC93695C";
shapes = (
{
closed = 1;
nodes = (
(134,281,l),
(324,281,l),
(350,755,l),
(108,755,l)
);
},
{
closed = 1;
nodes = (
(119,0,l),
(339,0,l),
(339,212,l),
(119,212,l)
);
}
);
width = 435;
},
{
layerId = "D00D5DE3-9836-4C68-A522-E01534F2A0A6";
shapes = (
{
closed = 1;
nodes = (
(115,208,l),
(190,208,l),
(204,725,l),
(102,725,l)
);
},
{
closed = 1;
nodes = (
(98,0,l),
(209,0,l),
(209,107,l),
(98,107,l)
);
}
);
width = 300;
},
{
layerId = "5A5786DC-1B88-4A0B-9FB6-0051FAC2E168";
shapes = (
{
closed = 1;
nodes = (
(105,168,l),
(117,168,l),
(123,708,l),
(99,708,l)
);
},
{
closed = 1;
nodes = (
(87,0,l),
(138,0,l),
(138,49,l),
(87,49,l)
);
}
);
width = 225;
}
);
unicode = 33;
},
{
glyphname = numbersign;
layers = (
{
layerId = "F6AEDC33-7BF1-40E1-A2D2-3CCCCC93695C";
shapes = (
{
closed = 1;
nodes = (
(125,0,l),
(330,0,l),
(488,740,l),
(283,740,l)
);
},
{
closed = 1;
nodes = (
(469,0,l),
(675,0,l),
(833,740,l),
(627,740,l)
);
},
{
closed = 1;
nodes = (
(10,124,l),
(855,124,l),
(855,326,l),
(10,326,l)
);
},
{
closed = 1;
nodes = (
(78,421,l),
(923,421,l),
(923,623,l),
(78,623,l)
);
}
);
width = 933;
},
{
layerId = "D00D5DE3-9836-4C68-A522-E01534F2A0A6";
shapes = (
{
closed = 1;
nodes = (
(141,0,l),
(227,0,l),
(385,740,l),
(299,740,l)
);
},
{
closed = 1;
nodes = (
(438,0,l),
(524,0,l),
(682,740,l),
(596,740,l)
);
},
{
closed = 1;
nodes = (
(29,204,l),
(725,204,l),
(725,287,l),
(29,287,l)
);
},
{
closed = 1;
nodes = (
(86,449,l),
(781,449,l),
(781,533,l),
(86,533,l)
);
}
);
width = 810;
},
{
layerId = "5A5786DC-1B88-4A0B-9FB6-0051FAC2E168";
shapes = (
{
closed = 1;
nodes = (
(150,0,l),
(170,0,l),
(328,740,l),
(308,740,l)
);
},
{
closed = 1;
nodes = (
(421,0,l),
(441,0,l),
(599,740,l),
(579,740,l)
);
},
{
closed = 1;
nodes = (
(40,248,l),
(653,248,l),
(653,266,l),
(40,266,l)
);
},
{
closed = 1;
nodes = (
(90,465,l),
(703,465,l),
(703,483,l),
(90,483,l)
);
}
);
width = 743;
}
);
unicode = 35;
},
{
glyphname = period;
layers = (
{
layerId = "F6AEDC33-7BF1-40E1-A2D2-3CCCCC93695C";
shapes = (
{
closed = 1;
nodes = (
(28,0,l),
(248,0,l),
(248,212,l),
(28,212,l)
);
}
);
width = 277;
},
{
layerId = "D00D5DE3-9836-4C68-A522-E01534F2A0A6";
shapes = (
{
closed = 1;
nodes = (
(30,0,l),
(140,0,l),
(140,107,l),
(30,107,l)
);
}
);
width = 171;
},
{
layerId = "5A5786DC-1B88-4A0B-9FB6-0051FAC2E168";
shapes = (
{
closed = 1;
nodes = (
(31,0,l),
(81,0,l),
(81,49,l),
(31,49,l)
);
}
);
width = 113;
}
);
unicode = 46;
},
{
glyphname = question;
layers = (
{
layerId = "F6AEDC33-7BF1-40E1-A2D2-3CCCCC93695C";
shapes = (
{
closed = 1;
nodes = (
(230,551,l),
(230,575,o),
(241,596,o),
(268,596,cs),
(288,596,o),
(303,583,o),
(303,559,cs),
(303,516,o),
(257,501,o),
(180,501,cs),
(96,501,l),
(96,288,l),
(305,288,l),
(305,359,l),
(432,362,o),
(521,440,o),
(521,560,cs),
(521,708,o),
(419,777,o),
(277,777,cs),
(97,777,o),
(15,671,o),
(20,551,c)
);
},
{
closed = 1;
nodes = (
(91,0,l),
(312,0,l),
(312,213,l),
(91,213,l)
);
}
);
width = 541;
},
{
layerId = "D00D5DE3-9836-4C68-A522-E01534F2A0A6";
shapes = (
{
closed = 1;
nodes = (
(114,534,l),
(114,609,o),
(169,661,o),
(252,661,cs),
(330,661,o),
(381,613,o),
(381,534,cs),
(381,405,o),
(283,382,o),
(179,382,cs),
(138,382,l),
(138,201,l),
(226,201,l),
(226,320,l),
(371,322,o),
(472,386,o),
(472,534,cs),
(472,662,o),
(384,737,o),
(255,737,cs),
(116,737,o),
(25,655,o),
(26,534,c)
);
},
{
closed = 1;
nodes = (
(127,0,l),
(239,0,l),
(239,107,l),
(127,107,l)
);
}
);
width = 505;
},
{
layerId = "5A5786DC-1B88-4A0B-9FB6-0051FAC2E168";
shapes = (
{
closed = 1;
nodes = (
(50,525,l),
(50,628,o),
(129,697,o),
(243,697,cs),
(354,697,o),
(424,631,o),
(424,520,cs),
(424,345,o),
(297,317,o),
(178,317,cs),
(162,317,l),
(162,153,l),
(182,153,l),
(182,299,l),
(338,300,o),
(444,356,o),
(444,520,cs),
(444,638,o),
(365,715,o),
(243,715,cs),
(128,715,o),
(30,647,o),
(30,525,c)
);
},
{
closed = 1;
nodes = (
(148,0,l),
(198,0,l),
(198,49,l),
(148,49,l)
);
}
);
width = 485;
}
);
unicode = 63;
},
{
glyphname = quotedbl;
layers = (
{
layerId = "F6AEDC33-7BF1-40E1-A2D2-3CCCCC93695C";
shapes = (
{
closed = 1;
nodes = (
(59,568,l),
(207,568,l),
(220,803,l),
(45,803,l)
);
},
{
closed = 1;
nodes = (
(284,568,l),
(432,568,l),
(445,803,l),
(270,803,l)
);
}
);
width = 490;
},
{
layerId = "D00D5DE3-9836-4C68-A522-E01534F2A0A6";
shapes = (
{
closed = 1;
nodes = (
(52,598,l),
(115,598,l),
(124,797,l),
(42,797,l)
);
},
{
closed = 1;
nodes = (
(187,598,l),
(249,598,l),
(259,797,l),
(176,797,l)
);
}
);
width = 300;
},
{
layerId = "5A5786DC-1B88-4A0B-9FB6-0051FAC2E168";
shapes = (
{
closed = 1;
nodes = (
(48,614,l),
(64,614,l),
(71,793,l),
(40,793,l)
);
},
{
closed = 1;
nodes = (
(133,614,l),
(149,614,l),
(156,793,l),
(125,793,l)
);
}
);
width = 196;
}
);
unicode = 34;
},
{
glyphname = quotesingle;
layers = (
{
layerId = "F6AEDC33-7BF1-40E1-A2D2-3CCCCC93695C";
shapes = (
{
closed = 1;
nodes = (
(59,568,l),
(207,568,l),
(220,803,l),
(45,803,l)
);
}
);
width = 265;
},
{
layerId = "D00D5DE3-9836-4C68-A522-E01534F2A0A6";
shapes = (
{
closed = 1;
nodes = (
(54,598,l),
(117,598,l),
(129,797,l),
(42,797,l)
);
}
);
width = 171;
},
{
layerId = "5A5786DC-1B88-4A0B-9FB6-0051FAC2E168";
shapes = (
{
closed = 1;
nodes = (
(52,614,l),
(68,614,l),
(79,793,l),
(40,793,l)
);
}
);
width = 119;
}
);
unicode = 39;
},
{
glyphname = slash;
layers = (
{
layerId = "F6AEDC33-7BF1-40E1-A2D2-3CCCCC93695C";
shapes = (
{
closed = 1;
nodes = (
(-36,-198,l),
(177,-198,l),
(442,955,l),
(230,955,l)
);
}
);
width = 399;
},
{
layerId = "D00D5DE3-9836-4C68-A522-E01534F2A0A6";
shapes = (
{
closed = 1;
nodes = (
(7,-171,l),
(95,-171,l),
(369,942,l),
(280,942,l)
);
}
);
width = 373;
},
{
layerId = "5A5786DC-1B88-4A0B-9FB6-0051FAC2E168";
shapes = (
{
closed = 1;
nodes = (
(30,-156,l),
(50,-156,l),
(329,935,l),
(307,935,l)
);
}
);
width = 359;
}
);
unicode = 47;
},
{
glyphname = underscore;
layers = (
{
layerId = "F6AEDC33-7BF1-40E1-A2D2-3CCCCC93695C";
shapes = (
{
closed = 1;
nodes = (
(49,-258,l),
(724,-258,l),
(724,-42,l),
(49,-42,l)
);
}
);
width = 764;
},
{
layerId = "D00D5DE3-9836-4C68-A522-E01534F2A0A6";
shapes = (
{
closed = 1;
nodes = (
(43,-123,l),
(575,-123,l),
(575,-34,l),
(43,-34,l)
);
}
);
width = 615;
},
{
layerId = "5A5786DC-1B88-4A0B-9FB6-0051FAC2E168";
shapes = (
{
closed = 1;
nodes = (
(40,-48,l),
(493,-48,l),
(493,-30,l),
(40,-30,l)
);
}
);
width = 533;
}
);
unicode = 95;
},
{
glyphname = braceleft;
layers = (
{
layerId = "F6AEDC33-7BF1-40E1-A2D2-3CCCCC93695C";
shapes = (
{
closed = 1;
nodes = (
(247,373,l),
(321,387,o),
(354,424,o),
(354,502,c),
(354,567,o),
(338,625,o),
(338,692,cs),
(338,838,o),
(402,916,o),
(479,945,c),
(479,961,l),
(272,961,l),
(234,944,o),
(135,874,o),
(135,689,cs),
(135,617,o),
(152,565,o),
(152,496,cs),
(152,451,o),
(130,408,o),
(57,408,c),
(57,336,l),
(126,336,o),
(152,293,o),
(152,248,cs),
(152,179,o),
(135,127,o),
(135,55,cs),
(135,-130,o),
(234,-200,o),
(272,-217,c),
(479,-217,l),
(479,-201,l),
(402,-172,o),
(338,-94,o),
(338,52,cs),
(338,120,o),
(354,177,o),
(354,242,cs),
(354,320,o),
(318,358,o),
(247,371,c)
);
}
);
width = 513;
},
{
layerId = "D00D5DE3-9836-4C68-A522-E01534F2A0A6";
shapes = (
{
closed = 1;
nodes = (
(121,373,l),
(203,390,o),
(237,450,o),
(237,524,cs),
(237,592,o),
(214,637,o),
(214,725,cs),
(214,846,o),
(282,922,o),
(340,953,c),
(340,961,l),
(253,961,l),
(220,943,o),
(129,871,o),
(129,720,cs),
(129,641,o),
(153,585,o),
(153,522,cs),
(153,477,o),
(142,414,o),
(46,393,c),
(46,351,l),
(140,330,o),
(153,267,o),
(153,222,cs),
(153,159,o),
(129,103,o),
(129,24,cs),
(129,-127,o),
(220,-199,o),
(253,-217,c),
(340,-217,l),
(340,-209,l),
(282,-178,o),
(214,-102,o),
(214,19,cs),
(214,107,o),
(237,152,o),
(237,220,cs),
(237,294,o),
(202,354,o),
(121,371,c)
);
}
);
width = 371;
},
{
layerId = "5A5786DC-1B88-4A0B-9FB6-0051FAC2E168";
shapes = (
{
closed = 1;
nodes = (
(52,373,l),
(138,392,o),
(173,464,o),
(173,536,cs),
(173,605,o),
(146,644,o),
(146,743,cs),
(146,851,o),
(216,926,o),
(263,957,c),
(263,961,l),
(243,961,l),
(212,942,o),
(126,869,o),
(126,737,cs),
(126,654,o),
(153,596,o),
(153,536,cs),
(153,491,o),
(148,418,o),
(40,384,c),
(40,360,l),
(148,326,o),
(153,253,o),
(153,208,cs),
(153,148,o),
(126,90,o),
(126,7,cs),
(126,-125,o),
(212,-198,o),
(243,-217,c),
(263,-217,l),
(263,-213,l),
(216,-182,o),
(146,-107,o),
(146,1,cs),
(146,100,o),
(173,139,o),
(173,208,cs),
(173,280,o),
(138,352,o),
(52,371,c)
);
}
);
width = 293;
}
);
unicode = 123;
},
{
glyphname = braceright;
layers = (
{
layerId = "F6AEDC33-7BF1-40E1-A2D2-3CCCCC93695C";
shapes = (
{
closed = 1;
nodes = (
(268,371,l),
(197,358,o),
(161,328,o),
(161,262,cs),
(161,197,o),
(177,140,o),
(177,72,cs),
(177,-64,o),
(114,-172,o),
(36,-201,c),
(36,-217,l),
(242,-217,l),
(280,-200,o),
(379,-130,o),
(379,55,cs),
(379,127,o),
(362,179,o),
(362,248,cs),
(362,293,o),
(389,345,o),
(457,336,c),
(457,408,l),
(389,401,o),
(362,451,o),
(362,496,cs),
(362,565,o),
(379,617,o),
(379,689,cs),
(379,874,o),
(280,944,o),
(242,961,c),
(36,961,l),
(36,945,l),
(114,916,o),
(177,808,o),
(177,672,cs),
(177,605,o),
(161,547,o),
(161,482,cs),
(161,416,o),
(195,387,o),
(268,373,c)
);
}
);
width = 489;
},
{
layerId = "D00D5DE3-9836-4C68-A522-E01534F2A0A6";
shapes = (
{
closed = 1;
nodes = (
(257,371,l),
(176,354,o),
(141,297,o),
(141,227,cs),
(141,160,o),
(164,114,o),
(164,26,cs),
(164,-92,o),
(97,-178,o),
(39,-209,c),
(39,-217,l),
(125,-217,l),
(158,-199,o),
(249,-127,o),
(249,24,cs),
(249,103,o),
(225,159,o),
(225,222,cs),
(225,267,o),
(238,333,o),
(332,351,c),
(332,393,l),
(238,412,o),
(225,477,o),
(225,522,cs),
(225,585,o),
(249,641,o),
(249,720,cs),
(249,871,o),
(158,943,o),
(125,961,c),
(39,961,l),
(39,953,l),
(97,922,o),
(164,836,o),
(164,718,cs),
(164,630,o),
(141,584,o),
(141,517,cs),
(141,447,o),
(176,390,o),
(257,373,c)
);
}
);
width = 369;
},
{
layerId = "5A5786DC-1B88-4A0B-9FB6-0051FAC2E168";
shapes = (
{
closed = 1;
nodes = (
(251,371,l),
(165,352,o),
(130,280,o),
(130,208,cs),
(130,139,o),
(157,100,o),
(157,1,cs),
(157,-107,o),
(87,-182,o),
(40,-213,c),
(40,-217,l),
(60,-217,l),
(91,-198,o),
(177,-125,o),
(177,7,cs),
(177,90,o),
(150,148,o),
(150,208,cs),
(150,253,o),
(155,326,o),
(263,360,c),
(263,384,l),
(155,418,o),
(150,491,o),
(150,536,cs),
(150,596,o),
(177,654,o),
(177,737,cs),
(177,869,o),
(91,942,o),
(60,961,c),
(40,961,l),
(40,957,l),
(87,926,o),
(157,851,o),
(157,743,cs),
(157,644,o),
(130,605,o),
(130,536,cs),
(130,464,o),
(165,392,o),
(251,373,c)
);
}
);
width = 303;
}
);
unicode = 125;
},
{
glyphname = bracketleft;
layers = (
{
layerId = "F6AEDC33-7BF1-40E1-A2D2-3CCCCC93695C";
shapes = (
{
closed = 1;
nodes = (
(95,-199,l),
(477,-199,l),
(477,-21,l),
(303,-21,l),
(303,777,l),
(477,777,l),
(477,955,l),
(95,955,l)
);
}
);
width = 533;
},
{
layerId = "D00D5DE3-9836-4C68-A522-E01534F2A0A6";
shapes = (
{
closed = 1;
nodes = (
(89,-171,l),
(285,-171,l),
(285,-96,l),
(175,-96,l),
(175,867,l),
(285,867,l),
(285,942,l),
(89,942,l)
);
}
);
width = 330;
},
{
layerId = "5A5786DC-1B88-4A0B-9FB6-0051FAC2E168";
shapes = (
{
closed = 1;
nodes = (
(85,-155,l),
(179,-155,l),
(179,-137,l),
(105,-137,l),
(105,917,l),
(179,917,l),
(179,935,l),
(85,935,l)
);
}
);
width = 219;
}
);
unicode = 91;
},
{
glyphname = bracketright;
layers = (
{
layerId = "F6AEDC33-7BF1-40E1-A2D2-3CCCCC93695C";
shapes = (
{
closed = 1;
nodes = (
(436,955,l),
(54,955,l),
(54,777,l),
(229,777,l),
(229,-21,l),
(54,-21,l),
(54,-199,l),
(436,-199,l)
);
}
);
width = 530;
},
{
layerId = "D00D5DE3-9836-4C68-A522-E01534F2A0A6";
shapes = (
{
closed = 1;
nodes = (
(241,942,l),
(45,942,l),
(45,867,l),
(155,867,l),
(155,-96,l),
(45,-96,l),
(45,-171,l),
(241,-171,l)
);
}
);
width = 329;
},
{
layerId = "5A5786DC-1B88-4A0B-9FB6-0051FAC2E168";
shapes = (
{
closed = 1;
nodes = (
(134,935,l),
(40,935,l),
(40,917,l),
(114,917,l),
(114,-137,l),
(40,-137,l),
(40,-155,l),
(134,-155,l)
);
}
);
width = 219;
}
);
unicode = 93;
},
{
glyphname = parenleft;
layers = (
{
layerId = "F6AEDC33-7BF1-40E1-A2D2-3CCCCC93695C";
shapes = (
{
closed = 1;
nodes = (
(505,-189,l),
(505,-169,l),
(319,-12,o),
(227,173,o),
(227,402,c),
(227,631,o),
(319,815,o),
(505,972,c),
(505,993,l),
(291,993,l),
(135,873,o),
(14,665,o),
(14,402,c),
(14,137,o),
(135,-69,o),
(291,-189,c)
);
}
);
width = 429;
},
{
layerId = "D00D5DE3-9836-4C68-A522-E01534F2A0A6";
shapes = (
{
closed = 1;
nodes = (
(397,-184,l),
(397,-175,l),
(216,-28,o),
(132,169,o),
(132,403,cs),
(132,636,o),
(216,833,o),
(397,980,c),
(397,989,l),
(308,989,l),
(159,874,o),
(44,672,o),
(44,403,cs),
(44,132,o),
(159,-68,o),
(308,-184,c)
);
}
);
width = 383;
},
{
layerId = "5A5786DC-1B88-4A0B-9FB6-0051FAC2E168";
shapes = (
{
closed = 1;
nodes = (
(337,-181,l),
(337,-178,l),
(160,-37,o),
(80,167,o),
(80,403,c),
(80,639,o),
(160,843,o),
(337,984,c),
(337,987,l),
(317,987,l),
(172,874,o),
(60,676,o),
(60,403,c),
(60,130,o),
(172,-68,o),
(317,-181,c)
);
}
);
width = 357;
}
);
unicode = 40;
},
{
glyphname = parenright;
layers = (
{
layerId = "F6AEDC33-7BF1-40E1-A2D2-3CCCCC93695C";
shapes = (
{
closed = 1;
nodes = (
(-74,993,l),
(-74,972,l),
(113,815,o),
(205,631,o),
(205,402,cs),
(205,173,o),
(113,-12,o),
(-74,-169,c),
(-74,-189,l),
(141,-189,l),
(297,-69,o),
(418,138,o),
(418,403,cs),
(418,666,o),
(297,873,o),
(141,993,c)
);
}
);
width = 432;
},
{
layerId = "D00D5DE3-9836-4C68-A522-E01534F2A0A6";
shapes = (
{
closed = 1;
nodes = (
(-13,989,l),
(-13,980,l),
(167,833,o),
(251,636,o),
(251,403,cs),
(251,169,o),
(167,-28,o),
(-13,-175,c),
(-13,-184,l),
(76,-184,l),
(225,-68,o),
(340,133,o),
(340,403,cs),
(340,672,o),
(225,874,o),
(76,989,c)
);
}
);
width = 384;
},
{
layerId = "5A5786DC-1B88-4A0B-9FB6-0051FAC2E168";
shapes = (
{
closed = 1;
nodes = (
(20,987,l),
(20,984,l),
(197,843,o),
(277,639,o),
(277,403,c),
(277,167,o),
(197,-37,o),
(20,-178,c),
(20,-181,l),
(40,-181,l),
(185,-68,o),
(297,130,o),
(297,403,c),
(297,676,o),
(185,874,o),
(40,987,c)
);
}
);
width = 357;
}
);
unicode = 41;
},
{
glyphname = emdash;
layers = (
{
layerId = "F6AEDC33-7BF1-40E1-A2D2-3CCCCC93695C";
shapes = (
{
closed = 1;
nodes = (
(55,250,l),
(881,250,l),
(881,433,l),
(55,433,l)
);
}
);
width = 936;
},
{
layerId = "D00D5DE3-9836-4C68-A522-E01534F2A0A6";
shapes = (
{
closed = 1;
nodes = (
(45,328,l),
(780,328,l),
(780,405,l),
(45,405,l)
);
}
);
width = 825;
},
{
layerId = "5A5786DC-1B88-4A0B-9FB6-0051FAC2E168";
shapes = (
{
closed = 1;
nodes = (
(40,371,l),
(724,371,l),
(724,389,l),
(40,389,l)
);
}
);
width = 764;
}
);
unicode = 8212;
},
{
glyphname = endash;
layers = (
{
layerId = "F6AEDC33-7BF1-40E1-A2D2-3CCCCC93695C";
shapes = (
{
closed = 1;
nodes = (
(55,250,l),
(628,250,l),
(628,433,l),
(55,433,l)
);
}
);
width = 683;
},
{
layerId = "D00D5DE3-9836-4C68-A522-E01534F2A0A6";
shapes = (
{
closed = 1;
nodes = (
(45,328,l),
(572,328,l),
(572,405,l),
(45,405,l)
);
}
);
width = 617;
},
{
layerId = "5A5786DC-1B88-4A0B-9FB6-0051FAC2E168";
shapes = (
{
closed = 1;
nodes = (
(40,371,l),
(541,371,l),
(541,389,l),
(40,389,l)
);
}
);
width = 581;
}
);
unicode = 8211;
},
{
glyphname = guillemotleft;
layers = (
{
layerId = "F6AEDC33-7BF1-40E1-A2D2-3CCCCC93695C";
shapes = (
{
closed = 1;
nodes = (
(244,295,l),
(323,470,l),
(122,470,l),
(45,295,l),
(122,120,l),
(323,120,l)
);
},
{
closed = 1;
nodes = (
(499,295,l),
(578,470,l),
(377,470,l),
(300,295,l),
(377,120,l),
(578,120,l)
);
}
);
width = 618;
},
{
layerId = "D00D5DE3-9836-4C68-A522-E01534F2A0A6";
shapes = (
{
closed = 1;
nodes = (
(132,295,l),
(230,470,l),
(141,470,l),
(45,295,l),
(141,120,l),
(230,120,l)
);
},
{
closed = 1;
nodes = (
(316,295,l),
(414,470,l),
(325,470,l),
(229,295,l),
(325,120,l),
(414,120,l)
);
}
);
width = 461;
},
{
layerId = "5A5786DC-1B88-4A0B-9FB6-0051FAC2E168";
shapes = (
{
closed = 1;
nodes = (
(70,295,l),
(179,470,l),
(152,470,l),
(45,295,l),
(152,120,l),
(179,120,l)
);
},
{
closed = 1;
nodes = (
(215,295,l),
(324,470,l),
(297,470,l),
(190,295,l),
(297,120,l),
(324,120,l)
);
}
);
width = 374;
}
);
unicode = 171;
},
{
glyphname = guillemotright;
layers = (
{
layerId = "F6AEDC33-7BF1-40E1-A2D2-3CCCCC93695C";
shapes = (
{
closed = 1;
nodes = (
(507,120,l),
(583,295,l),
(507,470,l),
(305,470,l),
(385,295,l),
(305,120,l)
);
},
{
closed = 1;
nodes = (
(252,120,l),
(328,295,l),
(252,470,l),
(50,470,l),
(130,295,l),
(50,120,l)
);
}
);
width = 618;
},
{
layerId = "D00D5DE3-9836-4C68-A522-E01534F2A0A6";
shapes = (
{
closed = 1;
nodes = (
(324,120,l),
(419,295,l),
(324,470,l),
(234,470,l),
(333,295,l),
(234,120,l)
);
},
{
closed = 1;
nodes = (
(140,120,l),
(235,295,l),
(140,470,l),
(50,470,l),
(149,295,l),
(50,120,l)
);
}
);
width = 461;
},
{
layerId = "5A5786DC-1B88-4A0B-9FB6-0051FAC2E168";
shapes = (
{
closed = 1;
nodes = (
(223,120,l),
(329,295,l),
(223,470,l),
(195,470,l),
(305,295,l),
(195,120,l)
);
},
{
closed = 1;
nodes = (
(78,120,l),
(184,295,l),
(78,470,l),
(50,470,l),
(160,295,l),
(50,120,l)
);
}
);
width = 374;
}
);
unicode = 187;
},
{
glyphname = guilsinglleft;
layers = (
{
layerId = "F6AEDC33-7BF1-40E1-A2D2-3CCCCC93695C";
shapes = (
{
closed = 1;
nodes = (
(244,295,l),
(323,470,l),
(122,470,l),
(45,295,l),
(122,120,l),
(323,120,l)
);
}
);
width = 373;
},
{
layerId = "D00D5DE3-9836-4C68-A522-E01534F2A0A6";
shapes = (
{
closed = 1;
nodes = (
(132,295,l),
(230,470,l),
(141,470,l),
(45,295,l),
(141,120,l),
(230,120,l)
);
}
);
width = 280;
},
{
layerId = "5A5786DC-1B88-4A0B-9FB6-0051FAC2E168";
shapes = (
{
closed = 1;
nodes = (
(70,295,l),
(179,470,l),
(152,470,l),
(45,295,l),
(152,120,l),
(179,120,l)
);
}
);
width = 229;
}
);
unicode = 8249;
},
{
glyphname = guilsinglright;
layers = (
{
layerId = "F6AEDC33-7BF1-40E1-A2D2-3CCCCC93695C";
shapes = (
{
closed = 1;
nodes = (
(252,120,l),
(328,295,l),
(252,470,l),
(50,470,l),
(130,295,l),
(50,120,l)
);
}
);
width = 373;
},
{
layerId = "D00D5DE3-9836-4C68-A522-E01534F2A0A6";
shapes = (
{
closed = 1;
nodes = (
(140,120,l),
(235,295,l),
(140,470,l),
(50,470,l),
(149,295,l),
(50,120,l)
);
}
);
width = 280;
},
{
layerId = "5A5786DC-1B88-4A0B-9FB6-0051FAC2E168";
shapes = (
{
closed = 1;
nodes = (
(78,120,l),
(184,295,l),
(78,470,l),
(50,470,l),
(160,295,l),
(50,120,l)
);
}
);
width = 229;
}
);
unicode = 8250;
},
{
glyphname = quotedblleft;
layers = (
{
layerId = "F6AEDC33-7BF1-40E1-A2D2-3CCCCC93695C";
shapes = (
{
closed = 1;
nodes = (
(232,565,l),
(232,712,l),
(160,712,l),
(160,723,ls),
(160,775,o),
(180,798,o),
(215,798,c),
(215,876,l),
(101,876,o),
(50,796,o),
(50,700,cs),
(50,658,o),
(58,612,o),
(76,565,c)
);
},
{
closed = 1;
nodes = (
(456,565,l),
(456,712,l),
(384,712,l),
(384,723,ls),
(384,775,o),
(405,798,o),
(439,798,c),
(439,876,l),
(326,876,o),
(275,796,o),
(275,700,cs),
(275,658,o),
(282,612,o),
(300,565,c)
);
}
);
width = 506;
},
{
layerId = "D00D5DE3-9836-4C68-A522-E01534F2A0A6";
shapes = (
{
closed = 1;
nodes = (
(140,583,l),
(140,669,l),
(90,669,l),
(90,692,ls),
(90,729,o),
(104,748,o),
(139,748,c),
(139,788,l),
(73,788,o),
(37,750,o),
(37,675,cs),
(37,649,o),
(41,618,o),
(49,583,c)
);
},
{
closed = 1;
nodes = (
(275,583,l),
(275,669,l),
(225,669,l),
(225,692,ls),
(225,729,o),
(239,748,o),
(274,748,c),
(274,788,l),
(208,788,o),
(172,750,o),
(172,675,cs),
(172,649,o),
(176,618,o),
(184,583,c)
);
}
);
width = 314;
},
{
layerId = "5A5786DC-1B88-4A0B-9FB6-0051FAC2E168";
shapes = (
{
closed = 1;
nodes = (
(90,593,l),
(90,646,l),
(52,646,l),
(52,675,ls),
(52,704,o),
(62,720,o),
(97,720,c),
(97,740,l),
(57,740,o),
(30,725,o),
(30,662,cs),
(30,644,o),
(31,622,o),
(34,593,c)
);
},
{
closed = 1;
nodes = (
(176,593,l),
(176,646,l),
(138,646,l),
(138,675,ls),
(138,704,o),
(148,720,o),
(183,720,c),
(183,740,l),
(143,740,o),
(116,725,o),
(116,662,cs),
(116,644,o),
(117,622,o),
(120,593,c)
);
}
);
width = 208;
}
);
unicode = 8220;
},
{
glyphname = quotedblright;
layers = (
{
layerId = "F6AEDC33-7BF1-40E1-A2D2-3CCCCC93695C";
shapes = (
{
closed = 1;
nodes = (
(274,876,l),
(274,730,l),
(346,730,l),
(346,718,ls),
(346,667,o),
(326,644,o),
(291,644,c),
(291,565,l),
(405,565,o),
(456,645,o),
(456,742,cs),
(456,784,o),
(448,830,o),
(430,876,c)
);
},
{
closed = 1;
nodes = (
(50,876,l),
(50,730,l),
(122,730,l),
(122,718,ls),
(122,667,o),
(101,644,o),
(67,644,c),
(67,565,l),
(180,565,o),
(231,645,o),
(231,742,cs),
(231,784,o),
(224,830,o),
(206,876,c)
);
}
);
width = 506;
},
{
layerId = "D00D5DE3-9836-4C68-A522-E01534F2A0A6";
shapes = (
{
closed = 1;
nodes = (
(173,788,l),
(173,702,l),
(223,702,l),
(223,679,ls),
(223,642,o),
(210,624,o),
(175,624,c),
(175,583,l),
(241,583,o),
(277,621,o),
(277,696,cs),
(277,723,o),
(273,753,o),
(265,788,c)
);
},
{
closed = 1;
nodes = (
(38,788,l),
(38,702,l),
(88,702,l),
(88,679,ls),
(88,642,o),
(75,624,o),
(40,624,c),
(40,583,l),
(106,583,o),
(141,621,o),
(141,696,cs),
(141,723,o),
(138,753,o),
(130,788,c)
);
}
);
width = 314;
},
{
layerId = "5A5786DC-1B88-4A0B-9FB6-0051FAC2E168";
shapes = (
{
closed = 1;
nodes = (
(118,740,l),
(118,687,l),
(156,687,l),
(156,658,ls),
(156,629,o),
(146,613,o),
(111,613,c),
(111,593,l),
(151,593,o),
(178,608,o),
(178,671,cs),
(178,689,o),
(177,711,o),
(174,740,c)
);
},
{
closed = 1;
nodes = (
(32,740,l),
(32,687,l),
(70,687,l),
(70,658,ls),
(70,629,o),
(60,613,o),
(25,613,c),
(25,593,l),
(65,593,o),
(92,608,o),
(92,671,cs),
(92,689,o),
(91,711,o),
(88,740,c)
);
}
);
width = 208;
}
);
unicode = 8221;
},
{
glyphname = quoteleft;
layers = (
{
layerId = "F6AEDC33-7BF1-40E1-A2D2-3CCCCC93695C";
shapes = (
{
closed = 1;
nodes = (
(232,565,l),
(232,712,l),
(160,712,l),
(160,723,ls),
(160,775,o),
(180,798,o),
(215,798,c),
(215,876,l),
(101,876,o),
(50,796,o),
(50,700,cs),
(50,658,o),
(58,612,o),
(76,565,c)
);
}
);
width = 281;
},
{
layerId = "D00D5DE3-9836-4C68-A522-E01534F2A0A6";
shapes = (
{
closed = 1;
nodes = (
(140,583,l),
(140,669,l),
(90,669,l),
(90,692,ls),
(90,729,o),
(104,748,o),
(139,748,c),
(139,788,l),
(73,788,o),
(37,750,o),
(37,675,cs),
(37,649,o),
(41,618,o),
(49,583,c)
);
}
);
width = 178;
},
{
layerId = "5A5786DC-1B88-4A0B-9FB6-0051FAC2E168";
shapes = (
{
closed = 1;
nodes = (
(90,593,l),
(90,646,l),
(52,646,l),
(52,675,ls),
(52,704,o),
(62,720,o),
(97,720,c),
(97,740,l),
(57,740,o),
(30,725,o),
(30,662,cs),
(30,644,o),
(31,622,o),
(34,593,c)
);
}
);
width = 122;
}
);
unicode = 8216;
},
{
glyphname = quoteright;
layers = (
{
layerId = "F6AEDC33-7BF1-40E1-A2D2-3CCCCC93695C";
shapes = (
{
closed = 1;
nodes = (
(50,876,l),
(50,730,l),
(122,730,l),
(122,718,ls),
(122,667,o),
(101,644,o),
(67,644,c),
(67,565,l),
(180,565,o),
(231,645,o),
(231,742,cs),
(231,784,o),
(224,830,o),
(206,876,c)
);
}
);
width = 281;
},
{
layerId = "D00D5DE3-9836-4C68-A522-E01534F2A0A6";
shapes = (
{
closed = 1;
nodes = (
(38,788,l),
(38,702,l),
(88,702,l),
(88,679,ls),
(88,642,o),
(75,624,o),
(40,624,c),
(40,583,l),
(106,583,o),
(141,621,o),
(141,696,cs),
(141,723,o),
(138,753,o),
(130,788,c)
);
}
);
width = 178;
},
{
layerId = "5A5786DC-1B88-4A0B-9FB6-0051FAC2E168";
shapes = (
{
closed = 1;
nodes = (
(32,740,l),
(32,687,l),
(70,687,l),
(70,658,ls),
(70,629,o),
(60,613,o),
(25,613,c),
(25,593,l),
(65,593,o),
(92,608,o),
(92,671,cs),
(92,689,o),
(91,711,o),
(88,740,c)
);
}
);
width = 122;
}
);
unicode = 8217;
},
{
glyphname = Euro;
layers = (
{
layerId = "F6AEDC33-7BF1-40E1-A2D2-3CCCCC93695C";
shapes = (
{
closed = 1;
nodes = (
(454,373,l),
(454,474,l),
(15,474,l),
(15,373,l)
);
},
{
closed = 1;
nodes = (
(454,245,l),
(454,345,l),
(15,345,l),
(15,245,l)
);
},
{
closed = 1;
nodes = (
(67,145,o),
(201,-5,o),
(419,-5,c),
(607,-5,o),
(735,108,o),
(764,276,c),
(529,276,l),
(508,228,o),
(466,201,o),
(415,201,c),
(340,201,o),
(294,262,o),
(294,357,c),
(294,452,o),
(340,513,o),
(415,513,c),
(466,513,o),
(508,486,o),
(529,438,c),
(764,438,l),
(735,606,o),
(607,719,o),
(419,719,c),
(201,719,o),
(67,569,o),
(67,357,c)
);
}
);
width = 794;
},
{
layerId = "D00D5DE3-9836-4C68-A522-E01534F2A0A6";
shapes = (
{
closed = 1;
nodes = (
(459,400,l),
(459,448,l),
(18,448,l),
(18,400,l)
);
},
{
closed = 1;
nodes = (
(459,251,l),
(459,299,l),
(18,299,l),
(18,251,l)
);
},
{
closed = 1;
nodes = (
(107,143,o),
(243,-6,o),
(445,-6,cs),
(621,-6,o),
(734,89,o),
(775,232,c),
(679,232,l),
(645,143,o),
(565,78,o),
(443,78,cs),
(306,78,o),
(201,184,o),
(201,354,cs),
(201,526,o),
(306,632,o),
(443,632,cs),
(565,632,o),
(645,567,o),
(679,477,c),
(775,477,l),
(734,621,o),
(621,716,o),
(445,716,cs),
(243,716,o),
(107,567,o),
(107,354,cs)
);
}
);
width = 825;
},
{
layerId = "5A5786DC-1B88-4A0B-9FB6-0051FAC2E168";
shapes = (
{
closed = 1;
nodes = (
(461,415,l),
(461,433,l),
(20,433,l),
(20,415,l)
);
},
{
closed = 1;
nodes = (
(461,254,l),
(461,273,l),
(20,273,l),
(20,254,l)
);
},
{
closed = 1;
nodes = (
(129,142,o),
(266,-7,o),
(459,-7,c),
(629,-7,o),
(733,78,o),
(781,208,c),
(761,208,l),
(720,96,o),
(619,11,o),
(459,11,c),
(288,11,o),
(150,141,o),
(150,353,c),
(150,567,o),
(288,697,o),
(459,697,c),
(619,697,o),
(720,612,o),
(761,499,c),
(781,499,l),
(733,630,o),
(629,715,o),
(459,715,c),
(266,715,o),
(129,566,o),
(129,353,c)
);
}
);
width = 842;
}
);
unicode = 8364;
},
{
glyphname = cent;
layers = (
{
layerId = "F6AEDC33-7BF1-40E1-A2D2-3CCCCC93695C";
shapes = (
{
closed = 1;
nodes = (
(321,337,o),
(346,329,o),
(356,302,c),
(559,302,l),
(550,443,o),
(429,514,o),
(300,514,cs),
(131,514,o),
(20,423,o),
(20,254,c),
(20,83,o),
(131,-8,o),
(300,-8,cs),
(429,-8,o),
(550,64,o),
(559,205,c),
(356,205,l),
(350,180,o),
(321,170,o),
(301,170,cs),
(255,170,o),
(232,201,o),
(232,253,c),
(232,305,o),
(255,337,o),
(301,337,cs)
);
},
{
closed = 1;
nodes = (
(253,364,l),
(344,364,l),
(344,589,l),
(253,589,l)
);
},
{
closed = 1;
nodes = (
(253,-83,l),
(344,-83,l),
(344,143,l),
(253,143,l)
);
}
);
width = 579;
},
{
layerId = "D00D5DE3-9836-4C68-A522-E01534F2A0A6";
shapes = (
{
closed = 1;
nodes = (
(378,441,o),
(440,397,o),
(454,318,c),
(539,318,l),
(524,440,o),
(429,516,o),
(300,516,cs),
(151,516,o),
(46,424,o),
(46,264,cs),
(46,104,o),
(151,12,o),
(300,12,cs),
(429,12,o),
(524,89,o),
(539,210,c),
(454,210,l),
(441,132,o),
(378,87,o),
(300,87,cs),
(210,87,o),
(134,144,o),
(134,264,cs),
(134,384,o),
(210,441,o),
(300,441,cs)
);
},
{
closed = 1;
nodes = (
(272,454,l),
(317,454,l),
(317,611,l),
(272,611,l)
);
},
{
closed = 1;
nodes = (
(272,-89,l),
(317,-89,l),
(317,68,l),
(272,68,l)
);
}
);
width = 585;
},
{
layerId = "5A5786DC-1B88-4A0B-9FB6-0051FAC2E168";
shapes = (
{
closed = 1;
nodes = (
(409,499,o),
(491,434,o),
(508,327,c),
(528,327,l),
(510,438,o),
(429,517,o),
(300,517,cs),
(162,517,o),
(60,425,o),
(60,270,c),
(60,115,o),
(162,23,o),
(300,23,cs),
(429,23,o),
(510,102,o),
(528,213,c),
(508,213,l),
(491,106,o),
(409,41,o),
(300,41,cs),
(186,41,o),
(80,112,o),
(80,270,c),
(80,428,o),
(186,499,o),
(300,499,cs)
);
},
{
closed = 1;
nodes = (
(282,504,l),
(302,504,l),
(302,623,l),
(282,623,l)
);
},
{
closed = 1;
nodes = (
(282,-93,l),
(302,-93,l),
(302,26,l),
(282,26,l)
);
}
);
width = 588;
}
);
unicode = 162;
},
{
glyphname = currency;
layers = (
{
layerId = "F6AEDC33-7BF1-40E1-A2D2-3CCCCC93695C";
shapes = (
{
closed = 1;
nodes = (
(439,193,o),
(532,265,o),
(532,379,cs),
(532,494,o),
(439,561,o),
(304,561,c),
(169,561,o),
(76,494,o),
(76,379,cs),
(76,265,o),
(169,193,o),
(304,193,c)
);
},
{
closed = 1;
nodes = (
(274,272,l),
(170,328,l),
(60,219,l),
(140,138,l)
);
},
{
closed = 1;
nodes = (
(543,219,l),
(440,322,l),
(353,248,l),
(463,138,l)
);
},
{
closed = 1;
nodes = (
(274,320,o),
(246,335,o),
(246,377,cs),
(246,421,o),
(274,436,o),
(304,436,c),
(334,436,o),
(362,421,o),
(362,377,cs),
(362,335,o),
(334,320,o),
(304,320,c)
);
},
{
closed = 1;
nodes = (
(260,502,l),
(140,622,l),
(60,541,l),
(163,438,l)
);
},
{
closed = 1;
nodes = (
(543,541,l),
(463,622,l),
(344,503,l),
(421,420,l)
);
}
);
width = 603;
},
{
layerId = "D00D5DE3-9836-4C68-A522-E01534F2A0A6";
shapes = (
{
closed = 1;
nodes = (
(369,201,o),
(448,270,o),
(448,378,cs),
(448,485,o),
(368,553,o),
(269,553,cs),
(167,553,o),
(91,485,o),
(91,378,cs),
(91,270,o),
(166,201,o),
(269,201,cs)
);
},
{
closed = 1;
nodes = (
(194,260,l),
(154,293,l),
(68,209,l),
(105,172,l)
);
},
{
closed = 1;
nodes = (
(468,209,l),
(385,291,l),
(350,252,l),
(431,172,l)
);
},
{
closed = 1;
nodes = (
(211,257,o),
(165,300,o),
(165,377,cs),
(165,454,o),
(211,497,o),
(269,497,cs),
(324,497,o),
(374,454,o),
(374,377,cs),
(374,300,o),
(324,257,o),
(269,257,cs)
);
},
{
closed = 1;
nodes = (
(189,502,l),
(105,586,l),
(68,549,l),
(151,466,l)
);
},
{
closed = 1;
nodes = (
(468,549,l),
(431,586,l),
(347,502,l),
(378,460,l)
);
}
);
width = 537;
},
{
layerId = "5A5786DC-1B88-4A0B-9FB6-0051FAC2E168";
shapes = (
{
closed = 1;
nodes = (
(330,205,o),
(401,273,o),
(401,377,cs),
(401,480,o),
(329,549,o),
(250,549,cs),
(166,549,o),
(100,480,o),
(100,377,cs),
(100,273,o),
(164,205,o),
(250,205,cs)
);
},
{
closed = 1;
nodes = (
(150,254,l),
(145,274,l),
(72,203,l),
(86,190,l)
);
},
{
closed = 1;
nodes = (
(427,203,l),
(354,274,l),
(349,254,l),
(413,190,l)
);
},
{
closed = 1;
nodes = (
(176,223,o),
(120,280,o),
(120,377,cs),
(120,472,o),
(176,531,o),
(250,531,cs),
(319,531,o),
(381,472,o),
(381,377,cs),
(381,280,o),
(318,223,o),
(250,223,cs)
);
},
{
closed = 1;
nodes = (
(150,502,l),
(86,566,l),
(72,553,l),
(145,482,l)
);
},
{
closed = 1;
nodes = (
(427,553,l),
(413,566,l),
(349,502,l),
(354,482,l)
);
}
);
width = 501;
}
);
unicode = 164;
},
{
glyphname = dollar;
layers = (
{
layerId = "F6AEDC33-7BF1-40E1-A2D2-3CCCCC93695C";
shapes = (
{
closed = 1;
nodes = (
(304,-87,l),
(355,-87,l),
(355,800,l),
(304,800,l)
);
},
{
closed = 1;
nodes = (
(268,540,o),
(286,552,o),
(320,552,cs),
(350,552,o),
(381,544,o),
(386,491,c),
(625,491,l),
(615,641,o),
(501,720,o),
(321,720,cs),
(166,720,o),
(30,646,o),
(30,504,c),
(30,243,o),
(400,302,o),
(400,204,c),
(400,175,o),
(376,161,o),
(345,161,c),
(305,161,o),
(272,175,o),
(268,227,c),
(32,227,l),
(42,68,o),
(178,-7,o),
(351,-7,cs),
(535,-7,o),
(637,89,o),
(637,209,cs),
(637,459,o),
(268,409,o),
(268,514,c)
);
}
);
width = 665;
},
{
layerId = "D00D5DE3-9836-4C68-A522-E01534F2A0A6";
shapes = (
{
closed = 1;
nodes = (
(274,-87,l),
(305,-87,l),
(305,800,l),
(274,800,l)
);
},
{
closed = 1;
nodes = (
(147,605,o),
(198,643,o),
(275,643,cs),
(366,643,o),
(411,586,o),
(420,535,c),
(518,535,l),
(505,632,o),
(424,714,o),
(275,714,cs),
(138,714,o),
(49,639,o),
(49,529,cs),
(49,268,o),
(436,379,o),
(436,181,cs),
(436,116,o),
(392,64,o),
(306,64,cs),
(203,64,o),
(155,134,o),
(149,190,c),
(52,190,l),
(62,76,o),
(163,-7,o),
(308,-7,cs),
(464,-7,o),
(533,88,o),
(533,183,cs),
(533,447,o),
(147,339,o),
(147,533,cs)
);
}
);
width = 582;
},
{
layerId = "5A5786DC-1B88-4A0B-9FB6-0051FAC2E168";
shapes = (
{
closed = 1;
nodes = (
(258,-87,l),
(278,-87,l),
(278,800,l),
(258,800,l)
);
},
{
closed = 1;
nodes = (
(80,640,o),
(149,693,o),
(250,693,c),
(375,693,o),
(427,609,o),
(439,559,c),
(459,559,l),
(444,627,o),
(382,711,o),
(250,711,c),
(123,711,o),
(60,635,o),
(60,543,cs),
(60,282,o),
(456,421,o),
(456,169,cs),
(456,84,o),
(401,11,o),
(285,11,cs),
(147,11,o),
(91,111,o),
(83,169,c),
(63,169,l),
(73,80,o),
(154,-7,o),
(285,-7,cs),
(425,-7,o),
(476,88,o),
(476,169,cs),
(476,441,o),
(80,300,o),
(80,543,cs)
);
}
);
width = 536;
}
);
unicode = 36;
},
{
glyphname = florin;
layers = (
{
layerId = "F6AEDC33-7BF1-40E1-A2D2-3CCCCC93695C";
shapes = (
{
closed = 1;
nodes = (
(18,379,l),
(343,379,l),
(362,564,l),
(37,564,l)
);
},
{
closed = 1;
nodes = (
(8,-98,l),
(6,-110,o),
(-1,-120,o),
(-14,-120,cs),
(-52,-120,l),
(-70,-310,l),
(-37,-310,ls),
(96,-310,o),
(212,-268,o),
(230,-98,cs),
(300,569,ls),
(303,597,o),
(324,604,o),
(359,604,c),
(378,793,l),
(192,793,o),
(96,725,o),
(79,569,cs)
);
}
);
width = 340;
},
{
layerId = "D00D5DE3-9836-4C68-A522-E01534F2A0A6";
shapes = (
{
closed = 1;
nodes = (
(48,471,l),
(332,471,l),
(339,549,l),
(54,549,l)
);
},
{
closed = 1;
nodes = (
(62,-57,ls),
(56,-106,o),
(36,-119,o),
(-3,-119,cs),
(-34,-119,l),
(-41,-198,l),
(-10,-198,ls),
(88,-198,o),
(142,-157,o),
(153,-57,cs),
(222,595,ls),
(229,661,o),
(271,688,o),
(347,688,c),
(354,767,l),
(220,767,o),
(144,716,o),
(131,595,cs)
);
}
);
width = 334;
},
{
layerId = "5A5786DC-1B88-4A0B-9FB6-0051FAC2E168";
shapes = (
{
closed = 1;
nodes = (
(64,522,l),
(326,522,l),
(327,540,l),
(64,540,l)
);
},
{
closed = 1;
nodes = (
(91,-34,ls),
(83,-104,o),
(57,-118,o),
(3,-118,cs),
(-24,-118,l),
(-25,-136,l),
(5,-136,ls),
(84,-136,o),
(104,-96,o),
(111,-34,cs),
(179,609,ls),
(188,696,o),
(242,735,o),
(340,735,c),
(341,753,l),
(235,753,o),
(170,711,o),
(160,609,cs)
);
}
);
width = 331;
}
);
unicode = 402;
},
{
glyphname = indianrupee;
layers = (
{
layerId = "F6AEDC33-7BF1-40E1-A2D2-3CCCCC93695C";
shapes = (
{
closed = 1;
nodes = (
(282,644,l),
(282,453,ls),
(282,371,o),
(261,365,o),
(30,365,c),
(30,242,ls),
(30,62,o),
(124,-10,o),
(281,-10,cs),
(430,-10,o),
(501,82,o),
(509,211,c),
(304,211,l),
(304,171,o),
(297,155,o),
(271,155,c),
(244,155,o),
(237,175,o),
(237,204,c),
(237,223,l),
(416,223,o),
(489,341,o),
(489,461,cs),
(489,644,l)
);
},
{
closed = 1;
nodes = (
(30,563,l),
(547,563,l),
(547,708,l),
(30,708,l)
);
},
{
closed = 1;
nodes = (
(547,406,l),
(547,530,l),
(30,530,l),
(30,406,l)
);
}
);
width = 577;
},
{
layerId = "D00D5DE3-9836-4C68-A522-E01534F2A0A6";
shapes = (
{
closed = 1;
nodes = (
(374,681,l),
(374,518,ls),
(374,375,o),
(342,351,o),
(89,351,c),
(89,208,ls),
(89,67,o),
(159,-10,o),
(297,-10,cs),
(420,-10,o),
(490,65,o),
(493,194,c),
(407,194,l),
(407,107,o),
(370,60,o),
(294,60,cs),
(212,60,o),
(174,111,o),
(174,198,cs),
(174,289,l),
(395,289,o),
(459,354,o),
(459,519,cs),
(459,681,l)
);
},
{
closed = 1;
nodes = (
(53,645,l),
(589,645,l),
(589,708,l),
(53,708,l)
);
},
{
closed = 1;
nodes = (
(589,471,l),
(589,526,l),
(53,526,l),
(53,471,l)
);
}
);
width = 642;
},
{
layerId = "5A5786DC-1B88-4A0B-9FB6-0051FAC2E168";
shapes = (
{
closed = 1;
nodes = (
(424,701,l),
(424,553,ls),
(424,377,o),
(387,343,o),
(121,343,c),
(121,189,ls),
(121,70,o),
(179,-10,o),
(306,-10,cs),
(415,-10,o),
(484,55,o),
(484,185,c),
(464,185,l),
(464,71,o),
(410,8,o),
(306,8,cs),
(194,8,o),
(140,76,o),
(140,195,cs),
(140,325,l),
(384,325,o),
(443,361,o),
(443,551,cs),
(443,701,l)
);
},
{
closed = 1;
nodes = (
(65,690,l),
(612,690,l),
(612,708,l),
(65,708,l)
);
},
{
closed = 1;
nodes = (
(612,506,l),
(612,524,l),
(65,524,l),
(65,506,l)
);
}
);
width = 678;
}
);
unicode = 8377;
},
{
glyphname = ruble;
layers = (
{
layerId = "F6AEDC33-7BF1-40E1-A2D2-3CCCCC93695C";
shapes = (
{
closed = 1;
nodes = (
(10,264,l),
(420,264,l),
(598,264,o),
(689,357,o),
(689,486,c),
(689,615,o),
(598,708,o),
(420,708,cs),
(110,708,l),
(110,0,l),
(332,0,l),
(332,542,l),
(406,542,ls),
(444,542,o),
(464,515,o),
(464,487,cs),
(464,454,o),
(444,432,o),
(406,432,cs),
(10,432,l)
);
},
{
closed = 1;
nodes = (
(10,58,l),
(446,58,l),
(446,223,l),
(10,223,l)
);
}
);
width = 709;
},
{
layerId = "D00D5DE3-9836-4C68-A522-E01534F2A0A6";
shapes = (
{
closed = 1;
nodes = (
(45,299,l),
(359,299,ls),
(517,299,o),
(600,373,o),
(600,503,cs),
(600,625,o),
(526,708,o),
(359,708,cs),
(133,708,l),
(133,0,l),
(225,0,l),
(225,636,l),
(354,636,ls),
(465,636,o),
(507,584,o),
(507,504,cs),
(507,424,o),
(465,373,o),
(354,373,cs),
(45,373,l)
);
},
{
closed = 1;
nodes = (
(45,125,l),
(443,125,l),
(443,195,l),
(45,195,l)
);
}
);
width = 633;
},
{
layerId = "5A5786DC-1B88-4A0B-9FB6-0051FAC2E168";
shapes = (
{
closed = 1;
nodes = (
(65,319,l),
(325,319,ls),
(472,319,o),
(551,382,o),
(551,513,cs),
(551,631,o),
(486,708,o),
(325,708,cs),
(146,708,l),
(146,0,l),
(166,0,l),
(166,688,l),
(325,688,ls),
(477,688,o),
(531,622,o),
(531,513,cs),
(531,408,o),
(477,340,o),
(325,340,cs),
(65,340,l)
);
},
{
closed = 1;
nodes = (
(65,162,l),
(441,162,l),
(441,180,l),
(65,180,l)
);
}
);
width = 591;
}
);
unicode = 8381;
},
{
glyphname = rupee;
layers = (
{
layerId = "F6AEDC33-7BF1-40E1-A2D2-3CCCCC93695C";
shapes = (
{
closed = 1;
nodes = (
(424,420,o),
(402,402,o),
(360,402,cs),
(272,402,l),
(272,522,l),
(360,522,ls),
(402,522,o),
(424,498,o),
(424,462,cs)
);
},
{
closed = 1;
nodes = (
(50,708,l),
(50,0,l),
(272,0,l),
(272,254,l),
(380,254,l),
(558,254,o),
(649,352,o),
(649,476,c),
(649,606,o),
(558,708,o),
(380,708,cs)
);
},
{
closed = 1;
nodes = (
(245,305,l),
(406,0,l),
(650,0,l),
(476,305,l)
);
},
{
closed = 1;
nodes = (
(674,182,o),
(1008,245,o),
(1008,178,c),
(1008,165,o),
(999,156,o),
(969,156,cs),
(936,156,o),
(901,164,o),
(897,195,c),
(680,195,l),
(702,64,o),
(807,-7,o),
(972,-7,c),
(1125,-7,o),
(1208,73,o),
(1208,173,c),
(1208,376,o),
(870,324,o),
(870,385,c),
(870,401,o),
(888,407,o),
(914,407,cs),
(946,407,o),
(977,398,o),
(985,369,c),
(1202,369,l),
(1179,483,o),
(1089,571,o),
(917,571,cs),
(757,571,o),
(674,489,o),
(674,393,c)
);
}
);
width = 1229;
},
{
layerId = "D00D5DE3-9836-4C68-A522-E01534F2A0A6";
shapes = (
{
closed = 1;
nodes = (
(454,409,o),
(411,356,o),
(298,356,cs),
(165,356,l),
(165,629,l),
(298,629,ls),
(411,629,o),
(454,575,o),
(454,492,cs)
);
},
{
closed = 1;
nodes = (
(73,708,l),
(73,0,l),
(165,0,l),
(165,289,l),
(305,289,ls),
(463,289,o),
(547,368,o),
(547,497,cs),
(547,618,o),
(472,708,o),
(305,708,cs)
);
},
{
closed = 1;
nodes = (
(248,313,l),
(449,0,l),
(552,0,l),
(346,313,l)
);
},
{
closed = 1;
nodes = (
(611,198,o),
(948,295,o),
(948,150,cs),
(948,100,o),
(914,62,o),
(846,62,cs),
(758,62,o),
(706,110,o),
(699,172,c),
(609,172,l),
(625,59,o),
(714,-7,o),
(846,-7,cs),
(962,-7,o),
(1032,59,o),
(1032,148,cs),
(1032,355,o),
(693,261,o),
(693,400,cs),
(693,453,o),
(734,488,o),
(802,488,cs),
(884,488,o),
(929,439,o),
(937,379,c),
(1027,379,l),
(1011,485,o),
(935,557,o),
(803,557,cs),
(683,557,o),
(611,494,o),
(611,403,cs)
);
}
);
width = 1079;
},
{
layerId = "5A5786DC-1B88-4A0B-9FB6-0051FAC2E168";
shapes = (
{
closed = 1;
nodes = (
(471,403,o),
(416,330,o),
(264,330,cs),
(106,330,l),
(106,688,l),
(264,688,ls),
(416,688,o),
(471,617,o),
(471,508,cs)
);
},
{
closed = 1;
nodes = (
(85,708,l),
(85,0,l),
(106,0,l),
(106,309,l),
(264,309,ls),
(411,309,o),
(491,377,o),
(491,508,cs),
(491,625,o),
(425,708,o),
(264,708,cs)
);
},
{
closed = 1;
nodes = (
(250,317,l),
(473,0,l),
(498,0,l),
(275,317,l)
);
},
{
closed = 1;
nodes = (
(576,207,o),
(915,323,o),
(915,134,c),
(915,64,o),
(867,11,o),
(778,11,cs),
(660,11,o),
(598,80,o),
(590,159,c),
(570,159,l),
(582,57,o),
(663,-7,o),
(777,-7,cs),
(872,-7,o),
(935,51,o),
(935,134,c),
(935,344,o),
(596,227,o),
(596,409,c),
(596,482,o),
(650,532,o),
(741,532,cs),
(850,532,o),
(903,461,o),
(911,384,c),
(931,384,l),
(919,486,o),
(850,550,o),
(741,550,cs),
(643,550,o),
(576,496,o),
(576,409,c)
);
}
);
width = 996;
}
);
unicode = 8360;
},
{
glyphname = sterling;
layers = (
{
layerId = "F6AEDC33-7BF1-40E1-A2D2-3CCCCC93695C";
shapes = (
{
closed = 1;
nodes = (
(92,442,o),
(136,346,o),
(136,310,cs),
(136,212,o),
(107,152,o),
(36,99,c),
(63,-6,l),
(618,-6,l),
(618,166,l),
(282,166,l),
(336,209,o),
(347,279,o),
(347,309,c),
(347,382,o),
(304,473,o),
(304,525,c),
(304,567,o),
(318,594,o),
(356,594,cs),
(392,594,o),
(407,569,o),
(411,534,c),
(616,534,l),
(607,673,o),
(520,775,o),
(348,775,cs),
(198,775,o),
(92,694,o),
(92,551,c)
);
},
{
closed = 1;
nodes = (
(31,423,l),
(31,276,l),
(495,276,l),
(495,423,l)
);
}
);
width = 683;
},
{
layerId = "D00D5DE3-9836-4C68-A522-E01534F2A0A6";
shapes = (
{
closed = 1;
nodes = (
(108,414,o),
(174,327,o),
(174,241,cs),
(174,155,o),
(137,103,o),
(82,47,c),
(95,-2,l),
(546,-2,l),
(546,72,l),
(183,72,l),
(238,126,o),
(261,185,o),
(261,244,cs),
(261,342,o),
(196,430,o),
(196,526,cs),
(196,618,o),
(255,660,o),
(324,660,cs),
(404,660,o),
(456,603,o),
(464,528,c),
(550,528,l),
(538,645,o),
(461,736,o),
(321,736,cs),
(193,736,o),
(108,655,o),
(108,536,cs)
);
},
{
closed = 1;
nodes = (
(43,374,l),
(43,311,l),
(418,311,l),
(418,374,l)
);
}
);
width = 593;
},
{
layerId = "5A5786DC-1B88-4A0B-9FB6-0051FAC2E168";
shapes = (
{
closed = 1;
nodes = (
(117,398,o),
(195,317,o),
(195,203,cs),
(195,124,o),
(154,76,o),
(108,19,c),
(112,0,l),
(507,0,l),
(507,20,l),
(129,20,l),
(184,80,o),
(213,133,o),
(213,208,c),
(213,320,o),
(137,406,o),
(137,527,cs),
(137,646,o),
(220,697,o),
(306,697,cs),
(410,697,o),
(483,622,o),
(493,524,c),
(513,524,l),
(500,629,o),
(428,715,o),
(306,715,cs),
(190,715,o),
(117,634,o),
(117,527,cs)
);
},
{
closed = 1;
nodes = (
(50,347,l),
(50,330,l),
(375,330,l),
(375,347,l)
);
}
);
width = 543;
}
);
unicode = 163;
},
{
glyphname = yen;
layers = (
{
layerId = "F6AEDC33-7BF1-40E1-A2D2-3CCCCC93695C";
shapes = (
{
closed = 1;
nodes = (
(491,308,l),
(675,308,l),
(675,452,l),
(478,452,l)
);
},
{
closed = 1;
nodes = (
(53,128,l),
(675,128,l),
(675,272,l),
(53,272,l)
);
},
{
closed = 1;
nodes = (
(254,215,l),
(254,0,l),
(476,0,l),
(476,215,l),
(730,708,l),
(480,708,l),
(337,348,l),
(397,348,l),
(254,708,l),
(0,708,l)
);
},
{
closed = 1;
nodes = (
(53,308,l),
(299,308,l),
(311,452,l),
(53,452,l)
);
}
);
width = 730;
},
{
layerId = "D00D5DE3-9836-4C68-A522-E01534F2A0A6";
shapes = (
{
closed = 1;
nodes = (
(369,322,l),
(561,322,l),
(561,385,l),
(370,385,l)
);
},
{
closed = 1;
nodes = (
(67,181,l),
(561,181,l),
(561,245,l),
(67,245,l)
);
},
{
closed = 1;
nodes = (
(269,268,l),
(269,0,l),
(361,0,l),
(361,268,l),
(592,708,l),
(488,708,l),
(302,324,l),
(329,324,l),
(141,708,l),
(35,708,l)
);
},
{
closed = 1;
nodes = (
(67,322,l),
(281,322,l),
(279,385,l),
(67,385,l)
);
}
);
width = 624;
},
{
layerId = "5A5786DC-1B88-4A0B-9FB6-0051FAC2E168";
shapes = (
{
closed = 1;
nodes = (
(302,330,l),
(498,330,l),
(498,348,l),
(310,348,l)
);
},
{
closed = 1;
nodes = (
(75,210,l),
(498,210,l),
(498,230,l),
(75,230,l)
);
},
{
closed = 1;
nodes = (
(277,297,l),
(277,0,l),
(297,0,l),
(297,297,l),
(516,708,l),
(492,708,l),
(282,311,l),
(291,311,l),
(79,708,l),
(55,708,l)
);
},
{
closed = 1;
nodes = (
(75,330,l),
(271,330,l),
(262,348,l),
(75,348,l)
);
}
);
width = 566;
}
);
unicode = 165;
},
{
glyphname = plus;
layers = (
{
layerId = "F6AEDC33-7BF1-40E1-A2D2-3CCCCC93695C";
shapes = (
{
closed = 1;
nodes = (
(169,595,l),
(169,85,l),
(382,85,l),
(382,595,l)
);
},
{
closed = 1;
nodes = (
(20,238,l),
(531,238,l),
(531,441,l),
(20,441,l)
);
}
);
width = 551;
},
{
layerId = "D00D5DE3-9836-4C68-A522-E01534F2A0A6";
shapes = (
{
closed = 1;
nodes = (
(243,621,l),
(243,111,l),
(332,111,l),
(332,621,l)
);
},
{
closed = 1;
nodes = (
(33,324,l),
(543,324,l),
(543,407,l),
(33,407,l)
);
}
);
width = 576;
},
{
layerId = "5A5786DC-1B88-4A0B-9FB6-0051FAC2E168";
shapes = (
{
closed = 1;
nodes = (
(284,635,l),
(284,125,l),
(304,125,l),
(304,635,l)
);
},
{
closed = 1;
nodes = (
(40,371,l),
(549,371,l),
(549,389,l),
(40,389,l)
);
}
);
width = 589;
}
);
unicode = 43;
},
{
glyphname = minus;
layers = (
{
layerId = "F6AEDC33-7BF1-40E1-A2D2-3CCCCC93695C";
shapes = (
{
closed = 1;
nodes = (
(20,250,l),
(486,250,l),
(486,433,l),
(20,433,l)
);
}
);
width = 506;
},
{
layerId = "D00D5DE3-9836-4C68-A522-E01534F2A0A6";
shapes = (
{
closed = 1;
nodes = (
(33,328,l),
(433,328,l),
(433,405,l),
(33,405,l)
);
}
);
width = 466;
},
{
layerId = "5A5786DC-1B88-4A0B-9FB6-0051FAC2E168";
shapes = (
{
closed = 1;
nodes = (
(40,371,l),
(404,371,l),
(404,389,l),
(40,389,l)
);
}
);
width = 444;
}
);
unicode = 8722;
},
{
glyphname = multiply;
layers = (
{
layerId = "F6AEDC33-7BF1-40E1-A2D2-3CCCCC93695C";
shapes = (
{
closed = 1;
nodes = (
(24,467,l),
(414,78,l),
(561,223,l),
(171,612,l)
);
},
{
closed = 1;
nodes = (
(163,79,l),
(550,470,l),
(406,612,l),
(20,221,l)
);
}
);
width = 581;
},
{
layerId = "D00D5DE3-9836-4C68-A522-E01534F2A0A6";
shapes = (
{
closed = 1;
nodes = (
(34,527,l),
(415,147,l),
(476,208,l),
(96,587,l)
);
},
{
closed = 1;
nodes = (
(93,148,l),
(471,528,l),
(412,587,l),
(34,207,l)
);
}
);
width = 509;
},
{
layerId = "5A5786DC-1B88-4A0B-9FB6-0051FAC2E168";
shapes = (
{
closed = 1;
nodes = (
(40,560,l),
(415,185,l),
(429,199,l),
(54,574,l)
);
},
{
closed = 1;
nodes = (
(54,186,l),
(428,560,l),
(415,573,l),
(41,199,l)
);
}
);
width = 469;
}
);
unicode = 215;
},
{
glyphname = divide;
layers = (
{
layerId = "F6AEDC33-7BF1-40E1-A2D2-3CCCCC93695C";
shapes = (
{
closed = 1;
nodes = (
(20,240,l),
(531,240,l),
(531,441,l),
(20,441,l)
);
},
{
closed = 1;
nodes = (
(164,0,l),
(384,0,l),
(384,212,l),
(164,212,l)
);
},
{
closed = 1;
nodes = (
(164,469,l),
(384,469,l),
(384,681,l),
(164,681,l)
);
}
);
width = 551;
},
{
layerId = "D00D5DE3-9836-4C68-A522-E01534F2A0A6";
shapes = (
{
closed = 1;
nodes = (
(33,324,l),
(543,324,l),
(543,407,l),
(33,407,l)
);
},
{
closed = 1;
nodes = (
(232,94,l),
(343,94,l),
(343,200,l),
(232,200,l)
);
},
{
closed = 1;
nodes = (
(232,534,l),
(343,534,l),
(343,640,l),
(232,640,l)
);
}
);
width = 576;
},
{
layerId = "5A5786DC-1B88-4A0B-9FB6-0051FAC2E168";
shapes = (
{
closed = 1;
nodes = (
(40,371,l),
(549,371,l),
(549,389,l),
(40,389,l)
);
},
{
closed = 1;
nodes = (
(270,145,l),
(320,145,l),
(320,194,l),
(270,194,l)
);
},
{
closed = 1;
nodes = (
(270,569,l),
(320,569,l),
(320,618,l),
(270,618,l)
);
}
);
width = 589;
}
);
unicode = 247;
},
{
glyphname = equal;
layers = (
{
layerId = "F6AEDC33-7BF1-40E1-A2D2-3CCCCC93695C";
shapes = (
{
closed = 1;
nodes = (
(20,99,l),
(606,99,l),
(606,300,l),
(20,300,l)
);
},
{
closed = 1;
nodes = (
(20,379,l),
(606,379,l),
(606,580,l),
(20,580,l)
);
}
);
width = 626;
},
{
layerId = "D00D5DE3-9836-4C68-A522-E01534F2A0A6";
shapes = (
{
closed = 1;
nodes = (
(33,218,l),
(553,218,l),
(553,301,l),
(33,301,l)
);
},
{
closed = 1;
nodes = (
(33,431,l),
(553,431,l),
(553,514,l),
(33,514,l)
);
}
);
width = 586;
},
{
layerId = "5A5786DC-1B88-4A0B-9FB6-0051FAC2E168";
shapes = (
{
closed = 1;
nodes = (
(40,283,l),
(524,283,l),
(524,301,l),
(40,301,l)
);
},
{
closed = 1;
nodes = (
(40,460,l),
(524,460,l),
(524,478,l),
(40,478,l)
);
}
);
width = 564;
}
);
unicode = 61;
},
{
glyphname = notequal;
layers = (
{
layerId = "F6AEDC33-7BF1-40E1-A2D2-3CCCCC93695C";
shapes = (
{
closed = 1;
nodes = (
(21,-1,l),
(128,-1,l),
(606,680,l),
(500,680,l)
);
},
{
alignment = -1;
ref = equal;
}
);
width = 626;
},
{
layerId = "D00D5DE3-9836-4C68-A522-E01534F2A0A6";
shapes = (
{
closed = 1;
nodes = (
(78,111,l),
(131,111,l),
(509,621,l),
(455,621,l)
);
},
{
alignment = -1;
ref = equal;
}
);
width = 586;
},
{
layerId = "5A5786DC-1B88-4A0B-9FB6-0051FAC2E168";
shapes = (
{
closed = 1;
nodes = (
(110,173,l),
(133,173,l),
(455,588,l),
(431,588,l)
);
},
{
alignment = -1;
ref = equal;
}
);
width = 564;
}
);
unicode = 8800;
},
{
glyphname = greater;
layers = (
{
layerId = "F6AEDC33-7BF1-40E1-A2D2-3CCCCC93695C";
shapes = (
{
closed = 1;
nodes = (
(20,125,l),
(297,125,l),
(477,340,l),
(297,556,l),
(20,556,l),
(200,340,l)
);
}
);
width = 497;
},
{
layerId = "D00D5DE3-9836-4C68-A522-E01534F2A0A6";
shapes = (
{
closed = 1;
nodes = (
(33,137,l),
(147,137,l),
(389,366,l),
(147,596,l),
(33,596,l),
(275,366,l)
);
}
);
width = 422;
},
{
layerId = "5A5786DC-1B88-4A0B-9FB6-0051FAC2E168";
shapes = (
{
closed = 1;
nodes = (
(40,143,l),
(65,143,l),
(341,380,l),
(65,618,l),
(40,618,l),
(316,380,l)
);
}
);
width = 381;
}
);
unicode = 62;
},
{
glyphname = less;
layers = (
{
layerId = "F6AEDC33-7BF1-40E1-A2D2-3CCCCC93695C";
shapes = (
{
closed = 1;
nodes = (
(297,340,l),
(477,556,l),
(200,556,l),
(20,340,l),
(200,125,l),
(477,125,l)
);
}
);
width = 497;
},
{
layerId = "D00D5DE3-9836-4C68-A522-E01534F2A0A6";
shapes = (
{
closed = 1;
nodes = (
(147,366,l),
(389,596,l),
(275,596,l),
(33,366,l),
(275,137,l),
(389,137,l)
);
}
);
width = 422;
},
{
layerId = "5A5786DC-1B88-4A0B-9FB6-0051FAC2E168";
shapes = (
{
closed = 1;
nodes = (
(65,380,l),
(341,618,l),
(316,618,l),
(40,380,l),
(316,143,l),
(341,143,l)
);
}
);
width = 381;
}
);
unicode = 60;
},
{
glyphname = greaterequal;
layers = (
{
layerId = "F6AEDC33-7BF1-40E1-A2D2-3CCCCC93695C";
shapes = (
{
closed = 1;
nodes = (
(292,195,l),
(472,375,l),
(292,556,l),
(20,556,l),
(206,368,l),
(206,382,l),
(20,195,l)
);
},
{
closed = 1;
nodes = (
(20,111,l),
(20,-60,l),
(444,-60,l),
(444,111,l)
);
}
);
width = 492;
},
{
layerId = "D00D5DE3-9836-4C68-A522-E01534F2A0A6";
shapes = (
{
closed = 1;
nodes = (
(151,213,l),
(395,404,l),
(151,596,l),
(37,596,l),
(284,398,l),
(284,409,l),
(37,213,l)
);
},
{
closed = 1;
nodes = (
(33,163,l),
(33,90,l),
(383,90,l),
(383,163,l)
);
}
);
width = 428;
},
{
layerId = "5A5786DC-1B88-4A0B-9FB6-0051FAC2E168";
shapes = (
{
closed = 1;
nodes = (
(74,223,l),
(352,420,l),
(74,618,l),
(46,618,l),
(327,415,l),
(327,424,l),
(46,223,l)
);
},
{
closed = 1;
nodes = (
(40,191,l),
(40,173,l),
(350,173,l),
(350,191,l)
);
}
);
width = 392;
}
);
unicode = 8805;
},
{
glyphname = lessequal;
layers = (
{
layerId = "F6AEDC33-7BF1-40E1-A2D2-3CCCCC93695C";
shapes = (
{
closed = 1;
nodes = (
(286,382,l),
(286,368,l),
(472,556,l),
(200,556,l),
(20,375,l),
(200,195,l),
(472,195,l)
);
},
{
closed = 1;
nodes = (
(48,-60,l),
(472,-60,l),
(472,111,l),
(48,111,l)
);
}
);
width = 492;
},
{
layerId = "D00D5DE3-9836-4C68-A522-E01534F2A0A6";
shapes = (
{
closed = 1;
nodes = (
(143,410,l),
(143,398,l),
(391,596,l),
(276,596,l),
(33,404,l),
(276,213,l),
(391,213,l)
);
},
{
closed = 1;
nodes = (
(44,90,l),
(395,90,l),
(395,163,l),
(44,163,l)
);
}
);
width = 428;
},
{
layerId = "5A5786DC-1B88-4A0B-9FB6-0051FAC2E168";
shapes = (
{
closed = 1;
nodes = (
(64,425,l),
(64,414,l),
(346,618,l),
(318,618,l),
(40,420,l),
(318,223,l),
(346,223,l)
);
},
{
closed = 1;
nodes = (
(42,173,l),
(352,173,l),
(352,191,l),
(42,191,l)
);
}
);
width = 392;
}
);
unicode = 8804;
},
{
glyphname = plusminus;
layers = (
{
layerId = "F6AEDC33-7BF1-40E1-A2D2-3CCCCC93695C";
shapes = (
{
closed = 1;
nodes = (
(169,630,l),
(169,146,l),
(382,146,l),
(382,630,l)
);
},
{
closed = 1;
nodes = (
(20,344,l),
(531,344,l),
(531,545,l),
(20,545,l)
);
},
{
closed = 1;
nodes = (
(20,96,l),
(531,96,l),
(531,297,l),
(20,297,l)
);
}
);
width = 551;
},
{
layerId = "D00D5DE3-9836-4C68-A522-E01534F2A0A6";
shapes = (
{
closed = 1;
nodes = (
(243,633,l),
(243,158,l),
(332,158,l),
(332,633,l)
);
},
{
closed = 1;
nodes = (
(33,374,l),
(543,374,l),
(543,457,l),
(33,457,l)
);
},
{
closed = 1;
nodes = (
(33,93,l),
(543,93,l),
(543,176,l),
(33,176,l)
);
}
);
width = 576;
},
{
layerId = "5A5786DC-1B88-4A0B-9FB6-0051FAC2E168";
shapes = (
{
closed = 1;
nodes = (
(284,635,l),
(284,165,l),
(304,165,l),
(304,635,l)
);
},
{
closed = 1;
nodes = (
(40,391,l),
(549,391,l),
(549,409,l),
(40,409,l)
);
},
{
closed = 1;
nodes = (
(40,91,l),
(549,91,l),
(549,109,l),
(40,109,l)
);
}
);
width = 589;
}
);
unicode = 177;
},
{
glyphname = approxequal;
layers = (
{
layerId = "F6AEDC33-7BF1-40E1-A2D2-3CCCCC93695C";
shapes = (
{
alignment = -1;
pos = (0,-111);
ref = asciitilde;
},
{
alignment = -1;
pos = (0,164);
ref = asciitilde;
}
);
width = 711;
},
{
layerId = "D00D5DE3-9836-4C68-A522-E01534F2A0A6";
shapes = (
{
closed = 1;
nodes = (
(104,197,l),
(111,237,o),
(133,265,o),
(168,265,cs),
(227,265,o),
(267,198,o),
(344,198,cs),
(417,198,o),
(469,248,o),
(485,348,c),
(413,348,l),
(406,308,o),
(385,281,o),
(350,281,cs),
(292,281,o),
(250,348,o),
(174,348,cs),
(100,348,o),
(50,297,o),
(33,197,c)
);
},
{
closed = 1;
nodes = (
(104,408,l),
(111,448,o),
(133,476,o),
(168,476,cs),
(227,476,o),
(267,409,o),
(344,409,cs),
(417,409,o),
(469,459,o),
(485,559,c),
(413,559,l),
(406,519,o),
(385,492,o),
(350,492,cs),
(292,492,o),
(250,559,o),
(174,559,cs),
(100,559,o),
(50,508,o),
(33,408,c)
);
}
);
width = 518;
},
{
layerId = "5A5786DC-1B88-4A0B-9FB6-0051FAC2E168";
shapes = (
{
alignment = -1;
pos = (0,-11);
ref = asciitilde;
},
{
alignment = -1;
pos = (0,164);
ref = asciitilde;
}
);
width = 412;
}
);
unicode = 8776;
},
{
glyphname = asciitilde;
layers = (
{
layerId = "F6AEDC33-7BF1-40E1-A2D2-3CCCCC93695C";
shapes = (
{
closed = 1;
nodes = (
(184,181,l),
(192,230,o),
(208,250,o),
(244,250,cs),
(303,250,o),
(359,183,o),
(455,183,cs),
(571,183,o),
(662,259,o),
(691,447,c),
(525,447,l),
(518,397,o),
(502,378,o),
(466,378,cs),
(408,378,o),
(351,445,o),
(255,445,cs),
(139,445,o),
(50,369,o),
(20,181,c)
);
}
);
width = 711;
},
{
layerId = "D00D5DE3-9836-4C68-A522-E01534F2A0A6";
shapes = (
{
closed = 1;
nodes = (
(104,244,l),
(111,284,o),
(133,312,o),
(168,312,cs),
(227,312,o),
(267,245,o),
(344,245,cs),
(417,245,o),
(469,295,o),
(485,395,c),
(413,395,l),
(406,355,o),
(385,328,o),
(350,328,cs),
(292,328,o),
(250,395,o),
(174,395,cs),
(100,395,o),
(50,344,o),
(33,244,c)
);
}
);
width = 518;
},
{
layerId = "5A5786DC-1B88-4A0B-9FB6-0051FAC2E168";
shapes = (
{
closed = 1;
nodes = (
(60,279,l),
(67,314,o),
(91,346,o),
(126,346,c),
(185,346,o),
(217,279,o),
(283,279,c),
(333,279,o),
(362,315,o),
(372,367,c),
(352,367,l),
(345,332,o),
(321,300,o),
(286,300,c),
(228,300,o),
(195,367,o),
(129,367,cs),
(79,367,o),
(50,331,o),
(40,279,c)
);
}
);
width = 412;
}
);
unicode = 126;
},
{
glyphname = logicalnot;
layers = (
{
layerId = "F6AEDC33-7BF1-40E1-A2D2-3CCCCC93695C";
shapes = (
{
closed = 1;
nodes = (
(21,282,l),
(507,282,l),
(507,155,l),
(729,155,l),
(729,448,l),
(21,448,l)
);
}
);
width = 794;
},
{
layerId = "D00D5DE3-9836-4C68-A522-E01534F2A0A6";
shapes = (
{
closed = 1;
nodes = (
(46,361,l),
(596,361,l),
(596,220,l),
(686,220,l),
(686,433,l),
(46,433,l)
);
}
);
width = 739;
},
{
layerId = "5A5786DC-1B88-4A0B-9FB6-0051FAC2E168";
shapes = (
{
closed = 1;
nodes = (
(59,404,l),
(645,404,l),
(645,255,l),
(663,255,l),
(663,424,l),
(59,424,l)
);
}
);
width = 708;
}
);
unicode = 172;
},
{
glyphname = infinity;
layers = (
{
layerId = "F6AEDC33-7BF1-40E1-A2D2-3CCCCC93695C";
shapes = (
{
closed = 1;
nodes = (
(33,229,o),
(106,161,o),
(231,160,cs),
(351,159,o),
(439,243,o),
(463,344,c),
(350,372,l),
(326,322,o),
(284,303,o),
(247,303,cs),
(222,303,o),
(204,318,o),
(204,347,cs),
(204,377,o),
(222,393,o),
(247,393,cs),
(338,393,o),
(381,160,o),
(618,160,cs),
(724,160,o),
(812,230,o),
(812,348,cs),
(812,467,o),
(740,534,o),
(613,535,cs),
(494,536,o),
(406,452,o),
(382,351,c),
(494,324,l),
(518,373,o),
(560,393,o),
(597,393,cs),
(622,393,o),
(641,378,o),
(641,348,cs),
(641,319,o),
(622,303,o),
(597,303,c),
(462,303,o),
(465,535,o),
(226,535,cs),
(121,535,o),
(33,466,o),
(33,347,cs)
);
}
);
width = 844;
},
{
layerId = "D00D5DE3-9836-4C68-A522-E01534F2A0A6";
shapes = (
{
closed = 1;
nodes = (
(21,254,o),
(81,199,o),
(175,199,cs),
(272,198,o),
(335,273,o),
(361,344,c),
(316,368,l),
(284,304,o),
(238,262,o),
(181,262,cs),
(125,262,o),
(95,296,o),
(95,347,cs),
(95,399,o),
(128,434,o),
(183,434,cs),
(305,434,o),
(329,199,o),
(516,199,cs),
(603,199,o),
(671,254,o),
(671,348,cs),
(671,442,o),
(612,496,o),
(517,496,cs),
(420,497,o),
(357,422,o),
(331,351,c),
(375,327,l),
(408,391,o),
(454,433,o),
(511,433,cs),
(567,433,o),
(597,399,o),
(597,348,cs),
(597,296,o),
(564,261,o),
(509,261,cs),
(368,261,o),
(358,496,o),
(176,496,cs),
(89,496,o),
(21,441,o),
(21,347,cs)
);
}
);
width = 671;
},
{
layerId = "5A5786DC-1B88-4A0B-9FB6-0051FAC2E168";
shapes = (
{
closed = 1;
nodes = (
(15,267,o),
(67,220,o),
(144,220,cs),
(229,220,o),
(278,289,o),
(305,344,c),
(298,366,l),
(261,294,o),
(212,240,o),
(144,240,cs),
(72,240,o),
(35,284,o),
(35,347,cs),
(35,411,o),
(76,457,o),
(148,457,cs),
(287,457,o),
(301,220,o),
(460,220,c),
(536,220,o),
(593,267,o),
(593,348,cs),
(593,428,o),
(541,475,o),
(464,475,cs),
(379,475,o),
(330,406,o),
(303,351,c),
(310,329,l),
(347,401,o),
(396,455,o),
(464,455,cs),
(536,455,o),
(573,411,o),
(573,348,cs),
(573,284,o),
(532,238,o),
(460,238,c),
(317,238,o),
(299,475,o),
(148,475,cs),
(72,475,o),
(15,428,o),
(15,347,cs)
);
}
);
width = 576;
}
);
unicode = 8734;
},
{
glyphname = integral;
layers = (
{
layerId = "F6AEDC33-7BF1-40E1-A2D2-3CCCCC93695C";
shapes = (
{
closed = 1;
nodes = (
(1,-98,l),
(-1,-110,o),
(-8,-120,o),
(-22,-120,cs),
(-39,-120,l),
(-57,-310,l),
(-44,-310,ls),
(88,-310,o),
(205,-268,o),
(222,-98,cs),
(306,746,l),
(308,758,o),
(315,768,o),
(328,768,cs),
(346,768,l),
(364,958,l),
(351,958,ls),
(219,958,o),
(102,916,o),
(85,746,cs)
);
}
);
width = 312;
},
{
layerId = "D00D5DE3-9836-4C68-A522-E01534F2A0A6";
shapes = (
{
closed = 1;
nodes = (
(44,-57,l),
(38,-105,o),
(29,-119,o),
(-7,-119,cs),
(-31,-119,l),
(-39,-198,l),
(-16,-198,ls),
(75,-198,o),
(124,-157,o),
(134,-57,cs),
(226,783,l),
(231,826,o),
(251,839,o),
(280,839,cs),
(301,839,l),
(309,918,l),
(288,918,ls),
(203,918,o),
(146,881,o),
(135,783,cs)
);
}
);
width = 262;
},
{
layerId = "5A5786DC-1B88-4A0B-9FB6-0051FAC2E168";
shapes = (
{
closed = 1;
nodes = (
(67,-34,ls),
(59,-102,o),
(49,-118,o),
(1,-118,cs),
(-27,-118,l),
(-29,-136,l),
(0,-136,ls),
(68,-136,o),
(79,-96,o),
(86,-34,cs),
(182,804,ls),
(189,863,o),
(215,878,o),
(254,878,cs),
(276,878,l),
(278,896,l),
(254,896,ls),
(194,896,o),
(170,862,o),
(163,804,cs)
);
}
);
width = 234;
}
);
unicode = 8747;
},
{
glyphname = Ohm;
layers = (
{
layerId = "F6AEDC33-7BF1-40E1-A2D2-3CCCCC93695C";
shapes = (
{
closed = 1;
nodes = (
(33,272,o),
(65,174,o),
(205,109,c),
(232,168,l),
(33,168,l),
(33,0,l),
(302,0,l),
(302,173,l),
(277,235,o),
(259,286,o),
(259,357,cs),
(259,464,o),
(310,518,o),
(398,518,cs),
(488,518,o),
(536,463,o),
(536,357,cs),
(536,286,o),
(520,235,o),
(495,173,c),
(495,0,l),
(763,0,l),
(763,168,l),
(563,168,l),
(590,109,l),
(731,174,o),
(763,272,o),
(763,389,cs),
(763,605,o),
(601,724,o),
(398,724,cs),
(194,724,o),
(33,605,o),
(33,389,cs)
);
}
);
width = 795;
},
{
layerId = "D00D5DE3-9836-4C68-A522-E01534F2A0A6";
shapes = (
{
closed = 1;
nodes = (
(44,222,o),
(110,100,o),
(247,55,c),
(257,71,l),
(56,71,l),
(56,0,l),
(333,0,l),
(333,76,l),
(219,107,o),
(137,207,o),
(136,355,c),
(136,521,o),
(247,633,o),
(399,633,cs),
(548,633,o),
(660,525,o),
(660,355,cs),
(660,207,o),
(579,107,o),
(464,76,c),
(464,0,l),
(740,0,l),
(740,71,l),
(540,71,l),
(550,55,l),
(688,100,o),
(753,222,o),
(753,366,cs),
(753,581,o),
(595,718,o),
(399,718,cs),
(201,718,o),
(44,581,o),
(44,366,cs)
);
}
);
width = 797;
},
{
layerId = "5A5786DC-1B88-4A0B-9FB6-0051FAC2E168";
shapes = (
{
closed = 1;
nodes = (
(50,194,o),
(135,60,o),
(270,25,c),
(270,18,l),
(69,18,l),
(69,0,l),
(350,0,l),
(350,22,l),
(187,36,o),
(70,164,o),
(69,354,c),
(69,553,o),
(212,697,o),
(399,697,cs),
(581,697,o),
(728,559,o),
(728,354,cs),
(728,164,o),
(611,36,o),
(447,22,c),
(447,0,l),
(728,0,l),
(728,18,l),
(528,18,l),
(528,25,l),
(664,60,o),
(748,194,o),
(748,354,cs),
(748,568,o),
(592,715,o),
(399,715,cs),
(205,715,o),
(50,568,o),
(50,354,c)
);
}
);
width = 798;
}
);
unicode = 8486;
},
{
glyphname = increment;
layers = (
{
layerId = "F6AEDC33-7BF1-40E1-A2D2-3CCCCC93695C";
shapes = (
{
closed = 1;
nodes = (
(20,168,l),
(20,0,l),
(750,0,l),
(750,168,l),
(475,711,l),
(296,711,l)
);
},
{
closed = 1;
nodes = (
(521,168,l),
(249,168,l),
(386,460,l)
);
}
);
width = 770;
},
{
layerId = "D00D5DE3-9836-4C68-A522-E01534F2A0A6";
shapes = (
{
closed = 1;
nodes = (
(21,72,l),
(21,0,l),
(675,0,l),
(675,72,l),
(386,709,l),
(310,709,l)
);
},
{
closed = 1;
nodes = (
(582,72,l),
(114,72,l),
(347,604,l)
);
}
);
width = 696;
},
{
layerId = "5A5786DC-1B88-4A0B-9FB6-0051FAC2E168";
shapes = (
{
closed = 1;
nodes = (
(21,19,l),
(21,0,l),
(634,0,l),
(634,19,l),
(337,708,l),
(317,708,l)
);
},
{
closed = 1;
nodes = (
(615,19,l),
(40,19,l),
(325,684,l)
);
}
);
width = 655;
}
);
unicode = 8710;
},
{
glyphname = product;
layers = (
{
layerId = "F6AEDC33-7BF1-40E1-A2D2-3CCCCC93695C";
shapes = (
{
closed = 1;
nodes = (
(10,545,l),
(75,545,l),
(75,0,l),
(297,0,l),
(297,545,l),
(456,545,l),
(456,0,l),
(678,0,l),
(678,545,l),
(743,545,l),
(743,711,l),
(10,711,l)
);
}
);
width = 753;
},
{
layerId = "D00D5DE3-9836-4C68-A522-E01534F2A0A6";
shapes = (
{
closed = 1;
nodes = (
(45,639,l),
(125,639,l),
(125,0,l),
(217,0,l),
(217,639,l),
(524,639,l),
(524,0,l),
(616,0,l),
(616,639,l),
(696,639,l),
(696,709,l),
(45,709,l)
);
}
);
width = 741;
},
{
layerId = "5A5786DC-1B88-4A0B-9FB6-0051FAC2E168";
shapes = (
{
closed = 1;
nodes = (
(65,690,l),
(153,690,l),
(153,0,l),
(173,0,l),
(173,690,l),
(562,690,l),
(562,0,l),
(582,0,l),
(582,690,l),
(670,690,l),
(670,708,l),
(65,708,l)
);
}
);
width = 735;
}
);
unicode = 8719;
},
{
glyphname = summation;
layers = (
{
layerId = "F6AEDC33-7BF1-40E1-A2D2-3CCCCC93695C";
shapes = (
{
closed = 1;
nodes = (
(40,453,l),
(258,346,l),
(40,214,l),
(40,-45,l),
(546,-45,l),
(546,123,l),
(150,123,l),
(144,50,l),
(473,268,l),
(473,435,l),
(144,616,l),
(195,544,l),
(546,544,l),
(546,711,l),
(40,711,l)
);
}
);
width = 586;
},
{
layerId = "D00D5DE3-9836-4C68-A522-E01534F2A0A6";
shapes = (
{
closed = 1;
nodes = (
(41,604,l),
(305,322,l),
(41,33,l),
(41,-72,l),
(458,-72,l),
(458,0,l),
(87,0,l),
(87,-33,l),
(390,289,l),
(390,361,l),
(87,670,l),
(103,638,l),
(458,638,l),
(458,709,l),
(41,709,l)
);
}
);
width = 466;
},
{
layerId = "5A5786DC-1B88-4A0B-9FB6-0051FAC2E168";
shapes = (
{
closed = 1;
nodes = (
(41,687,l),
(331,309,l),
(41,-66,l),
(41,-87,l),
(410,-87,l),
(410,-68,l),
(53,-68,l),
(55,-78,l),
(345,301,l),
(345,320,l),
(55,699,l),
(53,689,l),
(410,689,l),
(410,708,l),
(41,708,l)
);
}
);
width = 400;
}
);
unicode = 8721;
},
{
glyphname = radical;
layers = (
{
layerId = "F6AEDC33-7BF1-40E1-A2D2-3CCCCC93695C";
shapes = (
{
closed = 1;
nodes = (
(450,194,l),
(476,172,l),
(309,472,l),
(19,301,l),
(80,201,l),
(173,255,l),
(338,-40,l),
(443,-40,l),
(993,927,l),
(869,927,l)
);
}
);
width = 1020;
},
{
layerId = "D00D5DE3-9836-4C68-A522-E01534F2A0A6";
shapes = (
{
closed = 1;
nodes = (
(272,52,l),
(288,46,l),
(162,269,l),
(16,186,l),
(44,139,l),
(110,176,l),
(235,-44,l),
(275,-44,l),
(765,869,l),
(708,869,l)
);
}
);
width = 788;
},
{
layerId = "5A5786DC-1B88-4A0B-9FB6-0051FAC2E168";
shapes = (
{
closed = 1;
nodes = (
(174,-26,l),
(185,-23,l),
(81,158,l),
(14,122,l),
(24,105,l),
(75,133,l),
(178,-46,l),
(183,-46,l),
(639,837,l),
(619,837,l)
);
}
);
width = 660;
}
);
unicode = 8730;
},
{
glyphname = micro;
layers = (
{
layerId = "F6AEDC33-7BF1-40E1-A2D2-3CCCCC93695C";
shapes = (
{
closed = 1;
nodes = (
(676,564,l),
(454,564,l),
(454,0,l),
(676,0,l)
);
},
{
closed = 1;
nodes = (
(454,266,l),
(454,218,o),
(424,188,o),
(375,188,cs),
(327,188,o),
(296,218,o),
(296,266,c),
(296,564,l),
(75,564,l),
(75,-270,l),
(296,-270,l),
(296,20,l),
(256,3,l),
(264,0,o),
(278,-4,o),
(291,-4,c),
(386,-4,o),
(444,49,o),
(469,103,c)
);
}
);
width = 751;
},
{
layerId = "D00D5DE3-9836-4C68-A522-E01534F2A0A6";
shapes = (
{
closed = 1;
nodes = (
(584,549,l),
(493,549,l),
(493,0,l),
(584,0,l)
);
},
{
closed = 1;
nodes = (
(493,258,l),
(493,132,o),
(428,71,o),
(336,71,cs),
(240,71,o),
(172,134,o),
(172,264,cs),
(172,549,l),
(81,549,l),
(81,-260,l),
(172,-260,l),
(172,124,l),
(153,118,l),
(172,20,o),
(241,-9,o),
(306,-9,cs),
(407,-9,o),
(491,53,o),
(503,175,c)
);
}
);
width = 666;
},
{
layerId = "5A5786DC-1B88-4A0B-9FB6-0051FAC2E168";
shapes = (
{
closed = 1;
nodes = (
(534,540,l),
(514,540,l),
(514,0,l),
(534,0,l)
);
},
{
closed = 1;
nodes = (
(514,253,l),
(514,84,o),
(430,6,o),
(314,6,c),
(192,6,o),
(104,87,o),
(104,263,c),
(104,540,l),
(85,540,l),
(85,-254,l),
(104,-254,l),
(104,182,l),
(97,181,l),
(121,31,o),
(221,-12,o),
(314,-12,c),
(418,-12,o),
(517,55,o),
(522,215,c)
);
}
);
width = 619;
}
);
unicode = 181;
},
{
glyphname = partialdiff;
layers = (
{
layerId = "F6AEDC33-7BF1-40E1-A2D2-3CCCCC93695C";
shapes = (
{
closed = 1;
nodes = (
(378,233,o),
(360,186,o),
(311,186,cs),
(282,186,o),
(255,208,o),
(255,267,cs),
(255,332,o),
(274,377,o),
(326,377,cs),
(352,377,o),
(378,358,o),
(378,311,cs)
);
},
{
closed = 1;
nodes = (
(30,81,o),
(151,-6,o),
(291,-6,cs),
(497,-6,o),
(612,146,o),
(612,401,cs),
(612,609,o),
(518,740,o),
(333,740,cs),
(293,740,o),
(248,734,o),
(199,721,c),
(199,614,l),
(218,616,o),
(236,617,o),
(252,617,cs),
(345,617,o),
(385,585,o),
(407,527,c),
(379,554,o),
(340,561,o),
(303,561,cs),
(154,561,o),
(30,456,o),
(30,266,cs)
);
}
);
width = 642;
},
{
layerId = "D00D5DE3-9836-4C68-A522-E01534F2A0A6";
shapes = (
{
closed = 1;
nodes = (
(428,188,o),
(362,71,o),
(248,71,cs),
(185,71,o),
(131,116,o),
(131,223,cs),
(131,367,o),
(199,478,o),
(308,478,cs),
(381,478,o),
(428,433,o),
(428,326,cs)
);
},
{
closed = 1;
nodes = (
(38,64,o),
(131,-10,o),
(241,-10,cs),
(420,-10,o),
(531,152,o),
(531,413,cs),
(531,637,o),
(446,740,o),
(298,740,cs),
(265,740,o),
(233,736,o),
(196,726,c),
(196,675,l),
(221,681,o),
(246,685,o),
(269,685,cs),
(408,685,o),
(445,568,o),
(448,411,c),
(433,527,o),
(367,555,o),
(300,555,cs),
(137,555,o),
(38,401,o),
(38,223,cs)
);
}
);
width = 570;
},
{
layerId = "5A5786DC-1B88-4A0B-9FB6-0051FAC2E168";
shapes = (
{
closed = 1;
nodes = (
(455,163,o),
(363,8,o),
(213,8,cs),
(132,8,o),
(63,65,o),
(63,199,cs),
(63,387,o),
(158,534,o),
(298,534,cs),
(397,534,o),
(455,474,o),
(455,335,cs)
);
},
{
closed = 1;
nodes = (
(43,55,o),
(120,-12,o),
(213,-12,cs),
(377,-12,o),
(487,156,o),
(487,419,cs),
(487,652,o),
(406,740,o),
(278,740,cs),
(249,740,o),
(224,737,o),
(194,729,c),
(194,709,l),
(223,717,o),
(251,722,o),
(278,722,cs),
(442,722,o),
(478,559,o),
(470,347,c),
(463,512,o),
(382,552,o),
(298,552,cs),
(127,552,o),
(43,370,o),
(43,199,cs)
);
}
);
width = 530;
}
);
unicode = 8706;
},
{
glyphname = percent;
layers = (
{
layerId = "F6AEDC33-7BF1-40E1-A2D2-3CCCCC93695C";
shapes = (
{
closed = 1;
nodes = (
(20,421,o),
(99,362,o),
(202,362,cs),
(305,362,o),
(382,421,o),
(382,543,cs),
(382,666,o),
(305,725,o),
(202,725,cs),
(99,725,o),
(20,666,o),
(20,543,cs)
);
},
{
closed = 1;
nodes = (
(223,595,o),
(237,578,o),
(237,543,cs),
(237,509,o),
(223,492,o),
(200,492,cs),
(178,492,o),
(166,509,o),
(166,543,cs),
(166,578,o),
(178,595,o),
(200,595,cs)
);
},
{
closed = 1;
nodes = (
(157,0,l),
(370,0,l),
(745,715,l),
(532,715,l)
);
},
{
closed = 1;
nodes = (
(520,49,o),
(598,-10,o),
(701,-10,cs),
(804,-10,o),
(881,49,o),
(881,172,cs),
(881,295,o),
(804,354,o),
(701,354,cs),
(598,354,o),
(520,295,o),
(520,172,cs)
);
},
{
closed = 1;
nodes = (
(722,224,o),
(736,206,o),
(736,172,cs),
(736,137,o),
(722,120,o),
(700,120,cs),
(677,120,o),
(665,137,o),
(665,172,cs),
(665,206,o),
(677,224,o),
(700,224,cs)
);
}
);
width = 901;
},
{
layerId = "D00D5DE3-9836-4C68-A522-E01534F2A0A6";
shapes = (
{
closed = 1;
nodes = (
(33,479,o),
(96,423,o),
(180,423,cs),
(264,423,o),
(327,479,o),
(327,570,cs),
(327,662,o),
(264,719,o),
(180,719,cs),
(96,719,o),
(33,662,o),
(33,570,cs)
);
},
{
closed = 1;
nodes = (
(228,661,o),
(262,624,o),
(262,570,cs),
(262,517,o),
(228,480,o),
(179,480,cs),
(131,480,o),
(98,517,o),
(98,570,cs),
(98,624,o),
(131,661,o),
(179,661,cs)
);
},
{
closed = 1;
nodes = (
(82,0,l),
(173,0,l),
(581,710,l),
(490,710,l)
);
},
{
closed = 1;
nodes = (
(337,48,o),
(400,-9,o),
(484,-9,cs),
(567,-9,o),
(630,48,o),
(630,140,cs),
(630,231,o),
(567,288,o),
(484,288,cs),
(400,288,o),
(337,231,o),
(337,140,cs)
);
},
{
closed = 1;
nodes = (
(532,230,o),
(566,193,o),
(566,140,cs),
(566,85,o),
(532,49,o),
(483,49,cs),
(434,49,o),
(401,85,o),
(401,140,cs),
(401,193,o),
(434,230,o),
(483,230,cs)
);
}
);
width = 663;
},
{
layerId = "5A5786DC-1B88-4A0B-9FB6-0051FAC2E168";
shapes = (
{
closed = 1;
nodes = (
(40,511,o),
(95,456,o),
(168,456,c),
(241,456,o),
(296,511,o),
(296,585,c),
(296,660,o),
(241,715,o),
(168,715,c),
(95,715,o),
(40,660,o),
(40,585,c)
);
},
{
closed = 1;
nodes = (
(231,697,o),
(276,650,o),
(276,585,c),
(276,521,o),
(231,474,o),
(168,474,c),
(105,474,o),
(60,521,o),
(60,585,c),
(60,650,o),
(105,697,o),
(168,697,c)
);
},
{
closed = 1;
nodes = (
(41,0,l),
(64,0,l),
(490,708,l),
(467,708,l)
);
},
{
closed = 1;
nodes = (
(236,47,o),
(291,-8,o),
(364,-8,c),
(437,-8,o),
(492,47,o),
(492,122,c),
(492,196,o),
(437,251,o),
(364,251,c),
(291,251,o),
(236,196,o),
(236,122,c)
);
},
{
closed = 1;
nodes = (
(427,233,o),
(472,186,o),
(472,122,c),
(472,57,o),
(427,10,o),
(364,10,c),
(301,10,o),
(256,57,o),
(256,122,c),
(256,186,o),
(301,233,o),
(364,233,c)
);
}
);
width = 532;
}
);
unicode = 37;
},
